<svg width="1785" height="1128" viewBox="0 0 1785 1128" fill="none" xmlns="http://www.w3.org/2000/svg"><g clip-path="url(#a)"><path fill="#3D4347" d="M0 0h1785v1128H0z"/><g style="mix-blend-mode:overlay" clip-path="url(#b)"><path opacity=".39" d="M1590.54 119.052V22.255L1675.38-27l84.85 49.255v96.797l-84.85 49.255-84.84-49.255zM996.588 849.384v-96.811l84.862-49.256 84.84 49.256v96.811l-84.84 49.255-84.862-49.255zM826.839 1433.64v-96.82l84.846-49.25 84.846 49.25v96.82l-84.846 49.25-84.846-49.25zm254.611-146.07v-96.83l84.84-49.25 84.85 49.25v96.81l-84.85 49.26-84.84-49.24zM317.822 1141.5v-96.79l84.846-49.26 84.903 49.26v96.79l-84.917 49.24-84.832-49.24zm509.089 0v-96.79l84.845-49.26 84.846 49.26v96.79l-84.86 49.24-84.831-49.24zm593.919-438.183l-84.85 49.256-84.84-49.256v-96.811l84.84-49.255V460.44l84.85-49.212 84.85 49.255v96.811l-84.85 49.255v96.768zm-169.75-388.943v96.854l-84.84 49.255-84.79-49.255v-96.854l-84.862-49.256v-96.811l84.862-49.255 84.84 49.255v96.811l84.79 49.256z" fill="url(#c)"/><path opacity=".21" d="M2095.49 338.002l89.18 51.745v101.707l-89.2 51.76-89.17-51.76V389.747l89.19-51.745zm89.18-460.386l89.19 51.745V31.082l-89.19 51.746-89.18-51.746v-101.72l89.18-51.746zM1560.33 31.082l89.21 51.746v101.707l-89.21 51.745-89.16-51.745V82.828l89.16-51.746zM-223.541-275.823l89.189 51.76v101.707l-89.189 51.746-89.188-51.746v-101.707l89.188-51.76zM311.59-377.529l89.202-51.746 89.189 51.746v101.706l-89.189 51.76-89.174-51.788-89.188 51.76-89.203-51.76v-101.707l89.203-51.745 89.16 51.774zM-45.164 31.111V-70.61l89.189-51.746 89.188 51.746V31.11L44.025 82.857v101.679l-89.189 51.745-89.203-51.745V82.828l89.203-51.717zM757.66 184.535V82.828l89.188-51.746 89.189 51.746v101.707l-89.26 51.745v101.722l-89.117 51.745-89.188-51.745V236.28l89.188-51.745zM490.009 31.082v-101.72l89.189-51.746L668.4-70.639V31.082l-89.202 51.746v101.707l-89.189 51.745-89.188-51.745-89.203 51.745v101.722l-89.188 51.745v101.707l-89.203 51.76v101.707l-89.188 51.745-89.189-51.745V543.214l89.189-51.76V389.747l89.188-51.745V236.28l89.203-51.745V82.828l89.188-51.746 89.203 51.746 89.188-51.746zM1827.92-224.09l-89.19-51.76-89.19 51.76-89.2-51.76v-101.707l89.2-51.745 89.19 51.745 89.19-51.745 89.2 51.745v101.707l89.19 51.76v101.707l-89.19 51.745-89.2-51.745v-101.707zM400.906 696.623l89.189-51.745 89.188 51.745 89.203-51.745 89.174 51.788v101.721l-89.188 51.746V951.84l-89.274 51.76-89.189-51.76V850.133l-89.188-51.746-89.203 51.746-89.188-51.746V696.666l89.188-51.745 89.288 51.702zM222.53 1412.18v-101.66l89.188-51.75v-101.72l89.203-51.74 89.188 51.74v101.72l-89.188 51.75v101.71l-89.303 51.74v101.72l-89.188 51.75-89.203-51.75v-101.72l89.303-51.79zm-446.071-255.13l-89.188-51.74V1003.6l89.188-51.76V850.133l89.189-51.746 89.202 51.746 89.189-51.746 89.188 51.746V951.84l-89.188 51.76v101.71l89.188 51.74v101.72l-89.188 51.75v101.71l-89.189 51.74-89.202-51.74v-101.71l-89.189-51.75v-101.72zM1381.94 644.921l89.23 51.745v101.721l-89.21 51.746-89.17-51.746-89.19 51.746V951.84l89.19 51.76v101.71l-89.19 51.74v101.72l-89.19 51.75v101.71l-89.18 51.74-89.193-51.74v-101.71l89.193-51.75v-101.72l89.18-51.74V1003.6l-89.18-51.76V850.133l89.18-51.746V696.666l-89.18-51.745V543.214l-89.193-51.76V389.747l89.193-51.745 89.18 51.745v101.707l89.21 51.76 89.17-51.76 89.19 51.76-.04 101.707zm356.75-306.905V236.28l89.23-51.745 89.2 51.745v101.722l-89.2 51.745v101.707l89.2 51.76v101.707l-89.2 51.745v101.721l-89.19 51.746-89.19-51.746V696.666l89.19-51.745V543.214l-89.19-51.76V389.747l89.15-51.731zm89.23 972.504v101.71l-89.19 51.74-89.19-51.74v-101.71l-89.2-51.75v-101.72l89.2-51.74 89.19 51.74 89.19-51.74 89.2 51.74 89.19-51.74V1003.6l-89.19-51.76V850.133l89.19-51.746V696.666l89.19-51.745 89.17 51.745 89.19-51.745 89.19 51.745 89.2-51.745 89.19 51.745v101.721l-89.19 51.746-89.2-51.746-89.19 51.746-89.19-51.746-89.2 51.746V951.84l89.2 51.76v101.71l-89.18 51.74v101.72l-89.19 51.75-89.19-51.75-89.19 51.75zM1203.56-377.558l89.23-51.745 89.19 51.745v101.707l-89.19 51.76-89.19-51.76-89.19 51.76v101.707l89.21 51.745 89.17-51.745 89.19 51.745V31.082l-89.19 51.746-89.19-51.746-89.19 51.746-89.18-51.746v-101.72l-89.193-51.746-89.203 51.745-89.174-51.745v-101.707l89.188-51.76v-101.707l89.189-51.745 89.193 51.745 89.18-51.745 89.15 51.745z" fill="url(#d)"/><path opacity=".11" d="M1563.63 917.916l66.29 38.521v75.613l-66.29 38.52-66.3-38.52v-75.613l66.3-38.521zm198.9-114.037l66.3 38.521v75.616l-66.3 38.521-66.31-38.521V842.4l66.31-38.521zM236.292 1144.68l66.296 38.52v75.61l-66.296 38.33-66.311-38.53V1183l66.311-38.32zm664.302-454.852l66.296 38.521v75.615l-66.296 38.522-66.31-38.522v-75.615l66.31-38.521zM38.716-108.459l66.296 38.45V5.607l-66.296 38.52-66.296-38.52V-70.01l66.296-38.45zM-27.58 233.666l66.296 38.521v75.616l-66.296 38.521-66.31-38.521v-75.616l66.31-38.521zm596.693-114.037l-66.296 38.521-66.296-38.521V44.014l66.296-38.522v-75.615l66.296-38.45 66.311 38.45V5.492l66.296 38.522v75.615l66.296 38.521v75.616l-66.296 38.521-66.296-38.621V158.05l-66.311-38.421zM237.619 158.15l-66.311-38.521V44.014l66.311-38.522 66.296 38.522v75.615l66.296 38.521v75.616l-66.296 38.521-66.296-38.621V158.15zm861.911 189.553l-66.32 38.521v75.616l66.32 38.521 66.29-38.521v-75.616l-66.29-38.521zm331.49-114.037l66.31 38.521 66.3-38.45 66.29 38.521 66.3-38.449 66.31 38.521v75.615l66.3 38.522 66.29-38.522V272.33l-66.29-38.664V158.05l66.29-38.449 66.31 38.521v75.615l66.3 38.521v75.616l-66.3 38.521v75.616l-66.31 38.521v75.616l-66.29 38.521-66.3-38.521v-75.616l-66.31-38.521-66.3 38.521-66.29-38.521v-75.616l-66.3-38.521-66.31 38.521v75.616l-66.3 38.521-66.29-38.521-66.31 38.521v75.616l66.31 38.521v75.615l66.29 38.521v75.616l-66.29 38.521v75.616l-66.31 38.521v75.611l-66.3 38.53-66.29-38.53v-75.611l-66.26-39.163V842.3l66.31-38.521 66.3 38.521 66.29-38.521v-75.616l-66.29-38.521v-75.615l-66.3-38.521-66.31 38.521-66.294-38.521V499.89l-66.296-38.521v-75.616l-66.311-38.521v-75.616l66.225-37.95 66.296 38.521 66.38-38.521 66.31 38.521 66.24-38.521V158.05l66.3-38.421V44.014l-66.3-38.522v-75.615l66.3-38.45 66.31 38.45V5.492l66.29 38.522 66.3-38.522 66.31 38.522v75.615l-66.31 38.521v75.516zm-66.3 38.521l-66.29-38.521-66.31 38.521v75.616l66.31 38.521 66.29-38.521v-75.616zM370.211 917.916l66.31 38.521v75.613l-66.31 38.52-66.296-38.52v-75.613l-66.296-38.521V842.3l-66.311-38.521-66.296 38.521-66.296-38.521v-75.616l-66.296-38.521v-75.615l-66.31-38.521V499.89l66.31-38.521 66.296 38.521 66.296-38.521v-75.616l66.296-38.521 66.311 38.521v75.616l-66.311 38.521v75.616l-66.296 38.521v75.615l66.296 38.521 66.311-38.521v-75.615l66.296-38.521V499.89l66.296-38.521 66.31 38.521 66.296-38.521v-75.616l66.296-38.521 66.311 38.521v75.616l66.296 38.521 66.296-38.521 66.296 38.521v75.616l-66.296 38.521v75.615l-66.296 38.521-66.296-38.521v-75.615l-66.311-38.521-66.296 38.521v75.615l-66.296 38.521-66.31-38.521-66.296 38.521v75.616l66.296 38.521v75.616zM1629.94 728.292v75.615l-66.3 38.522-66.3-38.522v-75.615l66.3-38.521v-75.616l66.3-38.521 66.29 38.521v75.616l-66.29 38.521zM1828.84 1146l-66.31 38.43v75.61l-66.31 38.52-66.3-38.52v-75.61l66.3-38.45v-75.62l66.31-38.52 66.3 38.52 66.29-38.52 66.31 38.52v75.62l-66.31 38.45-66.28-38.43zm-1060.81-75.61l-66.296-38.52v-75.619l-66.296-38.521v-75.615l66.296-38.522 66.296 38.522v75.615l66.296 38.521v75.619l66.311 38.52V1146l-66.325 38.43-66.296-38.45.014-75.59z" fill="url(#e)"/><path d="M1121.89 1114.19l66.37 38.57v75.71l-66.37 38.57-66.36-38.57v-75.71l66.36-38.57zM657.332 543.258l66.375 38.57v75.712l-66.375 38.498-66.361-38.498v-75.712l66.361-38.57zM524.638 86.518l66.333 38.471V200.7l-66.333 38.57-66.404-38.57v-75.711l66.404-38.47zM723.707 200.7l66.361 38.57v75.711l-66.361 38.413-66.375-38.498V239.27l66.375-38.57zM126.414 314.896l66.361 38.498v75.712l-66.361 38.47-66.376-38.499v-75.711l66.376-38.47zm398.195 0l66.362 38.498v75.712l-66.333 38.47-66.404-38.499v-75.711l66.375-38.47zM1785.57-27.663v-75.711l66.38-38.57 66.36 38.57v75.712l-66.36 38.57v75.71l-66.35 38.371V200.7l-66.36 38.57-66.45-38.57-66.36 38.57-66.35-38.57v-75.711l66.38-38.499 66.33 38.499 66.36-38.499V10.78l66.42-38.442zM922.791 771.635l66.375 38.57v75.712l-66.375 38.57-66.361-38.57v-75.712l-66.362-38.57v-75.711l66.362-38.498 66.361 38.498v75.711zM723.707 1038.51v75.71l-66.375 38.57-66.361-38.57v-75.71l66.361-38.569V924.23l66.375-38.57 66.361 38.57v75.711l-66.361 38.569z" fill="url(#f)"/></g></g><defs><linearGradient id="c" x1="1960.96" y1="1234.6" x2="579.725" y2="17.956" gradientUnits="userSpaceOnUse"><stop stop-color="#fff"/><stop offset="1" stop-color="#fff" stop-opacity="0"/></linearGradient><radialGradient id="d" cx="0" cy="0" r="1" gradientUnits="userSpaceOnUse" gradientTransform="matrix(1167.95868 28.64934 -22.54816 919.2295 1033.17 438.424)"><stop stop-opacity="0"/><stop offset="1"/></radialGradient><linearGradient id="e" x1="-62.961" y1="780.666" x2="2305.79" y2="308.082" gradientUnits="userSpaceOnUse"><stop stop-color="#fff" stop-opacity="0"/><stop offset=".29" stop-color="#fff" stop-opacity=".28"/><stop offset=".96" stop-color="#fff" stop-opacity=".96"/><stop offset="1" stop-color="#fff"/></linearGradient><linearGradient id="f" x1="-61894.7" y1="435630" x2="2356180" y2="435630" gradientUnits="userSpaceOnUse"><stop stop-color="#fff" stop-opacity=".06"/><stop offset="1" stop-color="#fff" stop-opacity=".93"/></linearGradient><clipPath id="a"><path fill="#fff" d="M0 0h1785v1128H0z"/></clipPath><clipPath id="b"><path fill="#fff" transform="translate(-118 -27)" d="M0 0h2053v1155H0z"/></clipPath></defs></svg>