<svg width="1785" height="1128" viewBox="0 0 1785 1128" fill="none" xmlns="http://www.w3.org/2000/svg"><g clip-path="url(#a)"><path fill="#EEE" d="M0 0h1785v1128H0z"/><g clip-path="url(#b)"><path opacity=".39" d="M860.197-161.236v-94.618L943.142-304l82.948 48.146v94.618l-82.948 48.147-82.945-48.147zm-580.64 713.892v-94.632l82.959-48.147 82.944 48.147v94.632l-82.944 48.146-82.959-48.146zM113.612 1123.75v-94.63l82.945-48.144 82.944 48.144v94.63l-82.944 48.15-82.945-48.15zm248.904-142.774v-94.645l82.944-48.147 82.945 48.147v94.631l-82.945 48.148-82.944-48.134zM-384 838.198V743.58l82.945-48.146 83 48.146v94.618l-83.014 48.133L-384 838.198zm497.682 0V743.58l82.944-48.146 82.945 48.146v94.618l-82.959 48.133-82.93-48.133zm580.612-428.321l-82.944 48.147-82.945-48.147v-94.632l82.945-48.146v-94.632l82.944-48.104 82.945 48.146v94.632l-82.945 48.146v94.59zM528.349 29.689v94.674l-82.945 48.146-82.888-48.146V29.689l-82.959-48.146v-94.632l82.959-48.147 82.944 48.147v94.632l82.889 48.146z" fill="url(#c)"/><path opacity=".12" d="M2052.89 356.785l87.19 50.581v99.417l-87.2 50.595-87.18-50.595v-99.417l87.19-50.581zm87.19-450.022l87.19 50.58v99.432l-87.19 50.581-87.19-50.58v-99.432l87.19-50.58zM1529.72 56.775l87.22 50.581v99.417l-87.22 50.581-87.16-50.581v-99.417l87.16-50.58zM-214.176-243.22l87.19 50.595v99.417l-87.19 50.58-87.19-50.58v-99.417l87.19-50.595zm523.14-99.417l87.204-50.581 87.19 50.581v99.417l-87.19 50.595-87.176-50.623-87.19 50.595-87.204-50.595v-99.417l87.204-50.581 87.162 50.609zM-39.796 56.803v-99.431l87.19-50.581 87.19 50.58v99.432l-87.19 50.581v99.389l-87.19 50.581L-127 206.773v-99.417l87.204-50.553zm784.836 149.97v-99.417l87.19-50.58 87.19 50.58v99.417l-87.26 50.581v99.431l-87.12 50.581-87.19-50.581v-99.431l87.19-50.581zM483.386 56.775v-99.431l87.19-50.58 87.204 50.58v99.431l-87.204 50.581v99.417l-87.19 50.581-87.19-50.581-87.204 50.581v99.431l-87.19 50.581v99.417l-87.204 50.595v99.417l-87.19 50.581-87.19-50.581v-99.417l87.19-50.595v-99.417l87.19-50.581v-99.431l87.204-50.581v-99.417l87.19-50.58 87.204 50.58 87.19-50.58zM1791.32-192.654l-87.19-50.595-87.19 50.595-87.2-50.595v-99.417l87.2-50.581 87.19 50.581 87.19-50.581 87.2 50.581v99.417l87.19 50.595v99.417l-87.19 50.58-87.2-50.58v-99.417zM396.28 707.334l87.19-50.58 87.19 50.58 87.204-50.58 87.176 50.622v99.432l-87.19 50.58v99.418l-87.274 50.594-87.19-50.594v-99.418l-87.19-50.58-87.204 50.58-87.19-50.58v-99.432l87.19-50.581 87.288 50.539zM221.9 1406.79v-99.38l87.19-50.58v-99.43l87.204-50.58 87.19 50.58v99.43l-87.19 50.58v99.42l-87.302 50.58v99.43l-87.19 50.58-87.204-50.58v-99.43l87.302-50.62zm-436.076-249.39l-87.19-50.58v-99.42l87.19-50.594v-99.418l87.19-50.58 87.204 50.58 87.19-50.58 87.19 50.58v99.418l-87.19 50.594v99.42l87.19 50.58v99.43l-87.19 50.58v99.42l-87.19 50.58-87.204-50.58v-99.42l-87.19-50.58v-99.43zM1355.33 656.795l87.23 50.581v99.432l-87.2 50.58-87.18-50.58-87.19 50.58v99.418l87.19 50.594v99.42l-87.19 50.58v99.43l-87.19 50.58v99.42l-87.19 50.58-87.19-50.58v-99.42l87.19-50.58v-99.43l87.19-50.58v-99.42l-87.19-50.594v-99.418l87.19-50.58v-99.432l-87.19-50.581v-99.417l-87.19-50.595v-99.417l87.19-50.581 87.19 50.581v99.417l87.2 50.595 87.18-50.595 87.19 50.595-.04 99.417zm348.76-299.996v-99.445l87.23-50.581 87.2 50.581v99.431l-87.2 50.581v99.417l87.2 50.595v99.417l-87.2 50.581v99.432l-87.19 50.58-87.19-50.58v-99.432l87.19-50.581v-99.417l-87.19-50.595v-99.417l87.15-50.567zm87.23 950.611v99.42l-87.19 50.58-87.19-50.58v-99.42l-87.2-50.58v-99.43l87.2-50.58 87.19 50.58 87.19-50.58 87.2 50.58 87.19-50.58v-99.42l-87.19-50.594v-99.418l87.19-50.58v-99.432l87.19-50.581 87.18 50.581 87.19-50.581 87.19 50.581 87.2-50.581 87.19 50.581v99.432l-87.19 50.58-87.2-50.58-87.19 50.58-87.19-50.58-87.2 50.58v99.418l87.2 50.594v99.42l-87.19 50.58v99.43l-87.19 50.58-87.19-50.58-87.19 50.58zM1180.95-342.666l87.23-50.581 87.19 50.581v99.417l-87.19 50.595-87.19-50.595-87.19 50.595v99.417l87.2 50.58 87.18-50.58 87.19 50.58v99.432l-87.19 50.581-87.19-50.58-87.19 50.58-87.19-50.58v-99.432l-87.19-50.58-87.204 50.58-87.176-50.58v-99.418l87.19-50.595v-99.417l87.19-50.581 87.19 50.581 87.19-50.581 87.15 50.581z" fill="url(#d)" fill-opacity=".3"/><path opacity=".63" d="M1532.95 923.645l64.81 37.654v73.911l-64.81 37.66-64.81-37.66v-73.911l64.81-37.654zm194.44-111.47l64.81 37.654v73.914l-64.81 37.654-64.82-37.654v-73.914l64.82-37.654zM235.354 1145.3l64.81 37.66v73.91l-64.81 37.46-64.825-37.66v-73.91l64.825-37.46zm649.417-444.609l64.811 37.654v73.914l-64.811 37.654-64.824-37.654v-73.914l64.824-37.654zM42.205-79.625l64.81 37.584v73.913l-64.81 37.654-64.811-37.653v-73.914l64.81-37.584zm-64.811 334.423l64.81 37.654v73.914l-64.81 37.654-64.825-37.654v-73.914l64.825-37.654zm583.324-111.47l-64.811 37.654-64.81-37.654V69.415l64.81-37.654v-73.913l64.811-37.585 64.825 37.584v73.914l64.81 37.654v73.913l64.811 37.654v73.914l-64.811 37.654-64.81-37.752v-73.913l-64.825-37.557zm-324.067 37.654l-64.825-37.654V69.415l64.825-37.654 64.81 37.654v73.913l64.811 37.654v73.914l-64.811 37.654-64.81-37.752v-73.816zm842.599 185.286l-64.83 37.654v73.913l64.83 37.654 64.81-37.654v-73.913l-64.81-37.654zm324.06-111.47l64.83 37.654 64.81-37.584 64.81 37.654 64.81-37.584 64.82 37.654v73.913l64.81 37.654 64.82-37.654v-73.913l-64.82-37.794v-73.913l64.82-37.585 64.82 37.654v73.914l64.81 37.654v73.913l-64.81 37.654v73.914l-64.82 37.654v73.913l-64.82 37.654-64.81-37.654v-73.913l-64.82-37.654-64.81 37.654-64.81-37.654v-73.914l-64.81-37.654-64.83 37.654v73.914l-64.81 37.654-64.81-37.654-64.82 37.654v73.913l64.82 37.654v73.914l64.81 37.654v73.913l-64.81 37.654v73.914l-64.82 37.654v73.913l-64.81 37.65-64.81-37.65v-73.913l-64.77-38.282v-73.914l64.82-37.654 64.81 37.654 64.81-37.654v-73.913l-64.81-37.654v-73.913l-64.81-37.654-64.82 37.654-64.814-37.654v-73.914l-64.811-37.654v-73.913l-64.825-37.654v-73.914l64.741-37.096 64.811 37.654 64.898-37.654 64.82 37.654 64.76-37.654v-73.913l64.81-37.557V69.415l-64.81-37.654v-73.913l64.81-37.585 64.82 37.584v73.914l64.81 37.654 64.81-37.654 64.83 37.654v73.913l-64.83 37.654v73.816zm-64.81 37.654l-64.81-37.654-64.82 37.654v73.914l64.82 37.654 64.81-37.654v-73.914zM366.272 923.645l64.825 37.654v73.911l-64.825 37.66-64.811-37.66v-73.911l-64.81-37.654v-73.914l-64.825-37.654-64.811 37.654-64.81-37.654v-73.913l-64.811-37.654v-73.913l-64.825-37.654v-73.914l64.825-37.654 64.81 37.654 64.811-37.654v-73.913l64.811-37.654 64.825 37.654v73.913l-64.825 37.654v73.914l-64.811 37.654v73.913l64.811 37.654 64.825-37.654v-73.913l64.81-37.654v-73.914l64.811-37.654 64.825 37.654 64.81-37.654v-73.913l64.811-37.654 64.825 37.654v73.913l64.81 37.654 64.811-37.654 64.811 37.654v73.914l-64.811 37.654v73.913l-64.811 37.654-64.81-37.654v-73.913l-64.825-37.654-64.811 37.654v73.913l-64.81 37.654-64.825-37.654-64.811 37.654v73.913l64.811 37.654v73.914zM1597.77 738.29v73.913l-64.81 37.654-64.81-37.654V738.29l64.81-37.654v-73.914l64.81-37.654 64.81 37.654v73.914l-64.81 37.654zm194.45 408.31l-64.83 37.55v73.92l-64.82 37.65-64.81-37.65v-73.92l64.81-37.58v-73.91l64.82-37.66 64.81 37.66 64.82-37.66 64.82 37.66v73.91l-64.82 37.58-64.8-37.55zm-1037.042-73.92l-64.811-37.65v-73.912l-64.81-37.654V849.55l64.81-37.654 64.811 37.654v73.914l64.811 37.654v73.912l64.824 37.65v73.92l-64.838 37.55-64.811-37.58.014-73.89z" fill="url(#e)"/><path opacity=".5" d="M1101.11 1115.5l64.89 37.71v74l-64.89 37.7-64.88-37.7v-74l64.88-37.71zM646.959 557.421l64.889 37.702v74.007l-64.889 37.632-64.874-37.632v-74.007l64.874-37.702zm-129.72-446.458l64.846 37.604v74.007l-64.846 37.702-64.916-37.702v-74.007l64.916-37.604zm194.609 111.611l64.874 37.702v74.007l-64.874 37.548-64.889-37.632v-73.923l64.889-37.702zM127.937 334.199l64.874 37.632v74.007l-64.874 37.604-64.888-37.632v-74.007l64.888-37.604zm389.274 0l64.874 37.632v74.007l-64.846 37.604-64.916-37.632v-74.007l64.888-37.604zM1749.92-.648v-74.007l64.89-37.701 64.87 37.701V-.648l-64.87 37.702v74.007l-64.86 37.506v74.007l-64.88 37.702-64.95-37.702-64.88 37.702-64.86-37.702v-74.007l64.89-37.632 64.85 37.632 64.87-37.632V36.928l64.93-37.576zM906.471 780.658l64.888 37.701v74.007l-64.888 37.702-64.875-37.702v-74.007l-64.874-37.701V706.65l64.874-37.631 64.875 37.631v74.008zM711.848 1041.53v74l-64.889 37.7-64.874-37.7v-74l64.874-37.71v-74.003l64.889-37.702 64.874 37.702v74.003l-64.874 37.71z" fill="url(#f)"/></g></g><defs><linearGradient id="c" x1="1222.33" y1="929.201" x2="-127.839" y2="-260.199" gradientUnits="userSpaceOnUse"><stop offset=".365" stop-color="#fff"/><stop offset="1" stop-color="#fff" stop-opacity="0"/></linearGradient><radialGradient id="d" cx="0" cy="0" r="1" gradientUnits="userSpaceOnUse" gradientTransform="matrix(1141.78662 28.00436 -22.03822 898.53678 1014.38 454.947)"><stop stop-opacity="0"/><stop offset="1"/></radialGradient><linearGradient id="e" x1="-57.194" y1="789.485" x2="2258.46" y2="327.444" gradientUnits="userSpaceOnUse"><stop stop-color="#fff" stop-opacity="0"/><stop offset=".29" stop-color="#fff" stop-opacity=".28"/><stop offset=".96" stop-color="#fff" stop-opacity=".96"/><stop offset="1" stop-color="#fff"/></linearGradient><linearGradient id="f" x1="-60503.5" y1="425850" x2="2303390" y2="425850" gradientUnits="userSpaceOnUse"><stop stop-color="#fff" stop-opacity=".93"/><stop offset="1" stop-color="#fff" stop-opacity=".06"/></linearGradient><clipPath id="a"><path fill="#fff" d="M0 0h1785v1128H0z"/></clipPath><clipPath id="b"><path fill="#fff" transform="translate(-111)" d="M0 0h2007v1129H0z"/></clipPath></defs></svg>