<svg width="1074" height="529" viewBox="0 0 1074 529" xmlns="http://www.w3.org/2000/svg"><title>hexagon-bg-simple</title><g stroke="#C2FFFE" fill="none" fill-rule="evenodd" opacity=".098"><path d="M326.967 333.379l50.012 28.874v57.75l-50.012 28.874-50.012-28.875v-57.749zM155.3 140.414l101.253 58.458v116.916L155.3 374.246 54.048 315.788V198.872zM522.692 317.413l100.86 58.232V492.11l-100.86 58.232L421.83 492.11V375.645z"/><path d="M558.447 36.1l146.421 84.537v169.072l-146.42 84.537-146.422-84.537V120.637zM885.147 225.704l230.507 133.083v266.168L885.147 758.039 654.639 624.955V358.787z"/><g><path d="M898.628 284.266l18.693 11 18.852-11.002v-13.433l-18.856-11.406-18.689 10.984v13.857z"/><path d="M899.097 270.434l18.224 10.953 18.378-10.953-18.378-11.008-18.224 11.008zM921.755 299.684l18.693 11 18.853-11.002V286.25l-18.857-11.406-18.689 10.984v13.857z"/><path d="M922.224 285.852l18.224 10.953 18.378-10.953-18.378-11.008-18.224 11.008zM873.96 299.684l18.693 11 18.852-11.002V286.25l-18.857-11.406-18.688 10.984v13.857z"/><path d="M874.428 285.852l18.225 10.953 18.377-10.953-18.377-11.008-18.225 11.008zM849.29 315.102l18.694 11 18.852-11.002v-13.433l-18.857-11.406-18.688 10.984v13.857z"/><path d="M849.76 301.27l18.224 10.953 18.377-10.953-18.377-11.008-18.224 11.008zM824.622 330.52l18.693 11 18.852-11.002v-13.433L843.31 305.68l-18.688 10.984v13.857z"/><path d="M825.09 316.688l18.225 10.953 18.377-10.953-18.377-11.008-18.224 11.008zM823.08 513.993l66.488 38.755 66.649-38.756v-13.428l-66.65-39.166-66.487 38.74v13.855z"/><path d="M823.568 500.163l66 38.708 66.16-38.708-66.16-38.765-66 38.765zM827.706 387.565l66.488 38.755 66.648-38.755V343.3l-66.65-39.166-66.486 38.74v44.69z"/><path d="M828.193 342.9l66 38.707 66.16-38.707-66.16-38.765-66 38.765zM836.956 432.278l18.693 11.001 18.852-11.002v-13.433l-18.856-11.406-18.689 10.983v13.857z"/><path d="M837.425 418.447L855.65 429.4l18.378-10.953-18.378-11.008-18.224 11.008zM860.083 447.696l18.693 11.001 18.852-11.002v-13.433l-18.856-11.406-18.689 10.983v13.857z"/><path d="M860.552 433.865l18.224 10.953 18.378-10.953-18.378-11.008-18.224 11.008zM830.79 456.947l18.692 11.001 18.852-11.002v-13.433l-18.857-11.406-18.688 10.983v13.857z"/><path d="M831.258 443.116l18.224 10.953 18.377-10.953-18.377-11.008-18.224 11.008zM678.15 402.983l66.489 38.755 66.649-38.755v-28.847l-66.65-39.166-66.487 38.74v29.273z"/><path d="M678.639 373.736l66 38.707 66.159-38.707-66.16-38.765-66 38.765zM744.448 456.949l41.823 24.875 40.435-23.338v-28.84l-41.986-23.76-40.272 21.798v29.265z"/><path d="M744.977 427.705l41.294 23.291 39.903-21.762-41.452-23.348-39.745 21.819zM903.254 432.28l41.822 24.876 40.435-23.339v-28.84l-41.985-23.76-40.272 21.798v29.265z"/><path d="M903.782 403.036l41.295 23.291 39.903-21.762-41.452-23.348-39.746 21.819zM961.842 487.785l41.823 24.875 40.435-23.338v-28.84l-41.986-23.76-40.272 21.798v29.265z"/><path d="M962.37 458.54l41.295 23.292 39.903-21.762-41.452-23.348-39.745 21.819zM724.405 526.327l66.489 38.756 40.437-23.34v-28.845l-66.65-39.166-40.276 23.323v29.272z"/><path d="M724.893 497.08l66 38.708 39.947-23.291-66.158-38.764-39.789 23.347zM601.06 449.237l66.489 38.756 66.649-38.756V420.39l-66.65-39.166-66.487 38.74v29.273z"/><path d="M601.549 419.99l66 38.707 66.159-38.707-66.16-38.765-66 38.765z"/></g></g></svg>