<svg width="1159" height="369" viewBox="0 0 1159 369" xmlns="http://www.w3.org/2000/svg" style=""><title>home-header-art-hexagons</title><g fill="none" fill-rule="evenodd"><g opacity=".2" stroke="#000" stroke-linejoin="round" stroke-width="8"><path d="M-349.128 291.819h265.696l161.82-93.258h1141.581M876.32 20.754l9.982 5.763v11.525l-9.981 5.763-9.981-5.763V26.517z" class="RFTNakBD_0"></path><path d="M-221.652 310.407H44.044l161.82-93.258h688.805l108.384 70.931" class="RFTNakBD_1"></path><path d="M1011.111 283.252l9.982 5.763v11.525l-9.982 5.763-9.98-5.763v-11.525zM-161.924 177.47h994.046L1061.59 42.804h96.971" class="RFTNakBD_2"></path><path d="M-111.44 104.178h265.696l78.225 53.27H548.39l476.362 298.783" class="RFTNakBD_3"></path><path d="M454.73 159.1L673 32.675h191.746M610.242 67.33l108.384 70.932M726.685 133.434l9.98 5.762v11.526l-9.98 5.762-9.981-5.762v-11.526z" class="RFTNakBD_4"></path></g><g opacity=".178" stroke="#9FFFFD"><path d="M291.597 103.987l63.094 36.427v72.854l-63.094 36.427-63.093-36.427v-72.854zM75.029-139.45l127.736 73.748V81.795L75.029 155.543-52.707 81.795V-65.702zM538.516 83.845l127.243 73.464v146.927L538.516 377.7l-127.243-73.464V157.31z" class="RFTNakBD_5"></path><path d="M583.625-271.048l184.72 106.647V48.895l-184.72 106.648-184.72-106.648V-164.4zM995.777-31.852l290.8 167.894v335.787l-290.8 167.894-290.8-167.894V136.042z" class="RFTNakBD_6"></path></g><g opacity=".178" stroke="#93FFF5"><path d="M1011.918 42.76l23.713 13.954 23.914-13.956V25.662l-23.919-14.468-23.708 13.934v17.631z" class="RFTNakBD_7"></path><path d="M1012.387 25.235l23.244 13.97 23.44-13.97-23.44-14.04-23.244 14.04zM1041.095 62.21l23.712 13.955 23.915-13.956V45.113l-23.92-14.468-23.707 13.934v17.63z" class="RFTNakBD_8"></path><path d="M1041.563 44.686l23.244 13.97 23.44-13.97-23.44-14.04-23.244 14.04zM980.797 62.21l23.713 13.955 23.914-13.956V45.113l-23.919-14.468-23.708 13.934v17.63z" class="RFTNakBD_9"></path><path d="M981.266 44.686l23.244 13.97 23.44-13.97-23.44-14.04-23.244 14.04zM949.676 81.66l23.712 13.956 23.915-13.957V64.564l-23.92-14.469-23.707 13.935v17.63z" class="RFTNakBD_10"></path><path d="M950.145 64.137l23.243 13.97 23.44-13.97-23.44-14.04-23.243 14.04zM918.554 101.112l23.713 13.955 23.914-13.957V84.015l-23.919-14.469-23.708 13.934v17.632z" class="RFTNakBD_11"></path><path d="M919.023 83.588l23.244 13.97 23.44-13.97-23.44-14.04-23.244 14.04zM916.61 332.575l84.009 48.969 84.212-48.97v-17.09l-84.214-49.487-84.008 48.95v17.628z" class="RFTNakBD_12"></path><path d="M917.097 315.053l83.522 48.984 83.723-48.984-83.723-49.056-83.522 49.056zM922.445 173.078l84.01 48.969 84.212-48.97v-55.992l-84.214-49.487-84.008 48.95v56.53z" class="RFTNakBD_13"></path><path d="M922.932 116.655l83.522 48.984 83.723-48.984-83.723-49.056-83.522 49.056zM934.115 229.487l23.713 13.955 23.914-13.956V212.39l-23.919-14.468-23.708 13.934v17.63z" class="RFTNakBD_14"></path><path d="M934.584 211.963l23.244 13.97 23.44-13.97-23.44-14.04-23.244 14.04zM963.291 248.938l23.713 13.955 23.914-13.957v-17.095L987 217.372l-23.708 13.935v17.63z" class="RFTNakBD_15"></path><path d="M963.76 231.414l23.244 13.97 23.44-13.97-23.44-14.04-23.244 14.04zM926.335 260.608l23.713 13.955 23.914-13.956V243.51l-23.92-14.468-23.707 13.934v17.631z" class="RFTNakBD_16"></path><path d="M926.804 243.084l23.244 13.97 23.439-13.97-23.44-14.04-23.243 14.04zM733.772 192.529l84.01 48.969 84.212-48.97v-36.541L817.78 106.5l-84.008 48.95v37.079z" class="RFTNakBD_17"></path><path d="M734.26 155.556l83.521 48.984 83.723-48.984-83.723-49.056-83.521 49.056zM817.41 260.61l52.892 31.459 51.143-29.519v-36.535l-53.097-30.05-50.938 27.573v37.072z" class="RFTNakBD_18"></path><path d="M817.938 223.64l52.364 29.535 50.611-27.602-52.563-29.606-50.412 27.674zM1017.754 229.488l52.891 31.46 51.143-29.519v-36.535l-53.097-30.05-50.937 27.573v37.071z" class="RFTNakBD_19"></path><path d="M1018.282 192.52l52.364 29.534 50.61-27.603-52.563-29.606-50.411 27.674zM1091.667 299.511l52.891 31.46 51.143-29.519v-36.535l-53.097-30.05-50.937 27.573v37.071z" class="RFTNakBD_20"></path><path d="M1092.195 262.542l52.364 29.535 50.61-27.603-52.563-29.606-50.411 27.674zM792.124 348.135l84.01 48.97 51.146-29.52v-36.54l-84.215-49.488-50.94 29.5v37.078z" class="RFTNakBD_21"></path><path d="M792.612 311.163l83.522 48.984 50.655-29.534-83.722-49.055-50.455 29.605zM636.518 250.881l84.01 48.97 84.212-48.97v-36.542l-84.214-49.487-84.008 48.95v37.08z" class="RFTNakBD_22"></path><path d="M637.005 213.909l83.522 48.984 83.723-48.984-83.723-49.056-83.522 49.056z" class="RFTNakBD_23"></path></g></g><style data-made-with="vivus-instant">.RFTNakBD_0{stroke-dasharray:1664 1666;stroke-dashoffset:1665;animation:RFTNakBD_draw 3000ms ease-in-out 0ms forwards;}.RFTNakBD_1{stroke-dasharray:1271 1273;stroke-dashoffset:1272;animation:RFTNakBD_draw 3000ms ease-in-out 65ms forwards;}.RFTNakBD_2{stroke-dasharray:1427 1429;stroke-dashoffset:1428;animation:RFTNakBD_draw 3000ms ease-in-out 130ms forwards;}.RFTNakBD_3{stroke-dasharray:1239 1241;stroke-dashoffset:1240;animation:RFTNakBD_draw 3000ms ease-in-out 195ms forwards;}.RFTNakBD_4{stroke-dasharray:643 645;stroke-dashoffset:644;animation:RFTNakBD_draw 3000ms ease-in-out 260ms forwards;}.RFTNakBD_5{stroke-dasharray:2204 2206;stroke-dashoffset:2205;animation:RFTNakBD_draw 3000ms ease-in-out 326ms forwards;}.RFTNakBD_6{stroke-dasharray:3295 3297;stroke-dashoffset:3296;animation:RFTNakBD_draw 3000ms ease-in-out 391ms forwards;}.RFTNakBD_7{stroke-dasharray:146 148;stroke-dashoffset:147;animation:RFTNakBD_draw 3000ms ease-in-out 456ms forwards;}.RFTNakBD_8{stroke-dasharray:255 257;stroke-dashoffset:256;animation:RFTNakBD_draw 3000ms ease-in-out 521ms forwards;}.RFTNakBD_9{stroke-dasharray:255 257;stroke-dashoffset:256;animation:RFTNakBD_draw 3000ms ease-in-out 586ms forwards;}.RFTNakBD_10{stroke-dasharray:255 257;stroke-dashoffset:256;animation:RFTNakBD_draw 3000ms ease-in-out 652ms forwards;}.RFTNakBD_11{stroke-dasharray:255 257;stroke-dashoffset:256;animation:RFTNakBD_draw 3000ms ease-in-out 717ms forwards;}.RFTNakBD_12{stroke-dasharray:534 536;stroke-dashoffset:535;animation:RFTNakBD_draw 3000ms ease-in-out 782ms forwards;}.RFTNakBD_13{stroke-dasharray:890 892;stroke-dashoffset:891;animation:RFTNakBD_draw 3000ms ease-in-out 847ms forwards;}.RFTNakBD_14{stroke-dasharray:534 536;stroke-dashoffset:535;animation:RFTNakBD_draw 3000ms ease-in-out 913ms forwards;}.RFTNakBD_15{stroke-dasharray:255 257;stroke-dashoffset:256;animation:RFTNakBD_draw 3000ms ease-in-out 978ms forwards;}.RFTNakBD_16{stroke-dasharray:255 257;stroke-dashoffset:256;animation:RFTNakBD_draw 3000ms ease-in-out 1043ms forwards;}.RFTNakBD_17{stroke-dasharray:573 575;stroke-dashoffset:574;animation:RFTNakBD_draw 3000ms ease-in-out 1108ms forwards;}.RFTNakBD_18{stroke-dasharray:701 703;stroke-dashoffset:702;animation:RFTNakBD_draw 3000ms ease-in-out 1173ms forwards;}.RFTNakBD_19{stroke-dasharray:549 551;stroke-dashoffset:550;animation:RFTNakBD_draw 3000ms ease-in-out 1239ms forwards;}.RFTNakBD_20{stroke-dasharray:549 551;stroke-dashoffset:550;animation:RFTNakBD_draw 3000ms ease-in-out 1304ms forwards;}.RFTNakBD_21{stroke-dasharray:623 625;stroke-dashoffset:624;animation:RFTNakBD_draw 3000ms ease-in-out 1369ms forwards;}.RFTNakBD_22{stroke-dasharray:775 777;stroke-dashoffset:776;animation:RFTNakBD_draw 3000ms ease-in-out 1434ms forwards;}.RFTNakBD_23{stroke-dasharray:388 390;stroke-dashoffset:389;animation:RFTNakBD_draw 3000ms ease-in-out 1500ms forwards;}@keyframes RFTNakBD_draw{100%{stroke-dashoffset:0;}}@keyframes RFTNakBD_fade{0%{stroke-opacity:1;}95.40229885057471%{stroke-opacity:1;}100%{stroke-opacity:0;}}</style></svg>