<svg xmlns="http://www.w3.org/2000/svg" width="249" height="45" viewBox="0 0 249 45"><g fill="none" fill-rule="evenodd"><path fill="#000" d="M88.616 19.28c-.755 0-1.404-.142-1.948-.426a2.866 2.866 0 0 1-1.242-1.238c-.284-.541-.426-1.19-.426-1.947 0-.737.15-1.383.45-1.937a3.14 3.14 0 0 1 1.268-1.282c.544-.3 1.18-.45 1.908-.45.614 0 1.16.103 1.638.308a2.85 2.85 0 0 1 1.157.88c.293.382.474.83.54 1.346l-2.123.401c-.04-.424-.169-.748-.386-.973-.217-.225-.506-.338-.866-.338-.454 0-.81.181-1.067.543-.257.362-.385.86-.385 1.492 0 .62.135 1.106.405 1.458.27.353.643.529 1.117.529.334 0 .606-.11.816-.328.21-.219.343-.537.396-.954l2.144.47c-.187.782-.576 1.386-1.167 1.81-.591.424-1.334.636-2.229.636zm8.614 0c-.734 0-1.377-.149-1.928-.445a3.077 3.077 0 0 1-1.272-1.267c-.297-.548-.446-1.191-.446-1.928 0-.737.149-1.38.446-1.928.297-.548.721-.97 1.272-1.267.55-.297 1.194-.445 1.928-.445.735 0 1.377.148 1.928.445.551.297.975.72 1.272 1.267.298.548.446 1.19.446 1.928 0 .737-.148 1.38-.446 1.928-.297.547-.72.97-1.272 1.267-.55.296-1.193.445-1.928.445zm0-1.575c.474 0 .843-.182 1.107-.544.264-.362.396-.869.396-1.521 0-.652-.132-1.16-.396-1.522-.264-.362-.633-.543-1.107-.543s-.843.181-1.107.543c-.263.362-.395.87-.395 1.522s.132 1.16.395 1.521c.264.362.633.544 1.107.544zm5.62-5.539h2.263l1.883 3.357c.207.384.35.684.43.9h.02v-4.257h1.934v6.948h-2.163l-2.004-3.415-.1-.196a7.579 7.579 0 0 1-.31-.636h-.02v4.247h-1.934v-6.948zm14.393 1.605h-1.973v5.343h-2.094V13.77h-1.973v-1.605h6.04v1.605zm1.823 5.343v-6.948h2.094v6.948h-2.094zm4.467-6.948h2.264l1.883 3.357c.207.384.35.684.43.9h.021v-4.257h1.933v6.948h-2.163l-2.004-3.415-.1-.196a7.579 7.579 0 0 1-.31-.636h-.02v4.247h-1.934v-6.948zm10.898 0v4.443c0 .32.097.574.29.763.194.189.455.284.782.284.334 0 .596-.095.786-.284.19-.19.286-.444.286-.763v-4.443h2.093v4.52c0 .53-.127.99-.38 1.38-.254.392-.62.692-1.097.9-.478.21-1.04.314-1.688.314-.648 0-1.21-.105-1.688-.313-.477-.209-.843-.51-1.096-.9-.254-.392-.381-.852-.381-1.38v-4.52h2.093zm9.806 7.114c-.734 0-1.377-.149-1.928-.445a3.077 3.077 0 0 1-1.272-1.267c-.297-.548-.446-1.191-.446-1.928 0-.737.15-1.38.446-1.928.297-.548.721-.97 1.272-1.267.551-.297 1.194-.445 1.928-.445.735 0 1.378.148 1.929.445.55.297.975.72 1.272 1.267.297.548.445 1.19.445 1.928 0 .737-.148 1.38-.445 1.928-.297.547-.721.97-1.272 1.267-.551.296-1.194.445-1.929.445zm0-1.575c.475 0 .844-.182 1.107-.544.264-.362.396-.869.396-1.521 0-.652-.132-1.16-.396-1.522-.263-.362-.632-.543-1.107-.543-.474 0-.843.181-1.106.543-.264.362-.396.87-.396 1.522s.132 1.16.396 1.521c.263.362.632.544 1.106.544zm7.613-5.539v4.443c0 .32.097.574.29.763.194.189.455.284.782.284.334 0 .596-.095.786-.284.19-.19.286-.444.286-.763v-4.443h2.093v4.52c0 .53-.127.99-.38 1.38-.254.392-.62.692-1.097.9-.478.21-1.04.314-1.688.314-.648 0-1.21-.105-1.688-.313-.477-.209-.843-.51-1.097-.9-.254-.392-.38-.852-.38-1.38v-4.52h2.093zm8.885 7.114c-.695 0-1.328-.111-1.898-.333-.571-.222-1.027-.535-1.368-.94l1.413-1.261c.247.32.534.56.861.724.327.163.684.244 1.072.244.314 0 .562-.05.746-.151.184-.101.275-.243.275-.426 0-.176-.06-.308-.18-.396-.12-.088-.347-.168-.681-.24l-.901-.196c-1.376-.293-2.064-1.02-2.064-2.182 0-.659.262-1.177.786-1.555.525-.379 1.24-.568 2.149-.568.601 0 1.154.09 1.658.27.504.178.933.438 1.287.777l-1.192 1.301a2.745 2.745 0 0 0-.887-.621 2.505 2.505 0 0 0-1.026-.23c-.274 0-.491.044-.651.132-.16.088-.24.207-.24.357 0 .163.068.29.205.382.136.091.389.176.756.254l1.022.225c.674.144 1.166.385 1.477.724.31.34.466.8.466 1.38 0 .476-.124.89-.37 1.243-.248.352-.604.621-1.068.807-.464.186-1.013.279-1.647.279zM88.616 32c-.755 0-1.404-.142-1.948-.426a2.866 2.866 0 0 1-1.242-1.237c-.284-.542-.426-1.19-.426-1.948 0-.737.15-1.382.45-1.937a3.14 3.14 0 0 1 1.268-1.282c.544-.3 1.18-.45 1.908-.45.614 0 1.16.103 1.638.308a2.85 2.85 0 0 1 1.157.881c.293.382.474.83.54 1.345l-2.123.402c-.04-.424-.169-.749-.386-.974-.217-.225-.506-.338-.866-.338-.454 0-.81.181-1.067.543-.257.363-.385.86-.385 1.493 0 .62.135 1.105.405 1.458.27.352.643.528 1.117.528.334 0 .606-.11.816-.328.21-.218.343-.536.396-.954l2.144.47c-.187.783-.576 1.386-1.167 1.81-.591.424-1.334.636-2.229.636zm8.614 0c-.734 0-1.377-.148-1.928-.445a3.077 3.077 0 0 1-1.272-1.267c-.297-.548-.446-1.19-.446-1.928 0-.737.149-1.38.446-1.928.297-.547.721-.97 1.272-1.267.55-.296 1.194-.445 1.928-.445.735 0 1.377.149 1.928.445.551.297.975.72 1.272 1.267.298.548.446 1.191.446 1.928 0 .737-.148 1.38-.446 1.928-.297.548-.72.97-1.272 1.267-.55.297-1.193.445-1.928.445zm0-1.575c.474 0 .843-.181 1.107-.543.264-.362.396-.87.396-1.522s-.132-1.16-.396-1.521c-.264-.362-.633-.544-1.107-.544s-.843.182-1.107.544c-.263.362-.395.869-.395 1.521 0 .652.132 1.16.395 1.522.264.362.633.543 1.107.543zm5.62-5.539h2.864l.982 3.65c.087.326.143.643.17.95h.02c.02-.275.08-.598.18-.97l.912-3.63h2.905v6.948h-1.914V27.45c0-.26.01-.532.03-.812h-.02c-.02.19-.056.395-.11.616l-1.192 4.58h-1.702l-1.273-4.58c-.06-.202-.1-.4-.12-.596h-.02c.027.326.04.59.04.792v4.384h-1.753v-6.948zm13.902 0c.528 0 .99.093 1.388.28.397.185.704.448.921.787.217.34.326.734.326 1.184 0 .73-.24 1.305-.717 1.722-.477.418-1.133.626-1.968.626h-1.352v2.349h-2.094v-6.948h3.496zm-.58 3.23c.333 0 .587-.077.76-.23.174-.154.261-.377.261-.67 0-.3-.087-.527-.26-.68-.174-.154-.428-.23-.762-.23h-.821v1.81h.821zm5.088-3.23h2.093v5.304h2.675v1.644h-4.768v-6.948zm6.79 6.948v-6.948h2.094v6.948h-2.093zm8.956-1.42h-2.444l-.451 1.42h-2.094l2.525-6.948h2.484l2.524 6.948h-2.094l-.45-1.42zm-.431-1.369l-.47-1.507a19.7 19.7 0 0 1-.196-.646 4.754 4.754 0 0 1-.115-.587h-.02c-.034.235-.072.43-.116.587a19.7 19.7 0 0 1-.195.646l-.47 1.507h1.582zm4.848-4.159h2.264l1.883 3.357c.207.385.35.685.43.9h.02v-4.257h1.934v6.948h-2.164l-2.003-3.415-.1-.196a7.579 7.579 0 0 1-.31-.636h-.021v4.247h-1.933v-6.948zM153.543 32c-.755 0-1.404-.142-1.948-.426a2.866 2.866 0 0 1-1.242-1.237c-.284-.542-.426-1.19-.426-1.948 0-.737.15-1.382.45-1.937a3.14 3.14 0 0 1 1.268-1.282c.544-.3 1.18-.45 1.908-.45.614 0 1.16.103 1.638.308a2.85 2.85 0 0 1 1.156.881c.294.382.475.83.541 1.345l-2.123.402c-.04-.424-.169-.749-.386-.974-.217-.225-.506-.338-.866-.338-.454 0-.81.181-1.067.543-.257.363-.386.86-.386 1.493 0 .62.136 1.105.406 1.458.27.352.643.528 1.117.528.334 0 .606-.11.816-.328.21-.218.342-.536.396-.954l2.143.47c-.187.783-.576 1.386-1.167 1.81-.59.424-1.333.636-2.228.636zM164 30.366v1.468h-5.189v-6.948h5.119v1.468h-3.025v1.214h2.855v1.438h-2.855v1.36H164z"/><path fill="#000" fill-rule="nonzero" d="M38.5 10.674l3.477 15.087a3.171 3.171 0 0 1-.549 2.214l-9.651 12.042c-.503.692-1.281 1.061-2.104.969h-15.37c-.777-.046-1.555-.415-2.104-.969L2.548 27.975a2.93 2.93 0 0 1-.503-2.214l3.43-15.18a2.475 2.475 0 0 1 1.372-1.707L20.8 2.092C21.165 2 21.576 2 21.942 2s.778.046 1.144.23l13.951 6.737c.686.369 1.235.969 1.464 1.707zM36.35 25.16c-.045 0-.09 0-.09-.046s-.092-.046-.184-.046c-.183-.046-.365-.046-.548-.046-.092 0-.183 0-.275-.047h-.046a9.172 9.172 0 0 1-1.555-.276.555.555 0 0 1-.32-.323c.046 0 0 0 0 0l-.366-.093c.183-1.338.091-2.722-.183-4.06-.32-1.338-.87-2.63-1.6-3.783l.274-.277v-.046c0-.138.045-.323.137-.415.411-.37.823-.646 1.28-.923l.275-.138c.183-.093.32-.185.503-.277.046-.046.092-.046.137-.092.046-.047 0-.047 0-.093.412-.323.504-.876.183-1.292a.871.871 0 0 0-.64-.323c-.229 0-.457.093-.64.231l-.046.046c-.046.046-.092.093-.137.093-.138.138-.275.276-.366.415-.046.092-.138.138-.183.184-.32.37-.732.739-1.144 1.015-.091.046-.183.093-.274.093-.046 0-.138 0-.183-.047h-.046l-.366.231c-.366-.369-.778-.738-1.143-1.107-1.693-1.338-3.797-2.169-5.947-2.4l-.046-.368v.046c-.137-.093-.183-.23-.228-.37 0-.507 0-1.014.091-1.568v-.046c0-.092.046-.185.046-.277.046-.185.046-.37.091-.554v-.276c.046-.462-.32-.923-.777-.97-.275-.045-.55.093-.778.324a.915.915 0 0 0-.274.646v.23c0 .185.045.37.091.554a.59.59 0 0 1 .046.277v.046c.091.507.091 1.015.091 1.569-.045.138-.091.276-.228.369v.092l-.046.369c-.503.046-1.006.138-1.555.23-2.15.462-4.117 1.616-5.627 3.23l-.274-.184h-.046c-.045 0-.091.046-.183.046-.091 0-.183-.046-.274-.092a8.462 8.462 0 0 1-1.144-1.062c-.045-.092-.137-.138-.183-.184-.137-.138-.228-.277-.366-.415-.045-.046-.091-.046-.137-.093l-.046-.046a1.087 1.087 0 0 0-.64-.23c-.274 0-.503.092-.64.323a.998.998 0 0 0 .183 1.291c.045 0 .045.047.045.047s.092.092.138.092c.137.092.32.184.503.277l.274.138c.458.277.915.554 1.281.923.091.092.183.277.137.415v-.046l.275.277c-.046.092-.092.138-.138.23-1.418 2.261-2.012 4.937-1.6 7.567l-.366.092c0 .046-.046.046-.046.046-.046.139-.183.231-.32.323a8.43 8.43 0 0 1-1.556.277c-.091 0-.183 0-.274.046-.183 0-.366.046-.549.046-.046 0-.091.047-.183.047-.046 0-.046 0-.091.046a.9.9 0 0 0-.732 1.06.85.85 0 0 0 .915.647c.091 0 .137 0 .228-.046.046 0 .046 0 .046-.047 0-.046.137 0 .183 0 .183-.046.366-.138.503-.184.092-.046.183-.092.275-.092h.045c.503-.185.96-.323 1.51-.416h.046c.137 0 .274.047.365.139.046 0 .046.046.046.046l.412-.046c.686 2.122 1.967 4.014 3.75 5.398.412.323.778.6 1.236.83l-.229.323c0 .046.046.046.046.046a.55.55 0 0 1 .046.462c-.183.461-.458.923-.732 1.338v.046a.809.809 0 0 1-.183.23c-.092.093-.183.277-.32.462-.046.046-.046.092-.092.138 0 0 0 .047-.046.047-.228.46-.045 1.015.366 1.245a.843.843 0 0 0 .32.093c.366 0 .687-.231.87-.554 0 0 0-.046.045-.046 0-.046.046-.093.092-.139.045-.184.137-.323.183-.507l.091-.277c.137-.508.366-.969.595-1.43a.712.712 0 0 1 .366-.277c.045 0 .045 0 .045-.046l.183-.37c1.281.508 2.608.739 3.98.739.823 0 1.647-.092 2.47-.323.503-.092 1.006-.277 1.464-.415l.183.323c.045 0 .045 0 .045.046a.712.712 0 0 1 .366.277c.23.461.458.922.595 1.43v.046l.092.277c.045.184.091.369.183.507.045.046.045.093.091.139 0 0 0 .046.046.046.183.323.503.554.869.554.137 0 .229-.047.366-.093.183-.092.366-.277.411-.507.046-.23.046-.462-.045-.692 0-.046-.046-.046-.046-.046 0-.047-.046-.093-.092-.139a1.657 1.657 0 0 0-.32-.461.809.809 0 0 0-.183-.23v-.093a5.465 5.465 0 0 1-.732-1.338.55.55 0 0 1 .046-.462c0-.046.046-.046.046-.046l-.137-.369c2.333-1.43 4.116-3.645 4.94-6.274l.366.046c.045 0 .045-.046.045-.046a.517.517 0 0 1 .366-.139h.046a7.64 7.64 0 0 1 1.464.415h.046c.091.046.183.093.274.093.183.092.32.184.503.23.046 0 .092.046.183.046.046 0 .046 0 .092.047.091.046.137.046.228.046a.995.995 0 0 0 .915-.646 1.085 1.085 0 0 0-.823-.97zm-13.218-1.43l-1.236.6-1.235-.6-.32-1.338.87-1.108h1.372l.869 1.108-.32 1.338zm7.455-3c.23.97.275 1.939.183 2.907l-4.345-1.245c-.412-.093-.64-.508-.549-.923a.745.745 0 0 1 .183-.323l3.43-3.137c.504.83.87 1.753 1.098 2.722zm-2.47-4.428l-3.75 2.676c-.32.184-.778.138-1.007-.185a.42.42 0 0 1-.137-.323l-.274-4.66a8.579 8.579 0 0 1 5.168 2.492zm-8.279-2.353l.915-.185-.229 4.614c0 .415-.366.738-.777.738-.138 0-.23-.046-.366-.092l-3.797-2.722c1.19-1.154 2.653-1.984 4.254-2.353zm-5.58 4.06l3.385 3.045c.32.277.365.738.091 1.06-.091.14-.183.185-.366.232l-4.437 1.291a9.78 9.78 0 0 1 1.327-5.628zm-.778 7.797l4.528-.784c.366 0 .732.23.778.6a.55.55 0 0 1-.046.46l-1.738 4.245a9.064 9.064 0 0 1-3.522-4.521zm10.383 5.72a9.18 9.18 0 0 1-1.967.232c-.96 0-1.966-.185-2.881-.462l2.241-4.106c.229-.277.595-.37.915-.185.137.093.229.185.366.323l2.195 4.014c-.274.046-.548.093-.869.185zm5.58-4.013a8.772 8.772 0 0 1-2.744 2.768l-1.784-4.337a.752.752 0 0 1 .412-.876c.137-.046.275-.093.412-.093l4.574.785c-.229.646-.503 1.245-.87 1.753z"/><path fill="#010101" d="M207.188 18.105l2.575-2.877 8.98 10.709-11.555-7.832zm2.575 14.236v-3.884l13.815 1.931-13.815 1.953zm11.429 8.82l-2.596-2.878 11.554-7.832-8.958 10.71zm14.358-1.093l-3.85-.399 3.37-13.585.48 13.984zm9.964-10.456l-3.14 2.267-6.551-12.346 9.69 10.079zm.418-14.468l-.816 3.8-13.103-4.787 13.92.987zm-9.335-11.023l1.926 3.38-12.936 5.229 11.01-8.61zM222.301 2.21l3.684 1.197-6.112 12.577L222.3 2.21zm-11.91 8.147l3.537-1.575 3.852 13.46-7.39-11.885zM207 24.425l1.57-3.548 11.847 7.412L207 24.425zm6.845 12.725l-1.194-3.696 13.732-2.436-12.538 6.132zM227.429 42l-3.37-1.932 8.603-11.044L227.429 42zm13.333-5.501l-3.788.819-.984-13.964 4.772 13.145zM247 23.459l-2.282 3.15-10.047-9.722L247 23.46zm-4.06-13.858l.397 3.864-13.94-.483L242.939 9.6zM230.672 2l2.868 2.604-10.675 9.008L230.673 2zm-14.191 2.604h3.872l-1.946 13.858-1.926-13.858z"/><path fill="#000" d="M73 23.368h-7.215V31h-4.61v-7.632H54V19.19h7.175V12h4.61v7.19H73zM176 15h19v4.268h-19V15zm0 7.732h19V27h-19v-4.268z"/></g></svg>