<svg width="16" height="16" viewBox="0 0 16 16" xmlns="http://www.w3.org/2000/svg"><title>icon-ccms-mag-solid</title><g transform="translate(0 -.138)" fill="#000" fill-rule="nonzero"><path d="M13.275 10.575l-2.383-1.376a4.087 4.087 0 1 0-.849 1.449l2.404 1.387-5.503 3.178-6.33-3.655v-7.31L6.944.593l6.33 3.655v6.327z"/><path d="M8.496 5.97a.512.512 0 0 1 .83.601L7.112 9.625a.512.512 0 0 1-.734.1L4.92 8.557a.512.512 0 0 1 .64-.8l1.039.83L8.496 5.97z"/><circle cx="14.716" cy="12.164" r="1"/></g></svg>