<svg width="96" height="96" viewBox="0 0 96 96" xmlns="http://www.w3.org/2000/svg"><title>icon-cloud-download</title><g fill="#000" fill-rule="nonzero"><path d="M40.847 73.022H29.61c-.802 0-1.605.803-1.605 1.605 0 .803 0 .803.803 1.606l19.262 18.46 19.262-18.46c.803-.803.803-1.606 0-2.408 0 0-.802-.803-1.605-.803H54.49V59.378H40.847v13.644zM76.615 25.09c0-1.144.571-1.715.571-2.858 0-10.858-8.572-19.43-19.43-19.43h-1.143c-9.715 0-17.716 6.857-20.573 16.001-1.714-.571-4-.571-5.715-.571-9.144-.572-16.573 6.857-17.144 15.43 0 1.143 0 2.857.571 4h-.571c-5.715.571-10.287 5.143-10.858 10.858 0 5.715 4.572 9.715 9.715 10.858H41.228V35.376c0-.571.572-1.143 1.143-1.143H53.23c.572 0 1.143.572 1.143 1.143v24.002h22.814l3.43-.571c8-1.143 13.143-8.001 12.572-16.002-.572-8.572-7.43-16.573-16.573-17.716z"/></g></svg>