<svg xmlns="http://www.w3.org/2000/svg" fill="none" viewBox="0 0 88 87"><path fill="#fff" d="M50.19 37.1a3 3 0 1 0 0-5.99 3 3 0 0 0 0 6zM29.08 53.59a2.1 2.1 0 1 0 0-4.2 2.1 2.1 0 0 0 0 4.2zM57.64 49.87a2.1 2.1 0 1 0 0-4.2 2.1 2.1 0 0 0 0 4.2zM63.84 71.36h-44.7v4.97h44.7v-4.97z"/><path fill="#fff" d="M27.43 68.88h28.13a28.56 28.56 0 1 0-28.13 0zm7.85-16.15a4.97 4.97 0 0 0-4.96 4.97 1.24 1.24 0 1 1-2.49 0 4.97 4.97 0 0 0-4.96-4.97 1.24 1.24 0 1 1 0-2.48 4.97 4.97 0 0 0 4.96-4.97 1.24 1.24 0 1 1 2.49 0 4.97 4.97 0 0 0 4.96 4.97 1.24 1.24 0 0 1 0 2.48zm8.7-9.93h-2.49v-2.48h2.49v2.48zm21.1 12.42H62.6v-2.49h2.49v2.49zm-3.72-18.63h2.48v2.48h-2.48V36.6zm2.48 9.93a1.24 1.24 0 0 1 0 2.49 4.97 4.97 0 0 0-4.96 4.97 1.24 1.24 0 0 1-2.49 0A4.97 4.97 0 0 0 51.43 49a1.24 1.24 0 1 1 0-2.48 4.97 4.97 0 0 0 4.96-4.97 1.24 1.24 0 1 1 2.49 0 4.97 4.97 0 0 0 4.96 4.96zM43.98 17.97h2.48v2.48h-2.48v-2.48zm-1.24 14.9a6.22 6.22 0 0 0 6.2-6.21 1.24 1.24 0 0 1 2.49 0 6.22 6.22 0 0 0 6.2 6.2 1.24 1.24 0 0 1 0 2.49 6.22 6.22 0 0 0-6.2 6.2 1.24 1.24 0 1 1-2.49 0 6.22 6.22 0 0 0-6.2-6.2 1.24 1.24 0 1 1 0-2.48zm-27.28 8.36c6.4-23 25.84-23.26 26.03-23.26v2.48c-.72 0-17.77.31-23.64 21.44l-2.39-.66zM12.93 85.02h2.49v-2.48h2.48v2.48h2.48v-2.48h2.49v2.48h37.25v-2.48h2.48v2.48h2.49v-2.48h2.48v2.48h2.48V78.8H12.93v6.2zM7.53 30.68c-.08-1-.26-1.98-.54-2.93-.12-.37-.3-.71-.52-1.02-.2-.25-.46-.45-.75-.58a1.24 1.24 0 0 0-.8-.14.77.77 0 0 0-.5.47.84.84 0 0 0 0 .7c.12.25.32.44.57.54.16.07.33.12.5.16l-.81 1.37a3.07 3.07 0 0 1-.52-.12 2.01 2.01 0 0 1-.87-.76c-.2-.34-.3-.73-.29-1.12.03-.46.14-.91.35-1.33.23-.6.67-1.09 1.24-1.38a1.97 1.97 0 0 1 1.7.1c.41.2.77.47 1.05.82.27.39.49.82.63 1.27.18.65.3 1.32.33 2l1.25-2.63 1.1.52-2.08 4.54-1.04-.48zM12.75 23.02c-.51.15-1.05.15-1.56 0a5.05 5.05 0 0 1-2.96-2.38 2.8 2.8 0 0 1-.35-1.53c.06-.55.28-1.06.64-1.47.3-.43.74-.76 1.24-.96a2.68 2.68 0 0 1 1.56.03c.63.18 1.21.5 1.72.92.5.4.93.89 1.24 1.45.27.47.39 1 .34 1.54A2.82 2.82 0 0 1 14 22.1c-.32.41-.75.73-1.24.92zm.47-2.82c-.27-.54-.67-1-1.17-1.34-.45-.41-1-.7-1.6-.84a1.02 1.02 0 0 0-1.07.38 1.03 1.03 0 0 0-.1 1.12c.28.53.68.99 1.17 1.34.46.4 1 .67 1.6.82a1.04 1.04 0 0 0 1.17-1.48zM15.88 13.23c-.03.2-.1.38-.21.54-.13.18-.28.35-.45.5l-.21.15-.83-1.06.13-.12c.28-.2.49-.48.59-.8a1.7 1.7 0 0 0-.09-1l.97-.8 4.32 5.26-1.24.98-2.98-3.65zM24.11 6.3c.81.44 1.45 1.13 1.83 1.96.48.82.71 1.77.65 2.72a2.32 2.32 0 0 1-1.39 1.8c-.5.3-1.07.42-1.65.34a1.95 1.95 0 0 1-1.3-.87l1.18-.9c.14.21.35.36.6.43a.9.9 0 0 0 .68-.04c.7-.36.72-1.17.08-2.48-.02.28-.12.55-.3.78a2.48 2.48 0 0 1-1.86.87c-.35-.01-.7-.13-1-.32a2.3 2.3 0 0 1-.78-.9c-.21-.38-.31-.8-.3-1.24.02-.41.17-.8.4-1.14a3 3 0 0 1 2.1-1.18c.36-.02.72.04 1.06.17zm0 2.62c.12-.24.17-.51.13-.78a1.66 1.66 0 0 0-.75-.74 1.02 1.02 0 0 0-.94 0 1.07 1.07 0 0 0-.55.64c-.07.3-.03.6.12.87.14.27.37.47.65.58a.97.97 0 0 0 .82-.07c.22-.1.4-.28.52-.5zM30.18 7.67a1.15 1.15 0 0 1-.58-.75 1.24 1.24 0 0 1 .84-1.54 1.24 1.24 0 0 1 .96.08 1.24 1.24 0 0 1 .58.77c.1.31.07.65-.08.94a1.35 1.35 0 0 1-1.72.5zM40.25 1.98a2 2 0 0 1 1.3 1.78 2.05 2.05 0 0 1-.53 1.65c-.47.45-1.1.71-1.76.73l-1.35.11.18 2.49-1.61.12-.53-6.8L39 1.82c.42-.03.85.03 1.24.17zm-.62 2.73a.97.97 0 0 0 .24-.77.9.9 0 0 0-.36-.72 1.12 1.12 0 0 0-.85-.17h-1l.11 2.07 1-.07c.33 0 .64-.12.88-.34h-.02zM48.03 6.45l-.97-.16-.42 2.57-1.6-.27 1.11-6.72 2.96.5c.67.05 1.3.36 1.76.85a1.99 1.99 0 0 1 .35 1.62 1.88 1.88 0 0 1-1.61 1.63l1 3.05-1.66-.26-.92-2.8zm-.79-1.24l1.04.17c.3.08.6.04.88-.1a.96.96 0 0 0 .4-.7c.1-.61-.22-.98-.96-1.1l-1.03-.18-.33 1.91zM58.53 11.32l-.47 1.1-4.35-1.92 2.69-6.2 4.27 1.84-.47 1.1-2.8-1.25-.6 1.42 2.64 1.13-.47 1.1-2.57-1.1-.66 1.54 2.8 1.24zM65.2 8.72l2.16 1.64c.5.36.89.84 1.16 1.38.23.52.3 1.1.22 1.67-.1.6-.36 1.17-.75 1.65-.36.52-.84.95-1.41 1.24-.53.24-1.1.32-1.68.23a3.46 3.46 0 0 1-1.67-.73l-2.15-1.67 4.12-5.4zm-1.35 6.06c.27.22.6.34.94.34.35 0 .7-.1 1-.27.33-.2.62-.47.85-.79.36-.42.57-.96.58-1.52a1.54 1.54 0 0 0-.67-1.25l-.82-.62-2.64 3.56.76.55zM68.16 20.28l5.16-4.43 1.06 1.24-5.17 4.44-1.05-1.25zM72.27 25.29c.02-.57.2-1.13.54-1.59.4-.52.9-.94 1.47-1.24a4.12 4.12 0 0 1 1.83-.56c.58-.03 1.16.11 1.66.4.52.34.95.8 1.24 1.35.4.64.54 1.4.42 2.15a2.62 2.62 0 0 1-1.12 1.67l-1.04-1.3c.33-.2.59-.52.72-.9a1.24 1.24 0 0 0-.15-1.02 1.41 1.41 0 0 0-1.1-.76 2.8 2.8 0 0 0-1.67.42c-.53.25-.97.66-1.24 1.18a1.4 1.4 0 0 0 0 1.38 1.24 1.24 0 0 0 .77.64c.38.09.77.06 1.13-.08l.53 1.6c-.66.21-1.38.19-2.02-.08-.66-.3-1.2-.81-1.53-1.46a3.56 3.56 0 0 1-.44-1.8zM82.06 35.9l-.53-1.93-5.27 1.46-.42-1.55 5.33-1.46-.52-1.9 1.24-.35 1.46 5.38-1.29.34zM77.1 40.49l6.78-.55.12 1.62-6.78.54-.12-1.61zM77.5 47.02a2.8 2.8 0 0 1 1.38-1 4.54 4.54 0 0 1 3.73.5c.5.32.88.78 1.1 1.32a3.73 3.73 0 0 1-.47 3.51 3 3 0 0 1-1.39 1 4.63 4.63 0 0 1-3.72-.49c-.48-.33-.86-.79-1.08-1.33-.23-.57-.3-1.2-.2-1.8.06-.63.29-1.21.66-1.71zm.99 3.22a2.8 2.8 0 0 0 1.62.65c.6.12 1.2.04 1.74-.2a1.58 1.58 0 0 0 .32-2.5 2.86 2.86 0 0 0-1.61-.66 2.76 2.76 0 0 0-1.74.22 1.58 1.58 0 0 0-.33 2.49zM81.88 57.82l-.65 1.65-4.43.5c-.32.02-.65.02-.97 0l.8.32 3.6 1.53-.59 1.37-6.2-2.66.66-1.59 4.5-.56H79.52l-.83-.33-3.67-1.5.6-1.35 6.26 2.62zM71.36 64.22a2.6 2.6 0 0 1 1.61-.2l-.06 1.46c-.37-.1-.76-.1-1.13 0-.37.14-.69.39-.92.71-.19.22-.3.5-.35.78a.63.63 0 0 0 .27.61.65.65 0 0 0 .58.16c.25-.1.49-.24.68-.43l.71-.6a2.02 2.02 0 0 1 2.77-.27c.3.23.54.54.66.9.1.38.1.78 0 1.16a4.09 4.09 0 0 1-1.93 2.37c-.44.25-.94.33-1.44.24l-.07-1.38c.35.07.71.03 1.04-.1.34-.14.63-.37.84-.66.18-.2.3-.46.33-.73a.58.58 0 0 0-.24-.53.64.64 0 0 0-.54-.14c-.27.09-.5.23-.71.42l-.77.66c-.39.37-.87.61-1.4.7-.48.04-.96-.12-1.33-.44a1.94 1.94 0 0 1-.71-.94c-.13-.4-.13-.84 0-1.24.13-.5.37-.96.7-1.36.36-.5.85-.9 1.4-1.15z"/></svg>