<svg width="2307" height="1706" viewBox="0 0 2307 1706" fill="none" xmlns="http://www.w3.org/2000/svg"><g opacity=".7"><path opacity=".2" d="M1199.33 242.387L588.239 601.056V1680.68l611.091-358.67V242.387z" fill="url(#a)"/><path opacity=".2" d="M1752.07 609.733l-391.9 230.017v692.37l391.9-230.01V609.733z" fill="url(#b)"/><path opacity=".2" d="M501.094 64.466L.139 358.493v885.047l500.955-294.023V64.466z" fill="url(#c)"/><path opacity=".2" d="M1610.02 609.733l-282.5 165.812v499.115l282.5-165.82V609.733z" fill="url(#d)"/><path opacity=".2" d="M1459.03 250.874l-200.67 117.781v354.533l200.67-117.781V250.874z" fill="url(#e)"/><path opacity=".2" d="M1629.94 187.633l-90.42 53.067v159.736l90.42-53.067V187.633z" fill="url(#f)"/><path opacity=".2" d="M1707.8 723.188l-97.78 57.387v334.155l97.78-57.39V723.188z" fill="url(#g)"/><path opacity=".2" d="M1569.04 924.753l-59.03 34.649V1063.7l59.03-34.65V924.753z" fill="url(#h)"/><path opacity=".2" d="M1420.14 1018.06l-138.95 81.56v245.48l138.95-81.55v-245.49z" fill="url(#i)"/><path opacity=".2" d="M1766.36 231.349l-171.28 100.529v302.601l171.28-100.529V231.349z" fill="url(#j)"/><path opacity=".2" d="M1692.78 503.202l-175.27 102.869v678.279l175.27-102.87V503.202z" fill="url(#k)"/><path opacity=".2" d="M853.291 250.874L682.013 351.403v302.602l171.278-100.529V250.874z" fill="url(#l)"/><path opacity=".2" d="M554.088 516.884L337.391 644.071v382.849l216.697-127.191V516.884z" fill="url(#m)"/><path opacity=".2" d="M643.696 187.633l-138.868 81.506v245.342l138.868-81.506V187.633z" fill="url(#n)"/><path opacity=".2" d="M469.488 377.056L237.497 513.219v409.864L469.488 786.92V377.056z" fill="url(#o)"/><path opacity=".2" d="M389.598 893.775l-84.33 49.496v148.989l84.33-49.5V893.775z" fill="url(#p)"/><path opacity=".2" d="M725.297 585.719l-107.294 62.974v189.559l107.294-62.975V585.719z" fill="url(#q)"/><path opacity=".2" d="M1203.19 487.031l-97.77 57.387v172.74l97.77-57.387v-172.74z" fill="url(#r)"/><path opacity=".2" d="M1405.01 674.574l-168.39 98.839v297.517l168.39-98.841V674.574z" fill="url(#s)"/><path opacity=".2" d="M1073.37 869.622L846.037 1003.05v401.64l227.333-133.43V869.622z" fill="url(#t)"/><path opacity=".2" d="M445.74 1092.26l-149.104 87.51v263.43l149.104-87.52v-263.42z" fill="url(#u)"/><path opacity=".2" d="M671.651 766.725l-166.823 97.914v546.951l166.823-97.91V766.725z" fill="url(#v)"/><path opacity=".2" d="M1311.76 274.742l-106.81 62.689v188.698l106.81-62.688V274.742z" fill="url(#w)"/><path opacity=".2" d="M871.215 656.26l-107.294 62.974v582.556l107.294-62.98V656.26z" fill="url(#x)"/><path opacity=".2" d="M1854.16 835.074l130.66 76.694v230.862l-130.66-76.7V835.074z" fill="url(#y)"/><path opacity=".2" d="M1775.22 602.094l80.56 47.286v142.335l-80.56-47.286V602.094z" fill="url(#z)"/><path opacity=".2" d="M1156.54 334.348L917.766 474.491l-.001 1075.549 238.775-140.14V334.348z" fill="url(#A)"/><path opacity=".2" d="M2104.41 400.432l97.78 57.387v172.74l-97.78-57.387v-172.74z" fill="url(#B)"/><path opacity=".2" d="M1828.4 417.99l171.28 100.529v302.602L1828.4 720.592V417.99z" fill="url(#C)"/><path opacity=".2" d="M1873.27.907l171.28 100.529v302.601l-171.28-100.529V.907z" fill="url(#D)"/><path opacity=".2" d="M2135.3 168.134l171.28 100.529v302.601L2135.3 470.736V168.134z" fill="url(#E)"/><path opacity=".2" d="M1728.06 99.708l105.99 62.209v187.256l-105.99-62.209V99.708z" fill="url(#F)"/><path opacity=".2" d="M1999.12 418.016l147.19 86.393v260.05l-147.19-86.392V418.016z" fill="url(#G)"/><path opacity=".2" d="M2158.24 712.015l132.46 77.743v234.012l-132.46-77.742V712.015z" fill="url(#H)"/><path opacity=".2" d="M744.089 1152.23l-144.876 85.03v255.96l144.876-85.03v-255.96z" fill="url(#I)"/><path opacity=".2" d="M1737.54 1023.77l171.28 100.53v580.97l-171.28-100.53v-580.97z" fill="url(#J)"/></g><defs><linearGradient id="a" x1="756.931" y1="343.602" x2="1254.57" y2="1516.01" gradientUnits="userSpaceOnUse"><stop stop-opacity=".92"/><stop offset="1" stop-opacity="0"/></linearGradient><linearGradient id="b" x1="1468.36" y1="674.643" x2="1787.5" y2="1426.52" gradientUnits="userSpaceOnUse"><stop stop-opacity=".92"/><stop offset="1" stop-opacity="0"/></linearGradient><linearGradient id="c" x1="138.428" y1="147.439" x2="546.381" y2="1108.55" gradientUnits="userSpaceOnUse"><stop stop-opacity=".92"/><stop offset="1" stop-opacity="0"/></linearGradient><linearGradient id="d" x1="1405.5" y1="656.525" x2="1635.56" y2="1198.53" gradientUnits="userSpaceOnUse"><stop stop-opacity=".92"/><stop offset="1" stop-opacity="0"/></linearGradient><linearGradient id="e" x1="1313.75" y1="284.112" x2="1477.17" y2="669.112" gradientUnits="userSpaceOnUse"><stop stop-color="#fff" stop-opacity=".92"/><stop offset="1" stop-color="#fff" stop-opacity="0"/></linearGradient><linearGradient id="f" x1="1564.48" y1="202.608" x2="1638.11" y2="376.072" gradientUnits="userSpaceOnUse"><stop stop-color="#fff" stop-opacity=".92"/><stop offset="1" stop-color="#fff" stop-opacity="0"/></linearGradient><linearGradient id="g" x1="1637.01" y1="739.382" x2="1707.8" y2="1039.92" gradientUnits="userSpaceOnUse"><stop stop-color="#fff" stop-opacity=".92"/><stop offset="1" stop-color="#fff" stop-opacity="0"/></linearGradient><linearGradient id="h" x1="1526.3" y1="934.531" x2="1574.38" y2="1047.79" gradientUnits="userSpaceOnUse"><stop stop-color="#fff" stop-opacity=".92"/><stop offset="1" stop-color="#fff" stop-opacity="0"/></linearGradient><linearGradient id="i" x1="1319.54" y1="1041.07" x2="1432.7" y2="1307.66" gradientUnits="userSpaceOnUse"><stop stop-color="#fff" stop-opacity=".92"/><stop offset="1" stop-color="#fff" stop-opacity="0"/></linearGradient><linearGradient id="j" x1="1642.36" y1="259.718" x2="1781.84" y2="588.324" gradientUnits="userSpaceOnUse"><stop stop-color="#fff" stop-opacity=".92"/><stop offset="1" stop-color="#fff" stop-opacity="0"/></linearGradient><linearGradient id="k" x1="1565.9" y1="532.232" x2="1708.62" y2="868.488" gradientUnits="userSpaceOnUse"><stop stop-color="#fff" stop-opacity=".92"/><stop offset="1" stop-color="#fff" stop-opacity="0"/></linearGradient><linearGradient id="l" x1="729.294" y1="279.243" x2="868.775" y2="607.85" gradientUnits="userSpaceOnUse"><stop stop-color="#fff" stop-opacity=".92"/><stop offset="1" stop-color="#fff" stop-opacity="0"/></linearGradient><linearGradient id="m" x1="397.211" y1="552.776" x2="573.678" y2="968.522" gradientUnits="userSpaceOnUse"><stop stop-color="#fff" stop-opacity=".92"/><stop offset="1" stop-color="#fff" stop-opacity="0"/></linearGradient><linearGradient id="n" x1="543.163" y1="210.634" x2="656.25" y2="477.06" gradientUnits="userSpaceOnUse"><stop stop-color="#fff" stop-opacity=".92"/><stop offset="1" stop-color="#fff" stop-opacity="0"/></linearGradient><linearGradient id="o" x1="301.539" y1="415.481" x2="490.46" y2="860.567" gradientUnits="userSpaceOnUse"><stop stop-color="#fff" stop-opacity=".92"/><stop offset="1" stop-color="#fff" stop-opacity="0"/></linearGradient><linearGradient id="p" x1="328.547" y1="907.743" x2="397.221" y2="1069.53" gradientUnits="userSpaceOnUse"><stop stop-color="#fff" stop-opacity=".92"/><stop offset="1" stop-color="#fff" stop-opacity="0"/></linearGradient><linearGradient id="q" x1="647.622" y1="603.49" x2="734.996" y2="809.339" gradientUnits="userSpaceOnUse"><stop stop-color="#fff" stop-opacity=".92"/><stop offset="1" stop-color="#fff" stop-opacity="0"/></linearGradient><linearGradient id="r" x1="1132.41" y1="503.225" x2="1212.03" y2="690.81" gradientUnits="userSpaceOnUse"><stop stop-color="#fff" stop-opacity=".92"/><stop offset="1" stop-color="#fff" stop-opacity="0"/></linearGradient><linearGradient id="s" x1="1283.1" y1="702.467" x2="1420.24" y2="1025.55" gradientUnits="userSpaceOnUse"><stop stop-color="#fff" stop-opacity=".92"/><stop offset="1" stop-color="#fff" stop-opacity="0"/></linearGradient><linearGradient id="t" x1="908.792" y1="907.275" x2="1093.92" y2="1343.43" gradientUnits="userSpaceOnUse"><stop stop-color="#fff" stop-opacity=".92"/><stop offset="1" stop-color="#fff" stop-opacity="0"/></linearGradient><linearGradient id="u" x1="337.796" y1="1116.95" x2="459.219" y2="1403.02" gradientUnits="userSpaceOnUse"><stop stop-color="#fff" stop-opacity=".92"/><stop offset="1" stop-color="#fff" stop-opacity="0"/></linearGradient><linearGradient id="v" x1="550.88" y1="794.356" x2="623.883" y2="1251.89" gradientUnits="userSpaceOnUse"><stop stop-color="#fff" stop-opacity=".92"/><stop offset="1" stop-color="#fff" stop-opacity="0"/></linearGradient><linearGradient id="w" x1="1234.44" y1="292.433" x2="1321.42" y2="497.347" gradientUnits="userSpaceOnUse"><stop stop-color="#fff" stop-opacity=".92"/><stop offset="1" stop-color="#fff" stop-opacity="0"/></linearGradient><linearGradient id="x" x1="793.54" y1="674.031" x2="850.18" y2="1224.3" gradientUnits="userSpaceOnUse"><stop stop-color="#fff" stop-opacity=".92"/><stop offset="1" stop-color="#fff" stop-opacity="0"/></linearGradient><linearGradient id="y" x1="1948.75" y1="856.717" x2="1842.34" y2="1107.41" gradientUnits="userSpaceOnUse"><stop stop-color="#fff" stop-opacity=".92"/><stop offset="1" stop-color="#fff" stop-opacity="0"/></linearGradient><linearGradient id="z" x1="1833.54" y1="615.438" x2="1767.93" y2="770.005" gradientUnits="userSpaceOnUse"><stop stop-color="#fff" stop-opacity=".92"/><stop offset="1" stop-color="#fff" stop-opacity="0"/></linearGradient><linearGradient id="A" x1="983.678" y1="373.895" x2="1037.15" y2="1224.06" gradientUnits="userSpaceOnUse"><stop stop-color="#fff" stop-opacity=".92"/><stop offset="1" stop-color="#fff" stop-opacity="0"/></linearGradient><linearGradient id="B" x1="2175.19" y1="416.627" x2="2095.57" y2="604.211" gradientUnits="userSpaceOnUse"><stop stop-color="#fff" stop-opacity=".92"/><stop offset="1" stop-color="#fff" stop-opacity="0"/></linearGradient><linearGradient id="C" x1="1952.4" y1="446.359" x2="1812.92" y2="774.966" gradientUnits="userSpaceOnUse"><stop stop-color="#fff" stop-opacity=".92"/><stop offset="1" stop-color="#fff" stop-opacity="0"/></linearGradient><linearGradient id="D" x1="1997.27" y1="29.276" x2="1857.79" y2="357.882" gradientUnits="userSpaceOnUse"><stop stop-color="#fff" stop-opacity=".92"/><stop offset="1" stop-color="#fff" stop-opacity="0"/></linearGradient><linearGradient id="E" x1="2259.3" y1="196.503" x2="2119.82" y2="525.109" gradientUnits="userSpaceOnUse"><stop stop-color="#fff" stop-opacity=".92"/><stop offset="1" stop-color="#fff" stop-opacity="0"/></linearGradient><linearGradient id="F" x1="1804.79" y1="117.263" x2="1718.47" y2="320.611" gradientUnits="userSpaceOnUse"><stop stop-color="#fff" stop-opacity=".92"/><stop offset="1" stop-color="#fff" stop-opacity="0"/></linearGradient><linearGradient id="G" x1="2105.68" y1="442.396" x2="1985.81" y2="724.794" gradientUnits="userSpaceOnUse"><stop stop-color="#fff" stop-opacity=".92"/><stop offset="1" stop-color="#fff" stop-opacity="0"/></linearGradient><linearGradient id="H" x1="2254.14" y1="733.954" x2="2146.27" y2="988.077" gradientUnits="userSpaceOnUse"><stop stop-color="#fff" stop-opacity=".92"/><stop offset="1" stop-color="#fff" stop-opacity="0"/></linearGradient><linearGradient id="I" x1="639.206" y1="1176.23" x2="757.186" y2="1454.18" gradientUnits="userSpaceOnUse"><stop stop-color="#fff" stop-opacity=".92"/><stop offset="1" stop-color="#fff" stop-opacity="0"/></linearGradient><linearGradient id="J" x1="1861.53" y1="1052.14" x2="1849.88" y2="1651.2" gradientUnits="userSpaceOnUse"><stop stop-color="#fff" stop-opacity=".92"/><stop offset="1" stop-color="#fff" stop-opacity="0"/></linearGradient></defs></svg>