<svg width="2307" height="1721" viewBox="0 0 2307 1721" fill="none" xmlns="http://www.w3.org/2000/svg">
<g opacity="0.6">
<path opacity="0.2" d="M1199.33 257.597L588.239 616.265V1695.89L1199.33 1337.22V257.597Z" fill="url(#paint0_linear)"/>
<path opacity="0.2" d="M1752.07 624.942L1360.17 854.959V1547.33L1752.07 1317.32V624.942Z" fill="url(#paint1_linear)"/>
<path opacity="0.2" d="M501.094 79.675L0.139261 373.703V1258.75L501.094 964.726V79.675Z" fill="url(#paint2_linear)"/>
<path opacity="0.2" d="M1610.02 624.942L1327.52 790.755V1289.87L1610.02 1124.05V624.942Z" fill="url(#paint3_linear)"/>
<path opacity="0.2" d="M1459.03 266.084L1258.36 383.865V738.397L1459.03 620.616V266.084Z" fill="url(#paint4_linear)"/>
<path opacity="0.2" d="M1629.94 202.842L1539.52 255.909V415.645L1629.94 362.579V202.842Z" fill="url(#paint5_linear)"/>
<path opacity="0.2" d="M1707.8 738.397L1610.02 795.784L1610.02 1129.94L1707.8 1072.55L1707.8 738.397Z" fill="url(#paint6_linear)"/>
<path opacity="0.2" d="M1569.04 939.963L1510.01 974.611V1078.91L1569.04 1044.26V939.963Z" fill="url(#paint7_linear)"/>
<path opacity="0.2" d="M1420.14 1033.27L1281.19 1114.83V1360.31L1420.14 1278.76V1033.27Z" fill="url(#paint8_linear)"/>
<path opacity="0.2" d="M1766.36 246.558L1595.08 347.087V649.689L1766.36 549.16V246.558Z" fill="url(#paint9_linear)"/>
<path opacity="0.2" d="M1692.78 518.412L1517.51 621.281V1299.56L1692.78 1196.69V518.412Z" fill="url(#paint10_linear)"/>
<path opacity="0.2" d="M853.291 266.084L682.013 366.613V669.214L853.291 568.685V266.084Z" fill="url(#paint11_linear)"/>
<path opacity="0.2" d="M554.088 532.094L337.391 659.281V1042.13L554.088 914.939V532.094Z" fill="url(#paint12_linear)"/>
<path opacity="0.2" d="M643.696 202.842L504.828 284.349V529.691L643.696 448.184V202.842Z" fill="url(#paint13_linear)"/>
<path opacity="0.2" d="M469.488 392.266L237.498 528.429V938.292L469.488 802.129V392.266Z" fill="url(#paint14_linear)"/>
<path opacity="0.2" d="M389.598 908.985L305.268 958.481V1107.47L389.598 1057.97V908.985Z" fill="url(#paint15_linear)"/>
<path opacity="0.2" d="M725.297 600.928L618.003 663.902V853.461L725.297 790.487V600.928Z" fill="url(#paint16_linear)"/>
<path opacity="0.2" d="M1203.19 502.24L1105.42 559.627V732.367L1203.19 674.98V502.24Z" fill="url(#paint17_linear)"/>
<path opacity="0.2" d="M1405.01 689.784L1236.62 788.623V1086.14L1405.01 987.298V689.784Z" fill="url(#paint18_linear)"/>
<path opacity="0.2" d="M1073.37 884.831L846.037 1018.26V1419.9L1073.37 1286.47V884.831Z" fill="url(#paint19_linear)"/>
<path opacity="0.2" d="M445.74 1107.47L296.636 1194.98V1458.41L445.74 1370.89V1107.47Z" fill="url(#paint20_linear)"/>
<path opacity="0.2" d="M671.651 781.934L504.828 879.848V1426.8L671.651 1328.89V781.934Z" fill="url(#paint21_linear)"/>
<path opacity="0.2" d="M1311.76 289.952L1204.95 352.64V541.338L1311.76 478.65V289.952Z" fill="url(#paint22_linear)"/>
<path opacity="0.2" d="M871.215 671.469L763.921 734.444V1317L871.215 1254.02V671.469Z" fill="url(#paint23_linear)"/>
<path opacity="0.2" d="M1854.16 850.284L1984.82 926.978V1157.83L1854.16 1081.14V850.284Z" fill="url(#paint24_linear)"/>
<path opacity="0.2" d="M1775.22 617.304L1855.78 664.59V806.924L1775.22 759.638V617.304Z" fill="url(#paint25_linear)"/>
<path opacity="0.2" d="M1156.54 349.557L917.766 489.7L917.765 1565.25L1156.54 1425.11L1156.54 349.557Z" fill="url(#paint26_linear)"/>
<path opacity="0.2" d="M2104.41 415.642L2202.19 473.028V645.768L2104.41 588.381V415.642Z" fill="url(#paint27_linear)"/>
<path opacity="0.2" d="M1828.4 433.2L1999.68 533.729V836.33L1828.4 735.802V433.2Z" fill="url(#paint28_linear)"/>
<path opacity="0.2" d="M1873.27 16.1162L2044.55 116.645V419.247L1873.27 318.718V16.1162Z" fill="url(#paint29_linear)"/>
<path opacity="0.2" d="M2135.3 183.343L2306.58 283.872V586.474L2135.3 485.945V183.343Z" fill="url(#paint30_linear)"/>
<path opacity="0.2" d="M1728.06 114.917L1834.05 177.126V364.383L1728.06 302.173V114.917Z" fill="url(#paint31_linear)"/>
<path opacity="0.2" d="M1999.12 433.225L2146.31 519.618V779.669L1999.12 693.276V433.225Z" fill="url(#paint32_linear)"/>
<path opacity="0.2" d="M2158.24 727.225L2290.7 804.967V1038.98L2158.24 961.237V727.225Z" fill="url(#paint33_linear)"/>
<path opacity="0.2" d="M744.089 1167.44L599.213 1252.47V1508.43L744.089 1423.4V1167.44Z" fill="url(#paint34_linear)"/>
<path opacity="0.2" d="M1737.54 1038.98L1908.82 1139.51V1720.48L1737.54 1619.95V1038.98Z" fill="url(#paint35_linear)"/>
</g>
<defs>
<linearGradient id="paint0_linear" x1="756.931" y1="358.812" x2="1254.57" y2="1531.22" gradientUnits="userSpaceOnUse">
<stop stop-opacity="0.92"/>
<stop offset="1" stop-opacity="0"/>
</linearGradient>
<linearGradient id="paint1_linear" x1="1468.36" y1="689.852" x2="1787.5" y2="1441.73" gradientUnits="userSpaceOnUse">
<stop stop-opacity="0.92"/>
<stop offset="1" stop-opacity="0"/>
</linearGradient>
<linearGradient id="paint2_linear" x1="138.428" y1="162.649" x2="546.381" y2="1123.76" gradientUnits="userSpaceOnUse">
<stop stop-opacity="0.92"/>
<stop offset="1" stop-opacity="0"/>
</linearGradient>
<linearGradient id="paint3_linear" x1="1405.5" y1="671.734" x2="1635.56" y2="1213.74" gradientUnits="userSpaceOnUse">
<stop stop-opacity="0.92"/>
<stop offset="1" stop-opacity="0"/>
</linearGradient>
<linearGradient id="paint4_linear" x1="1313.75" y1="299.321" x2="1477.17" y2="684.321" gradientUnits="userSpaceOnUse">
<stop stop-color="white" stop-opacity="0.92"/>
<stop offset="1" stop-color="white" stop-opacity="0"/>
</linearGradient>
<linearGradient id="paint5_linear" x1="1564.48" y1="217.818" x2="1638.11" y2="391.281" gradientUnits="userSpaceOnUse">
<stop stop-color="white" stop-opacity="0.92"/>
<stop offset="1" stop-color="white" stop-opacity="0"/>
</linearGradient>
<linearGradient id="paint6_linear" x1="1637.01" y1="754.592" x2="1707.8" y2="1055.13" gradientUnits="userSpaceOnUse">
<stop stop-color="white" stop-opacity="0.92"/>
<stop offset="1" stop-color="white" stop-opacity="0"/>
</linearGradient>
<linearGradient id="paint7_linear" x1="1526.3" y1="949.741" x2="1574.38" y2="1063" gradientUnits="userSpaceOnUse">
<stop stop-color="white" stop-opacity="0.92"/>
<stop offset="1" stop-color="white" stop-opacity="0"/>
</linearGradient>
<linearGradient id="paint8_linear" x1="1319.54" y1="1056.28" x2="1432.7" y2="1322.87" gradientUnits="userSpaceOnUse">
<stop stop-color="white" stop-opacity="0.92"/>
<stop offset="1" stop-color="white" stop-opacity="0"/>
</linearGradient>
<linearGradient id="paint9_linear" x1="1642.36" y1="274.927" x2="1781.84" y2="603.534" gradientUnits="userSpaceOnUse">
<stop stop-color="white" stop-opacity="0.92"/>
<stop offset="1" stop-color="white" stop-opacity="0"/>
</linearGradient>
<linearGradient id="paint10_linear" x1="1565.9" y1="547.441" x2="1708.62" y2="883.697" gradientUnits="userSpaceOnUse">
<stop stop-color="white" stop-opacity="0.92"/>
<stop offset="1" stop-color="white" stop-opacity="0"/>
</linearGradient>
<linearGradient id="paint11_linear" x1="729.294" y1="294.453" x2="868.775" y2="623.059" gradientUnits="userSpaceOnUse">
<stop stop-color="white" stop-opacity="0.92"/>
<stop offset="1" stop-color="white" stop-opacity="0"/>
</linearGradient>
<linearGradient id="paint12_linear" x1="397.211" y1="567.985" x2="573.678" y2="983.731" gradientUnits="userSpaceOnUse">
<stop stop-color="white" stop-opacity="0.92"/>
<stop offset="1" stop-color="white" stop-opacity="0"/>
</linearGradient>
<linearGradient id="paint13_linear" x1="543.163" y1="225.843" x2="656.25" y2="492.269" gradientUnits="userSpaceOnUse">
<stop stop-color="white" stop-opacity="0.92"/>
<stop offset="1" stop-color="white" stop-opacity="0"/>
</linearGradient>
<linearGradient id="paint14_linear" x1="301.539" y1="430.691" x2="490.46" y2="875.777" gradientUnits="userSpaceOnUse">
<stop stop-color="white" stop-opacity="0.92"/>
<stop offset="1" stop-color="white" stop-opacity="0"/>
</linearGradient>
<linearGradient id="paint15_linear" x1="328.547" y1="922.952" x2="397.221" y2="1084.74" gradientUnits="userSpaceOnUse">
<stop stop-color="white" stop-opacity="0.92"/>
<stop offset="1" stop-color="white" stop-opacity="0"/>
</linearGradient>
<linearGradient id="paint16_linear" x1="647.622" y1="618.699" x2="734.996" y2="824.548" gradientUnits="userSpaceOnUse">
<stop stop-color="white" stop-opacity="0.92"/>
<stop offset="1" stop-color="white" stop-opacity="0"/>
</linearGradient>
<linearGradient id="paint17_linear" x1="1132.41" y1="518.435" x2="1212.03" y2="706.019" gradientUnits="userSpaceOnUse">
<stop stop-color="white" stop-opacity="0.92"/>
<stop offset="1" stop-color="white" stop-opacity="0"/>
</linearGradient>
<linearGradient id="paint18_linear" x1="1283.1" y1="717.676" x2="1420.24" y2="1040.76" gradientUnits="userSpaceOnUse">
<stop stop-color="white" stop-opacity="0.92"/>
<stop offset="1" stop-color="white" stop-opacity="0"/>
</linearGradient>
<linearGradient id="paint19_linear" x1="908.792" y1="922.484" x2="1093.92" y2="1358.63" gradientUnits="userSpaceOnUse">
<stop stop-color="white" stop-opacity="0.92"/>
<stop offset="1" stop-color="white" stop-opacity="0"/>
</linearGradient>
<linearGradient id="paint20_linear" x1="337.796" y1="1132.16" x2="459.219" y2="1418.23" gradientUnits="userSpaceOnUse">
<stop stop-color="white" stop-opacity="0.92"/>
<stop offset="1" stop-color="white" stop-opacity="0"/>
</linearGradient>
<linearGradient id="paint21_linear" x1="550.88" y1="809.565" x2="623.883" y2="1267.1" gradientUnits="userSpaceOnUse">
<stop stop-color="white" stop-opacity="0.92"/>
<stop offset="1" stop-color="white" stop-opacity="0"/>
</linearGradient>
<linearGradient id="paint22_linear" x1="1234.44" y1="307.642" x2="1321.42" y2="512.557" gradientUnits="userSpaceOnUse">
<stop stop-color="white" stop-opacity="0.92"/>
<stop offset="1" stop-color="white" stop-opacity="0"/>
</linearGradient>
<linearGradient id="paint23_linear" x1="793.54" y1="689.24" x2="850.18" y2="1239.51" gradientUnits="userSpaceOnUse">
<stop stop-color="white" stop-opacity="0.92"/>
<stop offset="1" stop-color="white" stop-opacity="0"/>
</linearGradient>
<linearGradient id="paint24_linear" x1="1948.75" y1="871.927" x2="1842.34" y2="1122.62" gradientUnits="userSpaceOnUse">
<stop stop-color="white" stop-opacity="0.92"/>
<stop offset="1" stop-color="white" stop-opacity="0"/>
</linearGradient>
<linearGradient id="paint25_linear" x1="1833.54" y1="630.648" x2="1767.93" y2="785.214" gradientUnits="userSpaceOnUse">
<stop stop-color="white" stop-opacity="0.92"/>
<stop offset="1" stop-color="white" stop-opacity="0"/>
</linearGradient>
<linearGradient id="paint26_linear" x1="983.678" y1="389.105" x2="1037.15" y2="1239.27" gradientUnits="userSpaceOnUse">
<stop stop-color="white" stop-opacity="0.92"/>
<stop offset="1" stop-color="white" stop-opacity="0"/>
</linearGradient>
<linearGradient id="paint27_linear" x1="2175.19" y1="431.836" x2="2095.57" y2="619.421" gradientUnits="userSpaceOnUse">
<stop stop-color="white" stop-opacity="0.92"/>
<stop offset="1" stop-color="white" stop-opacity="0"/>
</linearGradient>
<linearGradient id="paint28_linear" x1="1952.4" y1="461.569" x2="1812.92" y2="790.175" gradientUnits="userSpaceOnUse">
<stop stop-color="white" stop-opacity="0.92"/>
<stop offset="1" stop-color="white" stop-opacity="0"/>
</linearGradient>
<linearGradient id="paint29_linear" x1="1997.27" y1="44.4852" x2="1857.79" y2="373.092" gradientUnits="userSpaceOnUse">
<stop stop-color="white" stop-opacity="0.92"/>
<stop offset="1" stop-color="white" stop-opacity="0"/>
</linearGradient>
<linearGradient id="paint30_linear" x1="2259.3" y1="211.712" x2="2119.82" y2="540.319" gradientUnits="userSpaceOnUse">
<stop stop-color="white" stop-opacity="0.92"/>
<stop offset="1" stop-color="white" stop-opacity="0"/>
</linearGradient>
<linearGradient id="paint31_linear" x1="1804.79" y1="132.472" x2="1718.47" y2="335.821" gradientUnits="userSpaceOnUse">
<stop stop-color="white" stop-opacity="0.92"/>
<stop offset="1" stop-color="white" stop-opacity="0"/>
</linearGradient>
<linearGradient id="paint32_linear" x1="2105.68" y1="457.605" x2="1985.81" y2="740.004" gradientUnits="userSpaceOnUse">
<stop stop-color="white" stop-opacity="0.92"/>
<stop offset="1" stop-color="white" stop-opacity="0"/>
</linearGradient>
<linearGradient id="paint33_linear" x1="2254.14" y1="749.163" x2="2146.27" y2="1003.29" gradientUnits="userSpaceOnUse">
<stop stop-color="white" stop-opacity="0.92"/>
<stop offset="1" stop-color="white" stop-opacity="0"/>
</linearGradient>
<linearGradient id="paint34_linear" x1="639.206" y1="1191.44" x2="757.186" y2="1469.39" gradientUnits="userSpaceOnUse">
<stop stop-color="white" stop-opacity="0.92"/>
<stop offset="1" stop-color="white" stop-opacity="0"/>
</linearGradient>
<linearGradient id="paint35_linear" x1="1861.53" y1="1067.35" x2="1849.88" y2="1666.41" gradientUnits="userSpaceOnUse">
<stop stop-color="white" stop-opacity="0.92"/>
<stop offset="1" stop-color="white" stop-opacity="0"/>
</linearGradient>
</defs>
</svg>
