<svg width="1907" height="1407" viewBox="0 0 1907 1407" fill="none" xmlns="http://www.w3.org/2000/svg">
<g clip-path="url(#clip0)">
<path opacity="0.1" d="M1906.99 546.199L1770.57 624.961L1770.57 467.437L1906.99 546.199Z" fill="black"/>
<path opacity="0.3" d="M1906.99 389.428L1770.57 468.19L1770.57 310.666L1906.99 389.428Z" fill="black"/>
<path opacity="0.1" d="M1771.78 624.584L1635.36 703.346L1635.36 545.822L1771.78 624.584Z" fill="black"/>
<path opacity="0.1" d="M1771.78 467.814L1635.36 546.576L1635.36 389.052L1771.78 467.814Z" fill="black"/>
<path opacity="0.1" d="M1906.99 232.659L1770.57 311.421L1770.57 153.897L1906.99 232.659Z" fill="black"/>
<path opacity="0.1" d="M1906.99 75.8909L1770.57 154.653L1770.57 -2.87115L1906.99 75.8909Z" fill="black"/>
<path opacity="0.1" d="M1771.78 311.044L1635.36 389.806L1635.36 232.282L1771.78 311.044Z" fill="black"/>
<path opacity="0.1" d="M1771.78 154.274L1635.36 233.036L1635.36 75.5122L1771.78 154.274Z" fill="black"/>
<path opacity="0.1" d="M1906.99 1173.28L1770.57 1252.04L1770.57 1094.52L1906.99 1173.28Z" fill="black"/>
<path opacity="0.3" d="M1906.99 1016.51L1770.57 1095.27L1770.57 937.746L1906.99 1016.51Z" fill="black"/>
<path opacity="0.1" d="M1771.78 1251.66L1635.36 1330.43L1635.36 1172.9L1771.78 1251.66Z" fill="black"/>
<path opacity="0.1" d="M1771.78 1094.89L1635.36 1173.66L1635.36 1016.13L1771.78 1094.89Z" fill="black"/>
<path opacity="0.1" d="M1906.99 859.739L1770.57 938.501L1770.57 780.977L1906.99 859.739Z" fill="black"/>
<path opacity="0.1" d="M1906.99 702.969L1770.57 781.731L1770.57 624.206L1906.99 702.969Z" fill="black"/>
<path opacity="0.1" d="M1771.78 938.124L1635.36 1016.89L1635.36 859.362L1771.78 938.124Z" fill="black"/>
<path opacity="0.1" d="M1771.78 781.354L1635.36 860.116L1635.36 702.592L1771.78 781.354Z" fill="black"/>
<path opacity="0.1" d="M1906.99 1330.05L1770.57 1408.81L1770.57 1251.29L1906.99 1330.05Z" fill="black"/>
<path opacity="0.1" d="M1771.78 1408.43L1635.36 1487.2L1635.36 1329.67L1771.78 1408.43Z" fill="black"/>
<path opacity="0.3" d="M1634.6 702.969L1498.18 781.731L1498.18 624.206L1634.6 702.969Z" fill="black"/>
<path opacity="0.1" d="M1634.6 546.198L1498.18 624.96L1498.18 467.436L1634.6 546.198Z" fill="black"/>
<path opacity="0.1" d="M1499.39 781.354L1362.97 860.116L1362.97 702.592L1499.39 781.354Z" fill="black"/>
<path opacity="0.1" d="M1499.39 624.584L1362.97 703.346L1362.97 545.822L1499.39 624.584Z" fill="black"/>
<path opacity="0.1" d="M1634.6 389.428L1498.18 468.19L1498.18 310.666L1634.6 389.428Z" fill="black"/>
<path opacity="0.1" d="M1634.6 232.657L1498.18 311.419L1498.18 153.895L1634.6 232.657Z" fill="black"/>
<path opacity="0.1" d="M1499.39 467.813L1362.97 546.575L1362.97 389.051L1499.39 467.813Z" fill="black"/>
<path opacity="0.1" d="M1499.39 311.044L1362.97 389.806L1362.97 232.282L1499.39 311.044Z" fill="black"/>
<path opacity="0.1" d="M1362.22 859.739L1225.8 938.501L1225.8 780.977L1362.22 859.739Z" fill="black"/>
<path opacity="0.1" d="M1227 938.123L1090.58 1016.89L1090.58 859.361L1227 938.123Z" fill="black"/>
<path opacity="0.3" d="M1227 781.354L1090.58 860.116L1090.58 702.592L1227 781.354Z" fill="black"/>
<path opacity="0.1" d="M1362.22 546.199L1225.8 624.961L1225.8 467.437L1362.22 546.199Z" fill="black"/>
<path opacity="0.1" d="M1227 624.584L1090.58 703.346L1090.58 545.822L1227 624.584Z" fill="black"/>
<path opacity="0.1" d="M1227 467.814L1090.58 546.576L1090.58 389.052L1227 467.814Z" fill="black"/>
<path opacity="0.1" d="M1634.6 75.8889L1498.18 154.651L1498.18 -2.8731L1634.6 75.8889Z" fill="black"/>
<path opacity="0.1" d="M1771.78 -2.49536L1635.36 76.2666L1635.36 -81.2574L1771.78 -2.49536Z" fill="black"/>
<path opacity="0.1" d="M1634.6 1330.05L1498.18 1408.81L1498.18 1251.29L1634.6 1330.05Z" fill="black"/>
<path opacity="0.3" d="M1634.6 1173.28L1498.18 1252.04L1498.18 1094.52L1634.6 1173.28Z" fill="black"/>
<path opacity="0.1" d="M1634.6 1016.51L1498.18 1095.27L1498.18 937.747L1634.6 1016.51Z" fill="black"/>
<path opacity="0.2" d="M1634.6 859.739L1498.18 938.501L1498.18 780.977L1634.6 859.739Z" fill="black" fill-opacity="0.52"/>
<path opacity="0.3" d="M1499.39 154.274L1362.97 233.036L1362.97 75.5117L1499.39 154.274Z" fill="black"/>
<path opacity="0.1" d="M1499.39 -2.49585L1362.97 76.2662L1362.97 -81.2579L1499.39 -2.49585Z" fill="black"/>
<path opacity="0.1" d="M1499.39 1408.43L1362.97 1487.2L1362.97 1329.67L1499.39 1408.43Z" fill="black"/>
<path opacity="0.1" d="M1499.39 1251.66L1362.97 1330.43L1362.97 1172.9L1499.39 1251.66Z" fill="black"/>
<path opacity="0.1" d="M1499.39 1094.89L1362.97 1173.66L1362.97 1016.13L1499.39 1094.89Z" fill="black"/>
<path opacity="0.1" d="M1499.39 938.124L1362.97 1016.89L1362.97 859.362L1499.39 938.124Z" fill="black"/>
<path opacity="0.1" d="M1362.22 232.659L1225.8 311.421L1225.8 153.897L1362.22 232.659Z" fill="black"/>
<path opacity="0.2" d="M1362.22 389.428L1225.8 468.19L1225.8 310.666L1362.22 389.428Z" fill="black" fill-opacity="0.52"/>
<path opacity="0.1" d="M1362.22 702.969L1225.8 781.731L1225.8 624.206L1362.22 702.969Z" fill="black"/>
<path opacity="0.1" d="M1362.22 75.8879L1225.8 154.65L1225.8 -2.87408L1362.22 75.8879Z" fill="black"/>
<path opacity="0.1" d="M1227 311.044L1090.58 389.806L1090.58 232.282L1227 311.044Z" fill="black"/>
<path opacity="0.1" d="M1227 154.274L1090.58 233.036L1090.58 75.5117L1227 154.274Z" fill="black"/>
<path opacity="0.1" d="M1227 1408.43L1090.58 1487.2L1090.58 1329.67L1227 1408.43Z" fill="black"/>
<path opacity="0.1" d="M1227 1251.66L1090.58 1330.43L1090.58 1172.9L1227 1251.66Z" fill="black"/>
<path opacity="0.1" d="M1227 1094.89L1090.58 1173.66L1090.58 1016.13L1227 1094.89Z" fill="black"/>
<path opacity="0.3" d="M1362.22 1330.05L1225.8 1408.81L1225.8 1251.29L1362.22 1330.05Z" fill="black"/>
<path opacity="0.1" d="M1362.22 1173.28L1225.8 1252.04L1225.8 1094.51L1362.22 1173.28Z" fill="black"/>
<path opacity="0.1" d="M1362.22 1016.51L1225.8 1095.27L1225.8 937.745L1362.22 1016.51Z" fill="black"/>
<path opacity="0.3" d="M1089.83 389.429L953.41 468.191L953.41 310.667L1089.83 389.429Z" fill="black"/>
<path opacity="0.1" d="M954.615 467.815L818.195 546.577L818.195 389.053L954.615 467.815Z" fill="black"/>
<path opacity="0.1" d="M954.615 311.044L818.195 389.806L818.195 232.282L954.615 311.044Z" fill="black"/>
<path opacity="0.3" d="M1089.83 702.969L953.409 781.731L953.409 624.206L1089.83 702.969Z" fill="black"/>
<path opacity="0.1" d="M954.615 781.354L818.195 860.116L818.195 702.592L954.615 781.354Z" fill="black"/>
<path opacity="0.1" d="M954.615 624.584L818.195 703.346L818.195 545.822L954.615 624.584Z" fill="black"/>
<path opacity="0.3" d="M1089.83 1016.51L953.409 1095.27L953.409 937.747L1089.83 1016.51Z" fill="black"/>
<path opacity="0.1" d="M954.615 1094.89L818.195 1173.66L818.195 1016.13L954.615 1094.89Z" fill="black"/>
<path opacity="0.2" d="M954.615 938.124L818.195 1016.89L818.195 859.362L954.615 938.124Z" fill="black" fill-opacity="0.52"/>
<path opacity="0.1" d="M1089.83 1330.05L953.409 1408.81L953.409 1251.29L1089.83 1330.05Z" fill="black"/>
<path opacity="0.1" d="M1089.83 546.2L953.409 624.962L953.409 467.438L1089.83 546.2Z" fill="black"/>
<path opacity="0.1" d="M1089.83 859.74L953.409 938.502L953.409 780.977L1089.83 859.74Z" fill="black"/>
<path opacity="0.1" d="M1089.83 1173.28L953.409 1252.04L953.409 1094.52L1089.83 1173.28Z" fill="black"/>
<path opacity="0.1" d="M954.615 1408.43L818.195 1487.2L818.195 1329.67L954.615 1408.43Z" fill="black"/>
<path opacity="0.1" d="M954.615 1251.66L818.195 1330.43L818.195 1172.9L954.615 1251.66Z" fill="black"/>
<path opacity="0.1" d="M817.441 546.199L681.021 624.961L681.021 467.437L817.441 546.199Z" fill="black"/>
<path opacity="0.3" d="M817.442 389.428L681.023 468.19L681.023 310.666L817.442 389.428Z" fill="black"/>
<path opacity="0.1" d="M682.228 624.584L545.808 703.346L545.808 545.822L682.228 624.584Z" fill="black"/>
<path opacity="0.1" d="M682.228 467.814L545.808 546.576L545.808 389.052L682.228 467.814Z" fill="black"/>
<path opacity="0.1" d="M817.441 232.659L681.021 311.421L681.021 153.897L817.441 232.659Z" fill="black"/>
<path opacity="0.1" d="M682.228 311.044L545.808 389.806L545.808 232.282L682.228 311.044Z" fill="black"/>
<path opacity="0.1" d="M682.228 154.274L545.808 233.036L545.808 75.5122L682.228 154.274Z" fill="black"/>
<path opacity="0.1" d="M817.442 1173.28L681.023 1252.04L681.023 1094.52L817.442 1173.28Z" fill="black"/>
<path opacity="0.1" d="M817.441 1016.51L681.021 1095.27L681.021 937.746L817.441 1016.51Z" fill="black"/>
<path opacity="0.1" d="M682.228 1251.66L545.808 1330.43L545.808 1172.9L682.228 1251.66Z" fill="black"/>
<path opacity="0.1" d="M682.228 1094.89L545.808 1173.66L545.808 1016.13L682.228 1094.89Z" fill="black"/>
<path opacity="0.1" d="M817.441 859.739L681.021 938.501L681.021 780.977L817.441 859.739Z" fill="black"/>
<path opacity="0.1" d="M817.441 702.969L681.021 781.731L681.021 624.206L817.441 702.969Z" fill="black"/>
<path opacity="0.1" d="M954.615 -2.49585L818.195 76.2662L818.195 -81.2579L954.615 -2.49585Z" fill="black"/>
<path opacity="0.1" d="M1089.83 232.658L953.41 311.42L953.41 153.896L1089.83 232.658Z" fill="black"/>
<path opacity="0.1" d="M954.615 154.273L818.195 233.035L818.195 75.5112L954.615 154.273Z" fill="black"/>
<path opacity="0.1" d="M1089.83 75.8889L953.41 154.651L953.41 -2.8731L1089.83 75.8889Z" fill="black"/>
<path opacity="0.1" d="M817.442 75.8884L681.023 154.65L681.023 -2.87359L817.442 75.8884Z" fill="black"/>
<path opacity="0.1" d="M682.228 938.124L545.808 1016.89L545.808 859.362L682.228 938.124Z" fill="black"/>
<path opacity="0.1" d="M682.228 781.354L545.808 860.116L545.808 702.592L682.228 781.354Z" fill="black"/>
<path opacity="0.3" d="M817.442 1330.05L681.023 1408.81L681.023 1251.29L817.442 1330.05Z" fill="black"/>
<path opacity="0.1" d="M682.228 1408.43L545.808 1487.2L545.808 1329.67L682.228 1408.43Z" fill="black"/>
<path opacity="0.1" d="M545.055 702.969L408.635 781.731L408.635 624.206L545.055 702.969Z" fill="black"/>
<path opacity="0.1" d="M545.055 546.198L408.635 624.96L408.635 467.436L545.055 546.198Z" fill="black"/>
<path opacity="0.1" d="M409.84 781.354L273.42 860.116L273.42 702.592L409.84 781.354Z" fill="black"/>
<path opacity="0.3" d="M409.84 624.584L273.42 703.346L273.42 545.822L409.84 624.584Z" fill="black"/>
<path opacity="0.1" d="M545.055 389.428L408.635 468.19L408.635 310.666L545.055 389.428Z" fill="black"/>
<path opacity="0.1" d="M545.055 232.657L408.635 311.419L408.635 153.895L545.055 232.657Z" fill="black"/>
<path opacity="0.1" d="M409.84 467.813L273.42 546.575L273.42 389.051L409.84 467.813Z" fill="black"/>
<path opacity="0.1" d="M409.84 311.043L273.42 389.805L273.42 232.281L409.84 311.043Z" fill="black"/>
<path opacity="0.1" d="M272.666 859.739L136.247 938.501L136.247 780.977L272.666 859.739Z" fill="black"/>
<path opacity="0.1" d="M137.453 938.123L1.03283 1016.89L1.03284 859.361L137.453 938.123Z" fill="black"/>
<path opacity="0.1" d="M137.453 781.354L1.03283 860.116L1.03284 702.592L137.453 781.354Z" fill="black"/>
<path opacity="0.1" d="M272.666 546.199L136.247 624.961L136.247 467.437L272.666 546.199Z" fill="black"/>
<path opacity="0.1" d="M137.452 624.584L1.03234 703.346L1.03235 545.822L137.452 624.584Z" fill="black"/>
<path opacity="0.1" d="M137.452 467.814L1.03234 546.576L1.03235 389.052L137.452 467.814Z" fill="black"/>
<path opacity="0.1" d="M545.055 75.8884L408.635 154.65L408.635 -2.87359L545.055 75.8884Z" fill="black"/>
<path opacity="0.1" d="M545.055 1330.05L408.635 1408.81L408.635 1251.29L545.055 1330.05Z" fill="black"/>
<path opacity="0.1" d="M545.055 1173.28L408.635 1252.04L408.635 1094.52L545.055 1173.28Z" fill="black"/>
<path opacity="0.3" d="M545.055 1016.51L408.635 1095.27L408.635 937.747L545.055 1016.51Z" fill="black"/>
<path opacity="0.1" d="M545.055 859.739L408.635 938.501L408.635 780.977L545.055 859.739Z" fill="black"/>
<path opacity="0.1" d="M409.84 154.274L273.42 233.036L273.42 75.5117L409.84 154.274Z" fill="black"/>
<path opacity="0.1" d="M409.84 1408.43L273.42 1487.19L273.42 1329.67L409.84 1408.43Z" fill="black"/>
<path opacity="0.3" d="M409.84 1251.66L273.42 1330.43L273.42 1172.9L409.84 1251.66Z" fill="black"/>
<path opacity="0.1" d="M409.84 1094.89L273.42 1173.66L273.42 1016.13L409.84 1094.89Z" fill="black"/>
<path opacity="0.1" d="M409.84 938.123L273.42 1016.89L273.42 859.361L409.84 938.123Z" fill="black"/>
<path opacity="0.1" d="M272.667 232.659L136.247 311.421L136.247 153.897L272.667 232.659Z" fill="black"/>
<path opacity="0.4" d="M272.667 389.428L136.247 468.19L136.247 310.666L272.667 389.428Z" fill="black" fill-opacity="0.52"/>
<path opacity="0.1" d="M272.666 702.969L136.247 781.731L136.247 624.206L272.666 702.969Z" fill="black"/>
<path opacity="0.1" d="M272.667 75.8879L136.247 154.65L136.247 -2.87408L272.667 75.8879Z" fill="black"/>
<path opacity="0.1" d="M137.453 311.043L1.03283 389.805L1.03284 232.281L137.453 311.043Z" fill="black"/>
<path opacity="0.1" d="M137.453 154.274L1.03283 233.036L1.03284 75.5117L137.453 154.274Z" fill="black"/>
<path opacity="0.1" d="M682.228 -0.200928L545.808 78.5611L545.808 -78.9629L682.228 -0.200928Z" fill="black"/>
<path opacity="0.1" d="M545.055 -78.5862L408.635 0.175821L408.635 -157.348L545.055 -78.5862Z" fill="black"/>
<path opacity="0.1" d="M409.84 -0.201416L273.42 78.5606L273.42 -78.9634L409.84 -0.201416Z" fill="black"/>
<path opacity="0.1" d="M137.453 -0.200928L1.03283 78.5611L1.03284 -78.9629L137.453 -0.200928Z" fill="black"/>
<path opacity="0.1" d="M272.667 -78.5867L136.247 0.175333L136.247 -157.349L272.667 -78.5867Z" fill="black"/>
<path opacity="0.1" d="M137.453 1408.43L1.03283 1487.2L1.03284 1329.67L137.453 1408.43Z" fill="black"/>
<path opacity="0.1" d="M137.453 1251.66L1.03283 1330.43L1.03284 1172.9L137.453 1251.66Z" fill="black"/>
<path opacity="0.1" d="M137.453 1094.89L1.03283 1173.66L1.03284 1016.13L137.453 1094.89Z" fill="black"/>
<path opacity="0.1" d="M272.667 1330.05L136.247 1408.81L136.247 1251.29L272.667 1330.05Z" fill="black"/>
<path opacity="0.1" d="M272.666 1173.28L136.247 1252.04L136.247 1094.51L272.666 1173.28Z" fill="black"/>
<path opacity="0.1" d="M272.666 1016.51L136.247 1095.27L136.247 937.746L272.666 1016.51Z" fill="black"/>
<path opacity="0.1" d="M1227 -2.49585L1090.58 76.2662L1090.58 -81.2579L1227 -2.49585Z" fill="black"/>
</g>
<defs>
<clipPath id="clip0">
<rect width="1907" height="1407" fill="white"/>
</clipPath>
</defs>
</svg>
