<svg xmlns="http://www.w3.org/2000/svg" viewBox="0 0 42 42"><g fill="#FFF"><path d="M2.01 21.32a14 14 0 1 0 28 0h1a15 15 0 0 1-30 0h1z"/><path d="M21.01 2.32a14 14 0 1 0 0 28v1a15 15 0 0 1 0-30v1zm0 10v-1a15 15 0 0 1 0 30v-1a14 14 0 1 0 0-28z"/><path d="M40.01 21.32a14 14 0 1 0-28 0h-1a15 15 0 0 1 30 0h-1z"/><path d="M21.01 31.32a10 10 0 1 1 0-20 10 10 0 0 1 0 20zm0-1a9 9 0 1 0 0-18 9 9 0 0 0 0 18z"/><path d="M21.01 41.32a20 20 0 1 1 0-40 20 20 0 0 1 0 40zm0-1a19 19 0 1 0 0-38 19 19 0 0 0 0 38z"/></g></svg>