<svg xmlns="http://www.w3.org/2000/svg" width="42" height="42" viewBox="0 0 42 42">
  <g transform="translate(1 1)">
    <path d="M1,20 C1,27.7319865 7.2680135,34 15,34 C22.7319865,34 29,27.7319865 29,20 L30,20 C30,28.2842712 23.2842712,35 15,35 C6.71572875,35 0,28.2842712 0,20 L1,20 Z"/>
    <path d="M20 1C12.2680135 1 6 7.2680135 6 15 6 22.7319865 12.2680135 29 20 29L20 30C11.7157288 30 5 23.2842712 5 15 5 6.71572875 11.7157288 0 20 0L20 1zM20 11L20 10C28.2842712 10 35 16.7157288 35 25 35 33.2842712 28.2842712 40 20 40L20 39C27.7319865 39 34 32.7319865 34 25 34 17.2680135 27.7319865 11 20 11z"/>
    <path d="M39,20 C39,12.2680135 32.7319865,6 25,6 C17.2680135,6 11,12.2680135 11,20 L10,20 C10,11.7157288 16.7157288,5 25,5 C33.2842712,5 40,11.7157288 40,20 L39,20 Z"/>
    <path d="M20,30 C14.4771525,30 10,25.5228475 10,20 C10,14.4771525 14.4771525,10 20,10 C25.5228475,10 30,14.4771525 30,20 C30,25.5228475 25.5228475,30 20,30 Z M20,29 C24.9705627,29 29,24.9705627 29,20 C29,15.0294373 24.9705627,11 20,11 C15.0294373,11 11,15.0294373 11,20 C11,24.9705627 15.0294373,29 20,29 Z"/>
    <path d="M20,40 C8.954305,40 0,31.045695 0,20 C0,8.954305 8.954305,0 20,0 C31.045695,0 40,8.954305 40,20 C40,31.045695 31.045695,40 20,40 Z M20,39 C30.4934102,39 39,30.4934102 39,20 C39,9.50658975 30.4934102,1 20,1 C9.50658975,1 1,9.50658975 1,20 C1,30.4934102 9.50658975,39 20,39 Z"/>
  </g>
</svg>
