<svg xmlns="http://www.w3.org/2000/svg" viewBox="0 0 42 42"><g fill="#FFF"><path d="M20.94 34.98v5h-6l-4-2v-3h5v-5h5v5zm-5-15v-10h20v5h-5v5h-10v5h-5v-5zm-14 0h4v5h-4v-5zm4-10h5v5h-5v-5zm20 15h5v10h-5v-10zm-15 0h5v5h-5v-5z" opacity=".05"/><path d="M10.94 14.98h5v10h-5v-10zm-1-10h1v5h-5v-1l4-4zm1 25h5v5h-5v-5zm20 0h5v4l-1 1h-4v-5zm-10 5h5v5h-5v-5zm0-20h5v5h-5v-5z" opacity=".17"/><path d="M25.94 9.98h5v5h-10v-14l5 1v8zm11 0l2.5 5h-3.5v-5h1zm-1 10v5h-5v-5h5zm-25-10v5h-5v-5h5zm-5 5v5h-4v-5h4zm5 5v5h-5v-5h5zm-5 5v8l-3-4-1-4h4zm15 5v5h-5v-5h5z" opacity=".31"/><path d="M20.94 40.98a20 20 0 1 1 0-40 20 20 0 0 1 0 40zm0-1a19 19 0 1 0 0-38 19 19 0 0 0 0 38z"/><path d="M20.2 22.8v.21c.01.26.07.46.1.7.06.52.12.95.08 1.34a.8.8 0 0 1-.24.38l-.01.32a9.6 9.6 0 0 0-6.16 2.96l-.27-.2c-.13.02-.26.07-.43-.04-.34-.22-.64-.53-1-.9-.17-.17-.29-.34-.49-.51-.04-.04-.1-.1-.16-.13a.88.88 0 0 0-.51-.2.71.71 0 0 0-.6.26c-.25.32-.16.81.19 1.1l.16.12c.21.16.4.24.62.36.44.27.8.5 1.1.77.1.12.13.34.14.43l.24.21a9.55 9.55 0 0 0-1.5 6.66l-.32.09c-.08.1-.2.27-.31.32-.14.04-.89-.24-.9-.07 0 .33.89 1.19 1.14 1.15.17-.01.34.1.43.15l.32-.06c.37 1.15 4.75 2.77 9.12 2.76 4.4 0 8.78-1.66 9.14-2.77l.31.05c.11-.07.21-.16.41-.15.4.06 1.03-.92.78-.96a3.78 3.78 0 0 1-.53-.12c-.15-.06-.26-.24-.32-.32l-.3-.09a9.53 9.53 0 0 0-1.53-6.64l.26-.23c.01-.14 0-.27.14-.42.29-.27.65-.5 1.1-.77.2-.13.4-.2.61-.36l.16-.13c.36-.28.44-.77.18-1.09-.25-.32-.74-.35-1.1-.07l-.16.14c-.2.17-.32.33-.49.51-.36.37-.66.68-1 .9-.14.08-.35.06-.44.05l-.28.2a9.67 9.67 0 0 0-6.13-2.96l-.02-.33c-.1-.1-.2-.17-.24-.37-.03-.4.02-.82.09-1.34.03-.24.09-.44.1-.7v-.2c0-.46-.33-.83-.74-.83-.4 0-.74.37-.74.82zm-.19 4.9l-.22 3.88h-.01a.65.65 0 0 1-1.03.5l-3.18-2.24A7.6 7.6 0 0 1 20 27.7zm1.85 0c1.68.21 3.24.97 4.43 2.14l-3.16 2.23c-.29.2-.68.15-.9-.12a.65.65 0 0 1-.14-.38l-.23-3.86zm-7.45 3.58l2.9 2.6v.01a.65.65 0 0 1-.26 1.12l-3.71 1.08a7.6 7.6 0 0 1 1.07-4.8zm13.98 2.33c.2.83.24 1.67.16 2.47l-3.73-1.07v-.02a.65.65 0 0 1-.26-1.12l2.88-2.59c.43.7.76 1.48.95 2.33zm-8.05.47h1.2l.73.92-.27 1.15-1.06.51-1.07-.51L19.6 35l.74-.92zm3.96 3.16l3.85.64c-.1.3-.3.73-.6 1.3l-3.15.94-.82-1.97a.66.66 0 0 1 .57-.92l.15.01zm-5.98.51c.03.14.02.28-.04.4l.02.02-.76 1.83-3.2-.84a11 11 0 0 1-.59-1.26l3.81-.65h.14c.29 0 .55.2.62.5zm2.6 1.06c.1 0 .2.02.3.07.13.06.23.16.3.27l.63 1.15-2.5.15.71-1.3a.66.66 0 0 1 .55-.34z"/></g></svg>