<svg xmlns="http://www.w3.org/2000/svg" viewBox="0 0 42 42"><path d="M21 35v5h-6l-4-2v-3h5v-5h5v5zm-5-15V10h20v5h-5v5H21v5h-5v-5zM2 20h4v5H2v-5zm4-10h5v5H6v-5zm20 15h5v10h-5V25zm-15 0h5v5h-5v-5z" opacity=".1"/><path d="M11 15h5v10h-5V15zM10 5h1v5H6V9l4-4zm1 25h5v5h-5v-5zm20 0h5v4l-1 1h-4v-5zm-10 5h5v5h-5v-5zm0-20h5v5h-5v-5z" opacity=".22"/><path d="M26 10h5v5H21V1l5 1v8zm11 0l2.5 5H36v-5h1zm-1 10v5h-5v-5h5zM11 10v5H6v-5h5zm-5 5v5H2v-5h4zm5 5v5H6v-5h5zm-5 5v8l-3-4-1-4h4zm15 5v5h-5v-5h5z" opacity=".27"/><path d="M21 41a20 20 0 1 1 0-40 20 20 0 0 1 0 40zm0-1a19 19 0 1 0 0-38 19 19 0 0 0 0 38z"/><path d="M20.26 22.82v.21c.01.26.07.46.1.7.06.52.12.94.08 1.34a.8.8 0 0 1-.24.38l-.01.31a9.6 9.6 0 0 0-6.16 2.96l-.27-.19c-.13.02-.26.06-.43-.04-.33-.22-.63-.53-1-.9-.17-.17-.29-.34-.48-.51l-.17-.13a.88.88 0 0 0-.51-.2.71.71 0 0 0-.6.26c-.24.32-.16.8.2 1.1l.15.12c.21.16.4.24.62.36.44.27.8.5 1.1.77.1.12.13.33.14.43l.24.2a9.55 9.55 0 0 0-1.5 6.67l-.32.09c-.08.1-.2.27-.31.32-.13.04-.89-.24-.89-.07 0 .33.88 1.18 1.13 1.15.17-.02.34.1.43.15l.32-.06c.37 1.15 4.75 2.77 9.12 2.76 4.4-.01 8.78-1.66 9.14-2.77l.31.05c.11-.07.22-.17.42-.15.39.06 1.02-.92.78-.96a3.78 3.78 0 0 1-.54-.12c-.15-.06-.26-.25-.32-.32l-.3-.09A9.53 9.53 0 0 0 28.97 30l.26-.24c.01-.13 0-.27.14-.41.29-.28.66-.5 1.1-.77.2-.13.4-.2.61-.36l.16-.13c.36-.29.44-.77.18-1.1-.25-.31-.74-.34-1.1-.06l-.16.13c-.2.17-.32.34-.49.52-.36.37-.66.68-1 .9-.14.08-.35.05-.44.05l-.28.2a9.67 9.67 0 0 0-6.13-2.96l-.01-.33c-.1-.1-.22-.17-.25-.37-.03-.4.03-.82.09-1.34.03-.24.09-.44.1-.7v-.21c0-.45-.33-.82-.74-.82-.4 0-.74.37-.74.82zm-.18 4.9l-.22 3.88h-.02a.65.65 0 0 1-1.03.5l-3.18-2.25a7.6 7.6 0 0 1 4.45-2.13zm1.84 0c1.68.21 3.24.97 4.43 2.14l-3.16 2.23c-.29.2-.68.15-.9-.12a.65.65 0 0 1-.14-.38l-.23-3.87zm-7.44 3.58l2.9 2.6a.65.65 0 0 1-.26 1.13L13.4 36.1a7.6 7.6 0 0 1 1.08-4.81zm13.97 2.32c.2.84.24 1.67.16 2.48l-3.73-1.08v-.01a.65.65 0 0 1-.26-1.12l2.88-2.59c.43.7.76 1.48.95 2.32zm-8.05.47h1.2l.73.93-.26 1.15-1.07.5-1.07-.5-.26-1.16.73-.92zm3.96 3.17l3.85.64c-.1.3-.3.73-.6 1.3l-3.15.94-.82-1.98a.66.66 0 0 1 .57-.91l.15.01zm-5.98.51c.03.14.02.28-.03.4v.02l-.75 1.83-3.2-.84a11 11 0 0 1-.59-1.26l3.81-.65h.14c.29 0 .55.2.62.5zm2.6 1.06c.1 0 .2.02.3.06.13.07.23.16.3.28l.63 1.14-2.5.16.71-1.3a.66.66 0 0 1 .56-.34z"/></svg>