<svg xmlns="http://www.w3.org/2000/svg" width="42" height="42" viewBox="0 0 42 42">
  <g fill="#FFF" transform="translate(.939 .982)">
    <path d="M20,34 L20,39 L14,39 L10,37 L10,34 L15,34 L15,29 L20,29 L20,34 Z M15,19 L15,9 L30,9 L35,9 L35,14 L30,14 L30,19 L20,19 L20,24 L15,24 L15,19 Z M1,19 L5,19 L5,24 L1,24 L1,19 Z M5,9 L10,9 L10,14 L5,14 L5,9 Z M25,24 L30,24 L30,34 L25,34 L25,24 Z M10,24 L15,24 L15,29 L10,29 L10,24 Z" opacity=".051"/>
    <path d="M10,14 L15,14 L15,24 L10,24 L10,14 Z M9,4 L10,4 L10,9 L5,9 L5,8 L9,4 Z M10,29 L15,29 L15,34 L10,34 L10,29 Z M30,29 L35,29 L35,33 L34,34 L30,34 L30,29 Z M20,34 L25,34 L25,39 L20,39 L20,34 Z M20,14 L25,14 L25,19 L20,19 L20,14 Z" opacity=".17"/>
    <path d="M11.75,11.75 L11.75,6.75 L16.75,6.75 L16.75,11.75 L16.75,16.75 L11.75,16.75 L6.75,16.75 L2.75,16.75 L3.75,11.75 L6.75,11.75 L11.75,11.75 Z M11.75,0.75 L16.75,-1.75 L16.75,1.75 L11.75,1.75 L11.75,0.75 Z M21.75,1.75 L26.75,1.75 L26.75,6.75 L21.75,6.75 L21.75,1.75 Z M11.75,26.75 L16.75,26.75 L16.75,31.75 L11.75,31.75 L11.75,26.75 Z M16.75,31.75 L21.75,31.75 L21.75,35.75 L16.75,35.75 L16.75,31.75 Z M21.75,26.75 L26.75,26.75 L26.75,31.75 L21.75,31.75 L21.75,26.75 Z M26.75,31.75 L34.75,31.75 L30.75,34.75 L26.75,35.75 L26.75,31.75 Z M31.75,16.75 L36.75,16.75 L36.75,21.75 L31.75,21.75 L31.75,16.75 Z" opacity=".311" transform="rotate(90 19.75 17)"/>
    <path d="M20,40 C8.954305,40 0,31.045695 0,20 C0,8.954305 8.954305,0 20,0 C31.045695,0 40,8.954305 40,20 C40,31.045695 31.045695,40 20,40 Z M20,39 C30.4934102,39 39,30.4934102 39,20 C39,9.50658975 30.4934102,1 20,1 C9.50658975,1 1,9.50658975 1,20 C1,30.4934102 9.50658975,39 20,39 Z"/>
    <path d="M19.2612532,21.8199735 C19.2622271,21.9020016 19.259255,21.9761272 19.2612532,22.0296975 C19.2709728,22.290878 19.3279057,22.4907744 19.362173,22.7314056 C19.4242528,23.2464327 19.4762714,23.6733589 19.4441704,24.07017 C19.4129513,24.2198038 19.3027373,24.3566516 19.2044858,24.4517731 L19.1871402,24.7639938 C18.7442627,24.8006867 18.2984226,24.8678776 17.8531064,24.9689871 C15.9369111,25.4040616 14.2871007,26.3911023 13.0310314,27.7237827 C12.9495276,27.6681795 12.8069375,27.5658866 12.7645375,27.5345581 C12.6327781,27.5523513 12.4996124,27.5930053 12.3261671,27.4919825 C11.9959115,27.2696749 11.695122,26.962813 11.3311608,26.5931654 C11.1643918,26.4163443 11.0436241,26.2479687 10.8454841,26.0775282 C10.800488,26.038822 10.7318192,25.9864708 10.6814894,25.9466479 C10.5265836,25.8231437 10.3438773,25.7587342 10.1674291,25.7526926 C9.94056693,25.7449248 9.72217392,25.8336227 9.57925582,26.0128765 C9.32517959,26.33155 9.4065255,26.8186228 9.76059612,27.1009183 C9.82028867,27.1482431 9.8798687,27.1987792 9.92459082,27.2317986 C10.1348507,27.3870411 10.3269178,27.4665104 10.5364172,27.5897486 C10.97779,27.8623235 11.3436935,28.0883359 11.6339202,28.3608391 C11.7472542,28.4816487 11.7670627,28.6945264 11.7821462,28.7865946 L12.018677,28.9978954 C10.7524653,30.9034472 10.1664522,33.257189 10.5127666,35.6554495 L10.2036997,35.7453313 C10.1222423,35.8505205 10.0071377,36.0160355 9.88674589,36.0654363 C9.75540119,36.1068063 9.00337493,35.8251401 9,36 C8.99361801,36.3306599 9.87659688,37.1844624 10.1343148,37.1471731 C10.2988737,37.1342846 10.4722504,37.2487065 10.5584934,37.296976 L10.8801753,37.2417854 C11.2494086,38.3865409 15.6265003,40.0098855 19.9992319,40 C24.3931553,39.9900666 28.7827725,38.3414423 29.1371983,37.2275986 C29.2326886,37.2426064 29.3986583,37.271971 29.4525727,37.2827891 C29.5635613,37.209587 29.6656114,37.1140754 29.8657132,37.1298326 C30.2597203,37.1868205 30.8861014,36.2083064 30.6455039,36.1692978 C30.4565582,36.1386636 30.2803133,36.1006938 30.1132821,36.0480932 C29.958458,35.9880318 29.8483156,35.8038047 29.7947514,35.7279882 L29.4967226,35.6412602 C29.651244,34.5233502 29.6095787,33.3599002 29.3421891,32.1957946 C29.0723099,31.0208503 28.5953638,29.9462495 27.9592723,28.9994748 C28.0357216,28.9299769 28.1800944,28.8021307 28.2210331,28.7645209 C28.2330001,28.6321055 28.2227184,28.4932721 28.3597978,28.3466498 C28.6500099,28.0741314 29.0159426,27.8481573 29.4573008,27.5755593 C29.6667937,27.45231 29.8604523,27.3728628 30.0707041,27.2176093 C30.1182499,27.1825013 30.1831741,27.1269031 30.2331219,27.0867289 C30.5871173,26.8043386 30.6686202,26.3172951 30.4144622,25.9986872 C30.1603042,25.6800793 29.6678009,25.6500682 29.3138054,25.9324585 C29.2634182,25.9723648 29.1950465,26.0244227 29.1498107,26.0633389 C28.9516799,26.2337905 28.8293172,26.4021464 28.6625573,26.5789761 C28.2986157,26.9486429 27.9977949,27.2570447 27.6675509,27.4793701 C27.5244461,27.5626824 27.3148382,27.5338557 27.2197167,27.5282531 L26.9390335,27.7285159 C25.3385058,26.0501906 23.1593512,24.9771662 20.8128954,24.7687244 C20.8063326,24.6703922 20.7977347,24.4926496 20.7955498,24.4391581 C20.6994887,24.3472378 20.5834456,24.2687621 20.5542883,24.07017 C20.5221873,23.6733589 20.5757828,23.2464327 20.6378626,22.7314056 C20.6721299,22.4907744 20.7290628,22.290878 20.7387824,22.0296975 C20.7409925,21.9703249 20.7374452,21.8841706 20.737208,21.8199735 C20.7371596,21.3671417 20.4067945,20.9999586 19.9992319,21 C19.5916667,21.0000414 19.2612048,21.3671417 19.2612532,21.8199735 Z M19.0751823,26.7240458 L18.8559971,30.5952669 L18.8402283,30.6031513 C18.8255274,30.9494753 18.5404985,31.2260157 18.190557,31.2260157 C18.04721,31.2260157 17.9148976,31.1799817 17.8073771,31.1014428 L14.626826,28.8544001 C15.6024002,27.8950992 16.8502364,27.1861758 18.2883231,26.8596568 C18.5510169,26.8000117 18.8135936,26.7557548 19.0751823,26.7240458 Z M20.9248533,26.7240458 C22.6038295,26.9305439 24.1565586,27.6907981 25.3464027,28.8559769 L22.1926585,31.0919816 C21.9016966,31.2917014 21.5073029,31.2409741 21.2891108,30.9674112 C21.1997301,30.8553418 21.1528327,30.7235693 21.1471923,30.5905388 L20.9248533,26.7240458 Z M13.4757094,30.3003918 L16.3740003,32.8927696 L16.3708466,32.9085383 C16.6324494,33.1359596 16.6710265,33.530605 16.4528439,33.8042017 C16.3634694,33.9162756 16.243835,33.9914453 16.1153933,34.0265406 L12.3971288,35.1114287 C12.2080414,33.3824113 12.6155471,31.701669 13.4757094,30.3003918 Z M27.4531039,32.6246988 C27.644905,33.4597235 27.6930403,34.2932551 27.6139449,35.0988112 L23.8799117,34.0233844 L23.8767579,34.0076156 C23.5423853,33.9162307 23.3368909,33.5761017 23.4147344,33.2349483 C23.4466266,33.0951935 23.5208122,32.976965 23.6213046,32.8896133 L26.5022525,30.3019662 C26.9328799,30.9999559 27.2589745,31.7795402 27.4531039,32.6246988 Z M19.4047486,33.0930298 L20.5921333,33.0930298 L21.3301094,34.0155 L21.0651949,35.1666167 L19.9992294,35.6791001 L18.9301101,35.1650398 L18.6651955,34.0139231 L19.4047486,33.0930298 Z M23.3611207,36.2609659 L27.2102656,36.9027529 C27.1037004,37.202146 26.903512,37.6323234 26.6097005,38.1932848 L23.4592165,39.1382837 L22.642067,37.1645136 C22.5097657,36.8398046 22.6468961,36.466423 22.9621696,36.3145796 C23.0428878,36.2757048 23.1272184,36.2541786 23.2113154,36.2499278 C23.2617763,36.2473796 23.3120147,36.251926 23.3611207,36.2609659 Z M17.3816216,36.7718725 C17.4135219,36.9116252 17.3979959,37.0500958 17.3453536,37.172398 L17.3563917,37.1865899 L16.5996973,39.0152678 L13.4047504,38.1778827 C13.1175692,37.6323553 12.9204601,37.2115179 12.8134231,36.9153704 L16.6231461,36.2688528 C16.6720675,36.2688952 16.7152859,36.2651112 16.7571803,36.2656991 C17.0504401,36.269809 17.3134816,36.4733517 17.3816216,36.7718725 Z M19.9755763,37.8283793 C20.0777298,37.8246251 20.1813846,37.8455852 20.2799126,37.8930311 C20.4090652,37.9552244 20.5088356,38.05315 20.5716339,38.1705606 L21.2091952,39.3139204 L18.7065347,39.4659269 L19.4220942,38.1721375 C19.5376559,37.9620017 19.7508389,37.8366361 19.9755763,37.8283793 Z"/>
  </g>
</svg>
