<svg xmlns="http://www.w3.org/2000/svg" width="42" height="42" viewBox="0 0 42 42">
  <path fill="#FFF" d="M12.5212454,28.3467598 L20.8457119,20.0222933 L29.1775281,28.3500855 C29.4291965,28.2358871 29.7087073,28.1722933 30.0030712,28.1722933 C31.1076407,28.1722933 32.0030712,29.0677238 32.0030712,30.1722933 C32.0030712,31.2768628 31.1076407,32.1722933 30.0030712,32.1722933 C28.8985017,32.1722933 28.0030712,31.2768628 28.0030712,30.1722933 C28.0030712,29.7521839 28.1326012,29.362328 28.3539026,29.040484 L20.8480712,21.5346526 L13.3481561,29.0345677 C13.5719469,29.3575452 13.7030712,29.7496064 13.7030712,30.1722933 C13.7030712,31.2768628 12.8076407,32.1722933 11.7030712,32.1722933 C10.5985017,32.1722933 9.70307121,31.2768628 9.70307121,30.1722933 C9.70307121,29.0677238 10.5985017,28.1722933 11.7030712,28.1722933 C11.9945652,28.1722933 12.2714942,28.2346531 12.5212454,28.3467598 Z M20.8480712,8.53465259 L9.49815608,19.8845677 C9.72194686,20.2075452 9.85307121,20.5996064 9.85307121,21.0222933 C9.85307121,22.1268628 8.95764071,23.0222933 7.85307121,23.0222933 C6.74850171,23.0222933 5.85307121,22.1268628 5.85307121,21.0222933 C5.85307121,19.9177238 6.74850171,19.0222933 7.85307121,19.0222933 C8.14456518,19.0222933 8.42149424,19.0846531 8.67124538,19.1967598 L20.8457119,7.02229328 L20.8480712,7.02465259 L20.8504305,7.02229328 L33.028006,19.1998687 C33.2795503,19.0858066 33.5588936,19.0222933 33.8530712,19.0222933 C34.9576407,19.0222933 35.8530712,19.9177238 35.8530712,21.0222933 C35.8530712,22.1268628 34.9576407,23.0222933 33.8530712,23.0222933 C32.7485017,23.0222933 31.8530712,22.1268628 31.8530712,21.0222933 C31.8530712,20.6021839 31.9826012,20.212328 32.2039026,19.890484 L20.8480712,8.53465259 Z M20.8530712,41.0222933 C9.80737621,41.0222933 0.853071208,32.0679883 0.853071208,21.0222933 C0.853071208,9.97659828 9.80737621,1.02229328 20.8530712,1.02229328 C31.8987662,1.02229328 40.8530712,9.97659828 40.8530712,21.0222933 C40.8530712,32.0679883 31.8987662,41.0222933 20.8530712,41.0222933 Z M20.8530712,40.0222933 C31.3464815,40.0222933 39.8530712,31.5157035 39.8530712,21.0222933 C39.8530712,10.528883 31.3464815,2.02229328 20.8530712,2.02229328 C10.359661,2.02229328 1.85307121,10.528883 1.85307121,21.0222933 C1.85307121,31.5157035 10.359661,40.0222933 20.8530712,40.0222933 Z M20.8530712,36.0222933 C19.7485017,36.0222933 18.8530712,35.1268628 18.8530712,34.0222933 C18.8530712,32.9177238 19.7485017,32.0222933 20.8530712,32.0222933 C21.9576407,32.0222933 22.8530712,32.9177238 22.8530712,34.0222933 C22.8530712,35.1268628 21.9576407,36.0222933 20.8530712,36.0222933 Z"/>
</svg>
