<svg xmlns="http://www.w3.org/2000/svg" width="42" height="42" viewBox="0 0 42 42">
  <path d="M12.6681742,28.3244665 L20.9926407,20 L29.3244569,28.3277922 C29.5761253,28.2135938 29.8556361,28.15 30.15,28.15 C31.2545695,28.15 32.15,29.0454305 32.15,30.15 C32.15,31.2545695 31.2545695,32.15 30.15,32.15 C29.0454305,32.15 28.15,31.2545695 28.15,30.15 C28.15,29.7298907 28.27953,29.3400347 28.5008314,29.0181907 L20.995,21.5123593 L13.4950849,29.0122744 C13.7188756,29.3352519 13.85,29.7273131 13.85,30.15 C13.85,31.2545695 12.9545695,32.15 11.85,32.15 C10.7454305,32.15 9.85,31.2545695 9.85,30.15 C9.85,29.0454305 10.7454305,28.15 11.85,28.15 C12.141494,28.15 12.418423,28.2123598 12.6681742,28.3244665 Z M20.995,8.51235931 L9.64508487,19.8622744 C9.86887565,20.1852519 10,20.5773131 10,21 C10,22.1045695 9.1045695,23 8,23 C6.8954305,23 6,22.1045695 6,21 C6,19.8954305 6.8954305,19 8,19 C8.29149398,19 8.56842303,19.0623598 8.81817418,19.1744665 L20.9926407,7 L20.995,7.00235931 L20.9973593,7 L33.1749348,19.1775755 C33.4264791,19.0635133 33.7058224,19 34,19 C35.1045695,19 36,19.8954305 36,21 C36,22.1045695 35.1045695,23 34,23 C32.8954305,23 32,22.1045695 32,21 C32,20.5798907 32.12953,20.1900347 32.3508314,19.8681907 L20.995,8.51235931 Z M21,41 C9.954305,41 1,32.045695 1,21 C1,9.954305 9.954305,1 21,1 C32.045695,1 41,9.954305 41,21 C41,32.045695 32.045695,41 21,41 Z M21,40 C31.4934102,40 40,31.4934102 40,21 C40,10.5065898 31.4934102,2 21,2 C10.5065898,2 2,10.5065898 2,21 C2,31.4934102 10.5065898,40 21,40 Z M21,36 C19.8954305,36 19,35.1045695 19,34 C19,32.8954305 19.8954305,32 21,32 C22.1045695,32 23,32.8954305 23,34 C23,35.1045695 22.1045695,36 21,36 Z"/>
</svg>
