<svg xmlns="http://www.w3.org/2000/svg" width="42" height="42" viewBox="0 0 42 42">
  <g fill="#FFF" transform="translate(.915 .927)">
    <g transform="translate(5 4)">
      <path d="M5,10 L10,10 L10,20 L5,20 L5,10 Z M5,25 L10,25 L10,30 L5,30 L5,25 Z M15,10 L20,10 L20,15 L15,15 L15,10 Z" opacity=".109"/>
      <path d="M5,5 L10,5 L10,10 L5,10 L5,5 Z M15,1.42108547e-14 L20,1.42108547e-14 L20,5 L15,5 L15,1.42108547e-14 Z M5.32907052e-15,10 L5,10 L5,15 L5.32907052e-15,15 L5.32907052e-15,10 Z M5,25 L10,25 L10,30 L5,30 L5,25 Z M15,25 L20,25 L20,30 L15,30 L15,25 Z M25,15 L30,15 L30,20 L25,20 L25,15 Z" opacity=".201" transform="rotate(90 15 15)"/>
    </g>
    <path d="M20,40 C8.954305,40 0,31.045695 0,20 C0,8.954305 8.954305,0 20,0 C31.045695,0 40,8.954305 40,20 C40,31.045695 31.045695,40 20,40 Z M20,39 C30.4934102,39 39,30.4934102 39,20 C39,9.50658975 30.4934102,1 20,1 C9.50658975,1 1,9.50658975 1,20 C1,30.4934102 9.50658975,39 20,39 Z"/>
    <path d="M28,25 C30.209139,25 32,23.209139 32,21 C32,18.790861 30.209139,17 28,17 C27.2056757,17 26.4654287,17.2315322 25.8430651,17.6307905 C25.2235936,14.9768467 22.8426555,13 20,13 C16.9047464,13 14.3569121,15.343781 14.0344344,18.3534057 C13.5711122,18.1270435 13.0503924,18 12.5,18 C10.5670034,18 9,19.5670034 9,21.5 C9,23.4329966 10.5670034,25 12.5,25 C12.6697607,25 12.8366985,24.987914 13,24.9645556 L13,25 L28,25 Z M28,26 L13,26 L13,25.9725356 C12.8358331,25.9906833 12.6690045,26 12.5,26 C10.0147186,26 8,23.9852814 8,21.5 C8,19.0147186 10.0147186,17 12.5,17 C12.7627572,17 13.0202545,17.0225202 13.2706671,17.0657358 C14.1099421,14.1405235 16.804998,12 20,12 C22.8892326,12 25.3696323,13.750422 26.4385685,16.2486355 C26.9298539,16.0872816 27.4547341,16 28,16 C30.7614237,16 33,18.2385763 33,21 C33,23.7614237 30.7614237,26 28,26 Z"/>
  </g>
</svg>
