<svg xmlns="http://www.w3.org/2000/svg" viewBox="0 0 42 42"><g fill="#FFF"><path d="M10.915 14.927h5v10h-5v-10zm0 15h5v5h-5v-5zm10-15h5v5h-5v-5z" opacity=".109"/><path d="M30.915 9.927v5h-5v-5h5zm5 10v5h-5v-5h5zm-10-15v5h-5v-5h5zm-15 5v5h-5v-5h5zm0 10v5h-5v-5h5zm10 10v5h-5v-5h5z" opacity=".201"/><path d="M20.915 40.927c-11.046 0-20-8.954-20-20s8.954-20 20-20 20 8.954 20 20-8.954 20-20 20zm0-1c10.493 0 19-8.507 19-19s-8.507-19-19-19-19 8.507-19 19 8.507 19 19 19z"/><path d="M28.915 25.927a4 4 0 1 0-2.157-7.37 6.002 6.002 0 0 0-11.809.723 3.5 3.5 0 1 0-1.034 6.611v.036h15zm0 1h-15V26.9a4.5 4.5 0 1 1 .27-8.907 7.003 7.003 0 0 1 13.169-.817 5 5 0 1 1 1.561 9.751z"/></g></svg>