<svg xmlns="http://www.w3.org/2000/svg" viewBox="0 0 42 42"><path fill-opacity=".5" d="M11 15h5v10h-5V15zm0 15h5v5h-5v-5zm10-15h5v5h-5v-5z"/><path d="M31 10v5h-5v-5h5zm5 10v5h-5v-5h5zM26 5v5h-5V5h5zm-15 5v5H6v-5h5zm0 10v5H6v-5h5zm10 10v5h-5v-5h5z" opacity=".25"/><path d="M21 41C9.954 41 1 32.046 1 21S9.954 1 21 1s20 8.954 20 20-8.954 20-20 20zm0-1c10.493 0 19-8.507 19-19S31.493 2 21 2 2 10.507 2 21s8.507 19 19 19z"/><path d="M29 26a4 4 0 1 0-2.157-7.37 6.002 6.002 0 0 0-11.809.723A3.5 3.5 0 1 0 14 25.964V26h15zm0 1H14v-.027a4.5 4.5 0 1 1 .27-8.907 7.003 7.003 0 0 1 13.169-.817A5 5 0 1 1 29 27z"/></svg>