<svg width="62" height="61" viewBox="0 0 62 61" fill="none" xmlns="http://www.w3.org/2000/svg"><path fill-rule="evenodd" clip-rule="evenodd" d="M38.612 42.473a1.628 1.628 0 0 1-2.251 0l-5.651-5.478 1.125-1.091 4.526-4.388 1.125-1.091 6.777 6.57-1.126 1.09-4.525 4.388z" fill="#fff" fill-opacity=".53"/><path fill-rule="evenodd" clip-rule="evenodd" d="M31.836 35.903l-1.126 1.091-6.776-6.57 1.125-1.09 4.526-4.388 1.125-1.091 6.776 6.57-1.125 1.09-4.525 4.388z" fill="#fff" fill-opacity=".32"/><path fill-rule="evenodd" clip-rule="evenodd" d="M22.808 18.377a1.626 1.626 0 0 1 2.25 0l5.652 5.478-1.126 1.091-4.525 4.388-1.125 1.09-6.777-6.569s.503-.489 1.125-1.09l4.526-4.388z" fill="#fff" fill-opacity=".45"/><path fill-rule="evenodd" clip-rule="evenodd" d="M43.138 24.946a1.627 1.627 0 0 1 2.25 0l5.652 5.479-1.126 1.09-4.525 4.388-1.125 1.091-6.778-6.57 1.126-1.09 4.526-4.388zM11.506 29.334a1.51 1.51 0 0 0 0 2.181l5.651 5.48 1.126-1.092 4.526-4.387 1.125-1.092-6.777-6.57-1.125 1.092-4.526 4.388z" fill="#fff" fill-opacity=".9"/><path fill-rule="evenodd" clip-rule="evenodd" d="M31.04 59.35c15.975 0 28.925-12.95 28.925-28.925C59.965 14.45 47.015 1.5 31.04 1.5 15.065 1.5 2.115 14.45 2.115 30.425c0 15.975 12.95 28.925 28.925 28.925zm0 1.5c16.803 0 30.425-13.622 30.425-30.425S47.843 0 31.04 0 .615 13.622.615 30.425 14.236 60.85 31.04 60.85z" fill="#fff"/></svg>