<svg xmlns="http://www.w3.org/2000/svg" width="95" height="95" viewBox="0 0 95 95"><g fill="none" fill-rule="evenodd"><circle cx="47.625" cy="47.825" r="47.115" fill="#064BCA"/><path fill="#FFF" fill-rule="nonzero" d="M71.069 21.22c-.075-.015-7.627-1.462-19.474-1.462-11.848 0-19.4 1.447-19.45 1.459-2.425.344-4.117 1.588-4.995 3.6 3.558-.405 8.81-.826 15.292-.826 11.485 0 19.127 1.32 20.249 1.526 5.056.76 8.572 4.268 9.424 9.407.367 1.676 1.53 7.565 1.53 14.595 0 3.765-.339 7.219-.704 9.857 2.006-.848 3.266-2.544 3.662-4.998.014-.062 1.467-6.264 1.467-13.82 0-7.555-1.453-13.757-1.46-13.784-.516-3.191-2.44-5.114-5.541-5.553z"/><path fill="#FFF" fill-rule="nonzero" d="M67.457 35.735c-.515-3.191-2.44-5.114-5.54-5.553-.076-.015-7.628-1.463-19.475-1.463-11.848 0-19.4 1.448-19.45 1.459-3.125.443-5.049 2.366-5.558 5.523-.015.061-1.467 6.263-1.467 13.819 0 7.555 1.452 13.757 1.46 13.785.516 3.192 2.44 5.113 5.54 5.553.061.012 4.96.949 13.03 1.316l4.807 8.33a1.89 1.89 0 0 0 3.276 0l4.809-8.33c8.068-.367 12.962-1.303 13.002-1.312 3.125-.444 5.05-2.365 5.56-5.523.013-.062 1.466-6.264 1.466-13.82 0-7.555-1.453-13.757-1.46-13.784"/></g></svg>