<svg xmlns="http://www.w3.org/2000/svg" width="96" height="96" viewBox="0 0 96 96"><path fill="#064BCA" fill-rule="evenodd" d="M48 96C21.49 96 0 74.51 0 48S21.49 0 48 0s48 21.49 48 48-21.49 48-48 48zm20.204-60.317c-.525-3.252-2.486-5.21-5.644-5.658-.077-.015-7.77-1.49-19.84-1.49s-19.764 1.475-19.815 1.486c-3.184.452-5.144 2.41-5.662 5.627-.016.063-1.495 6.38-1.495 14.078 0 7.698 1.48 14.016 1.487 14.044.526 3.252 2.486 5.21 5.645 5.658.061.012 5.051.967 13.273 1.34l4.898 8.486a1.926 1.926 0 0 0 3.337 0l4.9-8.485c8.22-.374 13.205-1.328 13.246-1.337 3.184-.452 5.145-2.41 5.664-5.627.014-.063 1.494-6.381 1.494-14.079 0-7.697-1.48-14.015-1.488-14.043zm3.68-14.787c-.076-.016-7.77-1.49-19.84-1.49S32.281 20.88 32.23 20.892c-2.471.35-4.195 1.618-5.09 3.667 3.625-.412 8.975-.84 15.58-.84 11.7 0 19.486 1.344 20.629 1.554 5.151.774 8.733 4.348 9.6 9.584.374 1.707 1.56 7.707 1.56 14.87 0 3.834-.346 7.353-.717 10.04 2.043-.863 3.327-2.59 3.73-5.092.015-.062 1.494-6.38 1.494-14.078 0-7.698-1.48-14.016-1.487-14.044-.525-3.25-2.486-5.21-5.645-5.657z"/></svg>