<svg xmlns="http://www.w3.org/2000/svg" width="32" height="32" viewBox="0 0 32 32"><path fill-rule="evenodd" d="M13.57 14.268a6.158 6.158 0 0 1-1.04.249l.232.139 2.124 1.573.45-.052 4.923 10.394-1.3 3.429-4.309-1.511.74-1.997-2.118-.76.747-2.204-2.088-.701.674-2.06-2.6-.92-1.22-2.345-.324-.497a6.338 6.338 0 0 1-1.91-.583c-3.127-1.526-4.435-5.28-2.92-8.385.121-.25.257-.487.407-.713a6.25 6.25 0 0 0-.092 1.069c0 3.454 2.821 6.255 6.302 6.255.333 0 .66-.026.98-.076-3.268-.2-5.856-2.935-5.856-6.28C5.372 4.817 8.166 2 11.612 2c3.447 0 6.24 2.817 6.24 6.292 0 .317-.022.63-.067.934l10.468 8.506.331 3.673-4.491.534-.209-2.131-2.215.246-.292-2.322-2.163.287-.295-2.16-2.713.316-2.103-1.583-.533-.324zm-2.48-4.367a2.07 2.07 0 1 0 0-4.139 2.07 2.07 0 0 0 0 4.139z"/></svg>