<svg width="50" height="50" viewBox="0 0 50 50" xmlns="http://www.w3.org/2000/svg"><title>Encryption</title><path d="M2.079 18.71s.32-.953-.304-1.092c-.625-.138-.799.426-.799.426-1.409 5.065-1.331 10.444.486 15.506.13.454.739.361.862.28.124-.083.487-.315.292-.769-1.59-4.536-1.876-9.515-.537-14.35zM25.667 1.252c.519 0 .584-.45.584-.578 0-.129-.065-.673-.584-.673-7.241 0-12.663 2.323-16.8 5.9-2.698 2.332-4.96 5.172-6.444 8.332-.26.455.086.748.235.818.148.07.682.028.877-.231C6.725 7.809 14.662 1.05 25.667 1.25zm12.977 2.802A24.925 24.925 0 0 0 29.36.4c-.519-.065-.783.088-.783.45 0 .36.264.688.783.818 6.704 1.245 11.466 4.978 14.546 8.933 0 0 .456.295.87.106.412-.19.179-.704.179-.704-2.224-3.07-4.967-5.08-6.312-5.95zm7.226 9.557s-.095-.638.284-.78c.378-.143.753.132.753.132 1.166 1.969 1.99 4.46 2.601 7.044.249 1.05.492 3.166.492 5.524 0 0-.152.46-.664.396-.511-.063-.587-.595-.587-.595-.102-3.967-.542-7.27-2.88-11.72zM24.629 45.49c-.52-.13-.886.183-1.022.597-.324.909-.768 1.987-1.079 2.976-.06.193-.04.7.543.904.584.205.866-.553.866-.553.164-.431.804-2.005 1.064-2.849.12-.626.147-.945-.372-1.075zm1.103-21.285c-.52.13-.39.872-.326 1.391 1.233 5.84.975 11.093-.453 16.414-.13.52-.14 1.171.453 1.34.594.169.876-.68 1.006-1.07 1.493-5.58 1.587-11.343.29-17.443-.13-.454-.451-.697-.97-.632zm-7.138-4.932c-1.233 1.428-2.272 3.281-2.466 5.098-.133 2.131.434 4.795.718 5.869.8 1.247 1.258 2.299 1.405 4.697 0 1.223-.428 4.192-1.405 6.884-.851 2.347-1.19 2.736-2.016 4.392-.195.454-.504 1.205 0 1.548.503.343.815-.184 1.165-.546.843-1.947 3.114-6.302 3.678-11.54-.16-1.67 0-3.083-1.08-5.29-.77-1.645-1.178-4.06-.947-6.014.13-1.428 1.306-3.261 2.344-4.365.325-.389.487-.733 0-.984-.486-.251-1.007-.138-1.396.251zm13.393-1.239c-2.538-1.964-6.247-2.569-9.297-1.466-.519.195-.864.693-.669 1.212.195.52.755.384 1.274.254 2.4-.843 5.803-.406 7.815 1.152 2.336 1.817 3.06 3.785 3.45 6.77.164 1.285 1.452 1.514 1.452.546 0-3.22-1.086-6.193-4.025-8.468zm2.63 11.803c-.095 3.024-.458 6.126-.774 8.515-.454 3.374-1.18 5.999-2.536 9.337-.13.52-.37 1.214.15 1.344.518.13 1.088-.31 1.153-.635 2.174-6.686 2.636-9.798 2.636-9.798.407-3.897.65-5.308.733-8.833.022-.918-1.32-1.261-1.362.07zm-4.623-19.834c.515.158.91.079 1.04-.375.13-.52-.179-.954-.698-1.084-7.203-1.882-15.106 1.144-19.205 7.294-1.817 2.726-3.05 5.764-3.193 10.385-.034 1.106 1.544 1.573 1.544-.342 0-2.929.919-6.26 2.596-8.888 3.522-5.519 10.947-9.126 17.916-6.99zM9.123 32.3c.694 1.505.126 3.197-.134 4.884-.26 1.558-.59 2.877-1.305 4.5-.194.454-.2 1.09.254 1.284.454.195.922-.138 1.051-.463.873-2.037 1.114-3.285 1.439-4.907.324-1.817.618-3.89.135-5.71-.348-1.31-2.174-1.18-1.44.412zm33.87-12.293c-1.168-3.473-4.195-7.502-7.96-9.579-.453-.26-1.103-.454-1.362 0-.26.454-.152.87.367 1.13 3.375 1.881 6.45 5.503 7.619 9.007 1.038 3.18 1.194 9.373 1.194 12.241-.44 4.073-.898 6.128-1.61 9.025-.064.52-.103 1.086.416 1.215.519.13.947-.42 1.012-.81.714-3.764 1.694-6.851 1.694-10.748 0-3.001-.262-8.186-1.37-11.48z" fill="#000" fill-rule="evenodd"/></svg>