<svg width="50" height="47" viewBox="0 0 50 47" xmlns="http://www.w3.org/2000/svg"><title>Shape</title><path d="M49.437 21.864l-3.519-2.241 3.511-2.233a1.187 1.187 0 0 0 0-2.008L25.584.185a1.195 1.195 0 0 0-1.278 0L.561 15.374a1.187 1.187 0 0 0 0 2.016l3.51 2.241-3.51 2.233a1.187 1.187 0 0 0 0 2.008l4.034 2.581L.56 29.01a1.187 1.187 0 0 0 0 2.008l23.762 15.189c.39.249.888.249 1.278 0l23.845-15.189a1.187 1.187 0 0 0 0-2.008l-4.067-2.565 4.042-2.573a1.187 1.187 0 0 0 .016-2.008zM24.954 2.6l21.628 13.778-3.535 2.249-18.093 11.52-21.58-13.778L24.955 2.6zm21.628 27.39L24.954 43.8 3.374 30.022l3.395-2.166 17.537 11.196c.39.25.889.25 1.278 0l17.587-11.196 3.411 2.133zm-21.628 6.639L3.374 22.85l2.872-1.834 18.06 11.545c.39.249.889.249 1.278 0L43.72 21.034l2.88 1.834-21.645 13.76z" fill="#000" fill-rule="evenodd"/></svg>