<svg width="107" height="107" viewBox="0 0 107 107" xmlns="http://www.w3.org/2000/svg"><title>Redpoint1</title><path d="M91.11 85.507a49.217 49.217 0 0 0 10.71-21.755L70.99 32.923 41.154 54.53l-20.063-9.26L5.85 66.516a49.287 49.287 0 0 0 10.9 19.973l4.342-6.753 17.49-2.058L56.588 61.73l13.889 12.346 12.346-5.144 8.287 16.574zM53.5 107c29.547 0 53.5-23.953 53.5-53.5S83.047 0 53.5 0 0 23.953 0 53.5 23.953 107 53.5 107zm-22.12-9.26c10.803 6.173 26.75 6.173 37.553 3.087 10.803-3.087 19.033-11.832 19.033-11.832L81.28 75.62l-12.346 4.116-12.346-11.832-15.948 14.404-16.461 1.543-3.601 5.659s0 2.057 10.803 8.23z" fill="#D93939" fill-rule="evenodd"/></svg>