<svg width="40" height="32" viewBox="0 0 40 32" xmlns="http://www.w3.org/2000/svg"><title>Database hotswap</title><path d="M10 7.346c-5.71.842-9.755 3.124-10 5.81V18.6c0 3.485 6.525 6.314 14.857 6.35 8.332-.036 14.857-2.865 14.857-6.35v-.006a34.406 34.406 0 0 1-4.857.356c-2.737-.012-5.28-.325-7.46-.864-.7.051-1.413.078-2.135.078h-.022c-3.816 0-7.386-.757-10.052-1.87-2.597-1.083-3.518-2.397-3.518-3.111 0-.714.921-1.903 3.518-2.987C6.578 9.617 8.212 9.17 10 8.873V7.346zm4.543 18.88C8.659 26.2 2.786 24.735 0 21.946v3.562c0 3.485 6.525 6.313 14.857 6.35 8.332-.037 14.857-2.865 14.857-6.35v-4.296c-2.166 3.267-8.783 4.985-15.171 5.012zM24.857 0C16.707.005 10.31 2.757 10 6.156V11.6c0 3.485 6.525 6.314 14.857 6.35 8.332-.036 14.857-2.865 14.857-6.35V6.156c0-3.399-6.706-6.151-14.857-6.156zm10.457 9.296c-2.666 1.112-6.236 1.87-10.052 1.87h-.022c-3.816 0-7.386-.758-10.052-1.87-2.597-1.084-3.518-2.398-3.518-3.112s.921-1.903 3.518-2.987c2.666-1.112 6.236-1.74 10.052-1.74h.022c3.816 0 7.386.604 10.052 1.716 2.597 1.083 3.518 2.345 3.518 3.06 0 .713-.921 1.98-3.518 3.063z" fill="#000" fill-rule="evenodd"/></svg>