<svg width="32" height="32" viewBox="0 0 32 32" xmlns="http://www.w3.org/2000/svg"><title>icon-ccms-mag-med</title><g fill="#000" fill-rule="nonzero"><path d="M23.526 23.034a.7.7 0 1 1 .713 1.204l-9.364 5.543a.7.7 0 0 1-.706.004L2.493 23.043a.7.7 0 0 1-.35-.606V8.955a.7.7 0 0 1 .35-.606l11.676-6.742a.7.7 0 0 1 .7 0L26.545 8.35a.7.7 0 0 1 .35.606V19.38a.7.7 0 0 1-1.4 0V9.36L14.519 3.022 3.543 9.359v12.674l10.971 6.335 9.012-5.334z"/><path d="M14.519 21.497a5.801 5.801 0 1 0 0-11.602 5.801 5.801 0 0 0 0 11.602zm0 1.4a7.201 7.201 0 1 1 0-14.402 7.201 7.201 0 0 1 0 14.402z"/><path d="M16.969 12.709a.7.7 0 0 1 1.134.82l-3.488 4.814a.7.7 0 0 1-1.004.136l-2.299-1.838a.7.7 0 1 1 .875-1.094l1.725 1.38 3.057-4.218zM22.013 20.739a.8.8 0 0 1 .852-1.355l7.06 4.439a.8.8 0 1 1-.85 1.354l-7.062-4.438z"/></g></svg>