<svg width="38" height="50" viewBox="0 0 38 50" xmlns="http://www.w3.org/2000/svg"><title>FHIR</title><path d="M36.792 29.11c-.537-1.65-1.3-3.22-1.636-4.933-.3-1.529-.26-3.173.383-4.615.377-.851.939-1.642 1.615-2.366a1.18 1.18 0 0 0 .315-.953c-.156-1.266-1.609-1.077-2.52-.836-.508.135-3.987 1.34-3.922 1.583-.06-.226-.119-.453-.184-.678C28.416 7.895 21.21.782 12.153.031l-.236-.018c-.085-.005-.151-.01-.264-.013-.384-.008-1.413.26-1.491.542-.078.283.39.73.915 1.359 2.1 1.87 2.725 4.378 2.1 6.987-.99 4.134-3.778 7.672-6.352 10.968l-.124.158-.256.344c-.292-1.932-.856-3.697-1.615-5.394-.134-.3-.28-.603-.512-.837-.603-.608-1.653-.359-1.933.448l-.624 1.794c-3.33 9.57-2.198 21.59 5.638 28.744 8.318 7.593 22.977 6.397 28.474-4.004a15.093 15.093 0 0 0 1.509-9.624 17.118 17.118 0 0 0-.59-2.376zM1.46 26.27c.03-3.178.302-6.708 2.154-10.417.612 1.082 1.112 2.977 1.485 4.16.064.202.742 1.467.706 1.675-.027.148-.364.844-.436.979-1.755 3.252-2.544 7.273-2.544 11.944-.777-1.174-.764-3.522-1.063-4.994.299 1.472-.302-3.347-.302-3.347zm34.745 8.615c-.108 3.325-1.976 6.719-4.526 9.073-.5.461-1.206 1.212-1.763 1.608-3.741 2.642-9.565 3.65-13.947 2.087C2.38 42.806 2.385 32.95 6.384 24.177c2.461-5.4 7.406-8.595 8.574-14.594.482-2.481.176-6.065-3.247-8.65 1.988-.128 6.71 2.328 7.516 2.747 5.942 3.088 8.569 8.02 10.688 13.971.07.197-3.236 2.552-3.555 2.913-.787.89-1.463 1.88-2.023 2.924a15.64 15.64 0 0 0-1.863 6.99c-.034 1.448.915.181 1.01-.538.64-4.83 3.74-9.684 8.194-11.718.601-.275 2.551-1.528 3.86-1.528-2.067 2.22-2.05 4.584-2.067 5.973-.044 3.424 2.163 6.414 2.733 9.789.15.886 0 2.43 0 2.43z" fill="#000" fill-rule="evenodd"/></svg>