<svg width="50" height="47" viewBox="0 0 50 47" xmlns="http://www.w3.org/2000/svg"><title>Anti-Black Box</title><path d="M18.27.008a.51.51 0 0 0-.11.031L.3 8.204a.51.51 0 0 0-.176.798l5.836 6.825-5.836 6.809a.51.51 0 0 0 .175.797l5.82 2.663V38.28c.002.2.12.381.303.463l18.355 8.164a.51.51 0 0 0 .414 0l18.387-8.164a.51.51 0 0 0 .303-.463V26.096l5.82-2.663a.51.51 0 0 0 .176-.797l-5.837-6.81 5.837-6.824a.51.51 0 0 0-.176-.798L31.841.04a.51.51 0 0 0-.574.127L25 6.913 18.733.167a.51.51 0 0 0-.462-.16zm-.015 1.116l5.884 6.347-17.382 7.734-5.421-6.347 16.919-7.734zm13.49 0l16.92 7.734-5.422 6.347L25.86 7.47l5.884-6.347zM25 8.22l17.11 7.607L25 23.417l-17.11-7.59L25 8.22zM6.757 16.433l17.382 7.734-5.884 6.346-16.92-7.734 5.422-6.346zm36.486 0l5.422 6.346-16.92 7.734-5.884-6.346 17.382-7.734zM24.49 25.267v20.38L7.14 37.927v-11.37l11.02 5.04a.51.51 0 0 0 .573-.128l5.757-6.203zm1.02 0l5.757 6.203a.51.51 0 0 0 .574.128l11.02-5.04v11.37L25.51 45.63V25.267z" fill="#000" fill-rule="evenodd"/></svg>