<svg width="16" height="16" viewBox="0 0 16 16" xmlns="http://www.w3.org/2000/svg"><title>icon-ccms-mag-small</title><g fill="#000" fill-rule="nonzero"><path d="M7.112 14.358L11.4 11.75a.45.45 0 1 1 .468.769l-4.515 2.747a.45.45 0 0 1-.459.005l-6.01-3.47a.45.45 0 0 1-.226-.39v-6.94c0-.162.086-.31.225-.39L6.893.61a.45.45 0 0 1 .45 0l6.011 3.47a.45.45 0 0 1 .225.39v5.212a.45.45 0 1 1-.9 0V4.73L7.12 1.52 1.556 4.73v6.421l5.555 3.207z"/><path d="M7.118 12.098a4.157 4.157 0 1 1 0-8.315 4.157 4.157 0 0 1 0 8.315zm0-.9a3.257 3.257 0 1 0 0-6.515 3.257 3.257 0 0 0 0 6.515z"/><path d="M8.307 6.35a.45.45 0 1 1 .729.528L7.24 9.356a.45.45 0 0 1-.646.088l-1.183-.947a.45.45 0 0 1 .562-.703l.815.652L8.307 6.35zM11.39 10.98a.45.45 0 0 1 .417-.797l3.733 1.957a.45.45 0 1 1-.418.797L11.39 10.98z"/></g></svg>