<svg width="50" height="48" viewBox="0 0 50 48" xmlns="http://www.w3.org/2000/svg"><title>Backup and DR</title><path d="M49.252 35.13L28.133 2.045A4.124 4.124 0 0 0 24.56 0c-1.46 0-2.835.79-3.573 2.048L.673 35.24A4.136 4.136 0 0 0 0 37.5c0 2.298.673 4.17 4.167 4.167H20s.006.003 0 4.937c0 .501.736.624 1.104.404L30 41.67l15.833-.003C49.253 41.67 50 39.024 50 37.5c0-.939 0-.96-.748-2.37zM45.833 40H30.106l-8.722-4.875c-.74-.415-1.345-.348-1.345.445V40H4.167c-1.582-.182-2.398-.885-2.398-2.139 0-1.228.577-2.014 1.009-2.736 2.517-4.217 19.94-32.56 19.94-32.56S23.072 1.5 24.55 1.5c1.478 0 1.831 1.063 1.831 1.063S36.452 18.536 47.328 35.57c.331.53.937 1.154.937 2.291 0 .855-.937 2.139-2.432 2.139zM21.5 37v8l7-4.1-7-3.9zm4.529-6H24c-.667.005-.997-.095-1-1v-1.961c0-.84.302-1.039 1-1.039h2c1.197 0 1 1 1 1v2.063c0 .823-.208.937-.971.937zm-3.042-16h4.044c.323 0 .919.505.868 1.01l-.803 8.026c-.032.322-.589.964-1.082.964h-2.002c-.338 0-1.077-.653-1.11-.98l-.798-7.98c-.052-.52.39-1.04.883-1.04z" fill="#000" fill-rule="evenodd"/></svg>