<svg width="406" height="551" viewBox="0 0 406 551" xmlns="http://www.w3.org/2000/svg"><title>Combined Shape</title><path d="M47 104.5c-21.252 0-38.5-17.002-38.5-38s17.248-38 38.5-38 38.5 17.002 38.5 38-17.248 38-38.5 38zm0-7c-17.408 0-31.5-13.89-31.5-31s14.092-31 31.5-31 31.5 13.89 31.5 31-14.092 31-31.5 31zm287 3c-21.252 0-38.5-17.002-38.5-38s17.248-38 38.5-38 38.5 17.002 38.5 38-17.248 38-38.5 38zM71.627 48.386a722.38 722.38 0 0 0-5.194 10.223C61.057 69.39 55.68 80.757 50.667 92.179c-3.42 7.788-6.553 15.339-9.336 22.557a379.37 379.37 0 0 0-4.028 10.922c-6.158 17.561-5.931 45.605-1.164 93.542.47 4.725.958 9.444 1.67 16.198C41.962 274.801 43 286.738 43 301.5c0 13.766-1.548 22.33-5.796 37.517a3460.07 3460.07 0 0 0-.51 1.822c-3.81 13.646-5.157 21.316-5.02 33.222.18 15.601 3.586 35.284 11.192 61.98 12.077 42.387 28.663 65.058 54.232 76.318 11.719 5.161 25.662 8.156 43.734 9.677 14.398 1.211 27.569 1.464 58.668 1.464 40.867 0 74.563-9.475 100.706-26.615 22.085-14.479 37.973-34.025 46.55-55.199 3.166-7.816 5.117-14.996 6.183-22.468 1.402-9.83 1.387-15.778.455-39.735-1.245-32.002-.886-55.106 2.624-89.835 4.814-47.632 2.83-95.66-3.404-140.284-1.322-9.462-2.738-17.985-4.152-25.43-.495-2.601-.953-4.88-1.364-6.819-.143-.676-.27-1.26-.378-1.75a80.32 80.32 0 0 0-1.32-4.016 260.519 260.519 0 0 0-4.202-10.899c-4.879-11.927-11.253-25.604-19.292-40.814-18.55-35.095-44.063-46.405-122.639-51.644-37.244-2.483-69.829 4.872-97.404 18.651-8.352 4.173-15.602 8.639-21.715 13.095a102.783 102.783 0 0 0-5.485 4.268c-.527.443-.978.834-1.351 1.167a384.89 384.89 0 0 0-1.685 3.213zm4.417 459.444c-17.698-14.048-30.32-36.211-39.91-69.871-7.764-27.249-11.272-47.52-11.46-63.818-.145-12.695 1.305-20.955 5.278-35.185l.51-1.825C34.555 322.505 36 314.505 36 301.5c0-7.388-.271-14.109-1.092-24.176-12.902 5.364-26.53 2.822-31.956-6.574-6.075-10.522.438-25.656 14.548-33.803 4.225-2.439 8.652-3.975 12.944-4.648a2316.08 2316.08 0 0 1-1.271-12.407c-4.878-49.06-5.11-77.632 1.524-96.55 1.261-3.596 2.63-7.307 4.102-11.124 2.824-7.324 5.997-14.972 9.458-22.854 5.065-11.534 10.488-23.001 15.911-33.878a729.346 729.346 0 0 1 5.245-10.323c.555-1.07 1.048-2.012 1.473-2.819.503-.948.796-1.496.796-1.496a51.635 51.635 0 0 1 2.482-2.204 109.737 109.737 0 0 1 5.86-4.562c6.418-4.679 13.998-9.348 22.71-13.7C127.376 6.07 161.186-1.563 199.733 1.007 280.48 6.39 308.168 18.666 328.094 56.364c8.148 15.415 14.618 29.3 19.583 41.436 1.743 4.26 3.174 8 4.314 11.195.402 1.124.74 2.102 1.014 2.929.43 1.399.48 1.612.548 1.924.114.512.246 1.119.394 1.817.42 1.986.888 4.312 1.391 6.962 1.436 7.554 2.87 16.19 4.208 25.769 3.774 27.013 6.008 55.257 6.148 83.925 6.949-1.228 15.204.238 22.806 4.626 14.11 8.147 20.623 23.28 14.548 33.803-6.075 10.522-22.438 12.449-36.548 4.303a40.032 40.032 0 0 1-2.108-1.306 523.909 523.909 0 0 1-1.41 16.605c-3.472 34.362-3.826 57.157-2.593 88.859.95 24.439.966 30.576-.52 40.996-1.147 8.04-3.248 15.769-6.625 24.107-9.107 22.482-25.914 43.159-49.2 58.426a150.594 150.594 0 0 1-17.178 9.7c8.81 8.394 12.07 19.845 7.182 28.31-6.075 10.522-22.438 12.449-36.548 4.303-7.9-4.561-13.418-11.313-15.68-18.218-13.182 2.416-27.297 3.665-42.32 3.665-31.305 0-44.59-.255-59.254-1.489-9.12-.767-17.269-1.904-24.673-3.503-1.959 7.36-7.668 14.692-16.073 19.545-14.11 8.146-30.473 6.22-36.548-4.303-5.862-10.154-.003-24.6 13.092-32.92zM135.5 125C110.923 125 91 105.077 91 80.5S110.923 36 135.5 36 180 55.923 180 80.5 160.077 125 135.5 125zm-16.269-29.667c7.664 0 13.877-6.212 13.877-13.876s-6.213-13.876-13.877-13.876c-7.664 0-13.876 6.212-13.876 13.876s6.212 13.876 13.876 13.876zm74.07 61.22c-.193.015-.384.032-.573.05.092.166.183.333.272.502.098-.186.198-.37.3-.551zm26.019 6.589c.766 2.893 1.18 6.06 1.18 9.358 0 13-6.439 24-15.5 24-5.022 0-9.239-3.379-12-8.605-2.761 5.226-6.978 8.605-12 8.605-9.061 0-15.5-11-15.5-24 0-3.006.344-5.905.986-8.586-1.488-.186-2.486-.414-2.486-.414-21.687-23.9 2.464-32.52 8.296-34.185-.84-1.194-1.296-2.478-1.296-3.815 0-6.351 10.297-11.5 23-11.5s23 5.149 23 11.5c0 1.869-.891 3.633-2.473 5.193 6.471 2.253 12.796 5.439 15.973 9.807 8 11 .5 22.5-6.5 23-1.185.085-2.805-.06-4.68-.358zM242.5 125c-24.577 0-44.5-19.923-44.5-44.5S217.923 36 242.5 36 287 55.923 287 80.5 267.077 125 242.5 125zm-16.269-29.667c7.664 0 13.877-6.212 13.877-13.876s-6.213-13.876-13.877-13.876c-7.664 0-13.876 6.212-13.876 13.876s6.212 13.876 13.876 13.876zM181 189.5c4.194 0 8.5-7.357 8.5-17s-4.306-17-8.5-17-8.5 7.357-8.5 17 4.306 17 8.5 17zm24 0c4.194 0 8.5-7.357 8.5-17s-4.306-17-8.5-17-8.5 7.357-8.5 17 4.306 17 8.5 17z" fill="#010101" fill-rule="nonzero"/></svg>