<svg width="50" height="45" viewBox="0 0 50 45" xmlns="http://www.w3.org/2000/svg"><title>Brain Cog</title><path d="M20.463 44.73c-4.788 0-8.015-1.945-9.98-5.966-3.202.107-5.087-1.242-6.133-2.432-1.987-2.267-2.454-5.661-2.063-8.07C.887 26.711 0 24.303 0 21.974c0-3.38 1.438-6.354 3.709-7.77a7.57 7.57 0 0 1-.008-.344c0-3.98 2.42-7.14 5.95-7.87C10.886 3.004 15.025 0 19.73 0h3.742C23.956 0 25 .229 25 1v42c0 .735-.4 1.15-.818 1.226-1.502.274-2.443.505-3.719.505zM11.15 20.378c1.579.739 3.995.255 5.314-1.13 1.34-1.407 2.767-2.122 4.242-2.124.95 0 1.884.295 2.795.878v-7.688a7.564 7.564 0 0 1-1.541.162c-2.026 0-3.83-.86-4.874-2.394-.206-.302-.226-1.058.188-1.246.415-.189.887.279 1.058.504 1.033 1.36 3.122 1.935 5.169 1.392V1.5h-4.391c-4.522 0-7.595 3.203-8.234 5.355l-.034.108c.057 4.683 2.223 6.034 5.71 6.202.267.013.822.378.822.788 0 .41-.515.758-.77.75-3.674-.127-6.918-1.293-7.162-7.203-2.457.722-4.24 2.933-4.24 5.852 0 .253-.027.89 0 1.134.038.366-.31.79-.64.953-1.95.954-3.062 3.366-3.062 6.293 0 2.026.648 4.396 1.895 5.582.223.212.511.65.444.951-.459 2.065-.026 4.988 1.617 6.86 1.132 1.29 2.679 2.277 4.702 2.267.065-1.85.524-3.688 1.364-5.288-1.426-.561-2.638-1.775-3.087-3.074-.12-.348.134-1.052.804-1.052.547 0 .837.508.972.777.37.737 1.173 1.685 2.128 2.035 1.422-1.942 3.526-3.336 6.283-3.631.359-.039 1.109.086 1.109.652 0 .566-.673.745-.991.782-5.356.615-7.197 6.188-7.24 9.156a.359.359 0 0 1 .043.07c2 4.544 5.947 6.9 11.958 5.181v-8.82c-1.413-.314-2.476.18-3.164.934-.285.312-.933.87-1.576.639-.429-.155-.254-1.166.058-1.554 1.017-1.262 2.652-2.117 4.682-1.803V19.711c-.953-.871-1.884-1.122-2.795-1.122-.98 0-2.312.697-3.308 1.744-1.234 1.296-2.578 1.868-4.368 1.868-.67 0-1.338-.118-1.95-.337-.258 1.225-.997 2.329-1.995 2.985-.265.173-.98.1-1.046-.06-.037-.087-.111-.114-.111-.262-.08-.189.228-.792.446-.98.724-.624 1.298-1.727 1.298-2.64 0-1.135-.913-2.182-2.066-2.537-.269-.083-.836-.562-.836-.78v-.347c0-.182.511-.526.756-.49 1.951.297 3.396 1.73 3.624 3.624zm20.046 23.956h-2.327c-.345 0-1.035-.126-1.035-.831s.851-.924.851-.924h1.634v-4.384c0-.422.3-.784.714-.862 1.903-.36 3.458-.99 5.198-2.106a.877.877 0 0 1 1.08.105l3.151 3.013 3.776-3.784-2.997-3.016a.878.878 0 0 1-.116-1.092c.969-1.511 1.697-2.955 2.099-5.087a.877.877 0 0 1 .862-.715h4.16v-4.968h-4.16a.877.877 0 0 1-.862-.714c-.354-1.875-.967-3.371-2.12-5.166a.877.877 0 0 1 .107-1.081l2.994-3.118-3.812-3.782-3.074 3.008a.877.877 0 0 1-1.088.112c-1.73-1.11-3.285-1.738-5.198-2.1a.877.877 0 0 1-.714-.862V1.754h-1.334s-1.15 0-1.15-.847c0-.848.75-.907 1.127-.907h2.234c.484 0 .877.392.877.877v4.39c1.601.372 3.035.954 4.51 1.828l3.2-3.132a.876.876 0 0 1 1.232.004l5.039 4.999c.34.337.347.884.015 1.23l-3.12 3.248c.697 1.159 1.4 2.583 1.848 4.484h4.327c.484 0 .877.392.877.877v6.723a.877.877 0 0 1-.877.877h-4.327c-.434 1.842-1.11 3.215-1.822 4.395l3.123 3.142c.34.343.34.896-.001 1.238l-5 5.01a.875.875 0 0 1-1.227.015l-3.28-3.137c-1.496.892-2.905 1.466-4.517 1.839v4.548a.877.877 0 0 1-.877.878zm-3.362-13.32c.016-.76.83-.951 1.23-1.012 3.878-.588 6.857-3.913 6.857-7.914 0-4.007-2.988-7.336-6.873-7.917-.396-.06-1.214-.269-1.214-1.014 0-.744.807-.806 1.2-.759 4.863.59 8.641 4.71 8.641 9.69 0 4.972-3.768 9.089-8.622 9.686-.4.05-1.234 0-1.219-.76z" fill="#000" fill-rule="evenodd"/></svg>