<svg width="40" height="50" viewBox="0 0 40 50" xmlns="http://www.w3.org/2000/svg"><title>Podium</title><path d="M14.55 0a2.916 2.916 0 0 0-2.907 2.907c0 .266.041.518.109.763L6.629 6.948C6.269 7.234 6 7.725 6 8.413V11.5H.628c-.284.016-.514.293-.593.51a.581.581 0 0 0 .144.617L6 18v23.435c0 1.033-.894 2.512-1.341 2.736-.553.276-1.54 1.112-1.659 1.893-.135.891-.127 2.436.62 3.01.841.644 1.916.926 2.434.926H33.5c2.914 0 3.5-1.5 3.5-1.5s.528-1.577 0-2.95c-.41-1.065-.88-.748-1.875-1.925-.505-.6-1.125-1.151-1.125-2.178V18s3.634-3.058 5.45-4.835c1.265-1.302 0-1.665-.45-1.665H7.5V9.026c0-1.045.723-1.387 1.154-1.67 1.48-1.057 3.738-2.438 3.738-2.438.344.368 1.25.896 2.158.896a2.916 2.916 0 0 0 2.907-2.907A2.916 2.916 0 0 0 14.55 0zm0 1.163c.97 0 1.744.774 1.744 1.744s-.774 1.744-1.744 1.744-1.744-.774-1.744-1.744.774-1.744 1.744-1.744zM4.61 12.804c12.494.065 24.983.159 30.473.159 3.018 0 1.773.837.181 2.005-.47.344-.938.689-1.407 1.034-.679.499-2.36.998-2.862.998H8.844c-.672 0-1.68-.257-2.203-.659L4 14.314c-1.436-1.106-1.565-1.51.612-1.51zm4.41 5.696h22c.493 0 1.479.786 1.479 1.572v21.922c0 1.506 0 1.506-1.484 1.506H9.008c-1.508 0-1.508 0-1.508-1.459v-22c0-.77.76-1.541 1.521-1.541zM6.991 45h25.975c.845 0 2.09.416 2.09 1.9 0 1.17-1.28 1.6-2.142 1.6H7.004c-1.252 0-2.105-.792-2.105-1.75 0-.792.847-1.75 2.092-1.75z" fill="#000" fill-rule="evenodd"/></svg>