<svg width="38" height="50" viewBox="0 0 38 50" xmlns="http://www.w3.org/2000/svg"><title>Global</title><path d="M4.57 31.639C2.34 33.93.201 38.05 2.287 39.5c1.964 1.265 6.228-1.315 7.513-3.017 0 0-3.886-2.552-5.232-4.844zm6.632 15.772c0 .845 5.574 1.134 7.83 1.134 2.254 0 8.142-.294 8.142-1.134 0-.544-4.234-.581-8.08-2.297-4.098 1.716-7.892 1.757-7.892 2.297zm1.044-11.131c5.995 2.118 11.987 1.928 17.544-2.535 4.45-3.95 8.368-13.048 3.426-21.351-9.358 13.854-11.322 14.91-20.97 23.886zM32.08 11.108C26.819 3.06 13.774 2.76 7.369 9.192c-6.99 6.976-6.06 20.865 3.615 26.034C22.785 24.338 25.201 21.113 32.08 11.108zm1.011-1.336c1.882-2.779 3.215-6.358 1.882-7.709-1.738-1.714-4.59.01-7.117 3.253 2.135.978 4.22 3.01 5.235 4.456zm.917 1.262c5.23 7.157 2.977 16.249-.852 21.211-3.02 3.914-7.164 6.326-13.158 6.759v4.993c6.01 2.094 10.895 2.012 10.895 3.37 0 1.357-5.232 2.633-11.89 2.633-6.66 0-12.006-1.251-12.006-2.634 0-1.382 5.042-1.32 11.003-3.369-.017-1.888 0-2.444 0-4.993-1.118-.056-4.593-.64-6.774-1.82C8.602 39.874 4.008 42.901.89 39.985c-2.124-1.986.629-7.444 2.767-9.725-4.347-7.828-2.861-16.267 2.706-22 5.567-5.734 14.38-6.397 19.947-3.743 2.402-1.926 5.56-5.889 8.975-4.038 3.41 1.85 1.663 7.32-1.278 10.554z" fill="#000" fill-rule="evenodd"/></svg>