<svg width="107" height="107" viewBox="0 0 107 107" xmlns="http://www.w3.org/2000/svg"><title>Oval 53</title><path d="M101.644 41.945A49.632 49.632 0 0 1 103 53.5c0 27.338-22.162 49.5-49.5 49.5a49.285 49.285 0 0 1-23.009-5.661l71.153-55.394zm-.182-.737c-2.348-9.189-7.267-17.348-13.945-23.668L8.09 73.235c.048.112.097.224.147.335l93.224-32.362zM86.953 17.015C78.143 8.933 66.398 4 53.5 4 31.878 4 13.494 17.863 6.752 37.185l80.201-20.17zM53.5 107c29.547 0 53.5-23.953 53.5-53.5S83.047 0 53.5 0 0 23.953 0 53.5 23.953 107 53.5 107z" fill="#253044" fill-rule="evenodd"/></svg>