<svg width="40" height="48" viewBox="0 0 40 48" xmlns="http://www.w3.org/2000/svg"><title>Decrease Costs</title><path d="M.483 25.854C8.226 34.203 17.805 45.203 18.5 45.978c.977 1.011 2.179.987 3 0l5.838-6.433c.823-.875.199-1.167-.376-1.862-1.722-1.972-1.493-4.542-1.095-5.16 1.117-1.733 2.428-2.682 4.666-3.051.284-.047.318-.259.318-.857s.072-.822 1.227-.822c.924 0 1.183.01 1.76.01.498 0 .708.272.736.508.041.337.032.74.186.903.154.164.585.276.914.342.23.045.63-.183.967-.567.827-.944 2.357-2.694 3.044-3.491.763-.887.03-1.5-.736-1.5-3.956 0-9.516.06-10.949.002-1.577-.006-1.98-.636-2-1.84 0 0 .02-17.413 0-18.968C26.08 1.13 23.86 0 22.224 0H17.52C15.916 0 13.963 1.03 14 3.214V22c.067 1.364-.8 2-2.034 2 0 0-6.804-.003-10.665-.003-.843 0-1.805.792-.818 1.857zm36.93 17.935c-1.005.815-2.357 1.277-4.055 1.385v1.896h-1.386v-1.896c-1.305-.054-2.47-.312-3.496-.774-1.025-.462-1.851-1.067-2.476-1.814L28.476 40c.856 1.182 2.219 2.036 3.496 2.24v-3.302l-1.02-.225c-1.33-.312-2.35-.828-3.056-1.549-.707-.72-1.06-1.596-1.06-2.629 0-1.21.455-2.174 1.365-2.894.91-.72 2.168-1.121 3.77-1.203v-1.854h1.387v1.854c2.024.136 3.77.83 5.238 2.08l-2.405 2.486c-.788-.965-1.732-1.55-2.833-1.753v2.731l1.284.306c1.495.34 2.582.856 3.261 1.549.68.693 1.02 1.624 1.02 2.792 0 1.291-.504 2.344-1.51 3.16zm-6.735-8.673c.237.197.669.377 1.294.54V33.17c-.53.027-.938.142-1.223.346a.954.954 0 0 0-.428.815c0 .326.119.588.357.785zm4.096 6.726c.347-.251.52-.574.52-.968 0-.421-.146-.75-.438-.989-.292-.237-.792-.445-1.498-.621V42.3c.598-.055 1.07-.208 1.416-.459z" fill="#000" fill-rule="evenodd"/></svg>