<svg width="107" height="107" viewBox="0 0 107 107" xmlns="http://www.w3.org/2000/svg"><title>Stratum1</title><path d="M99.61 36.323a48.83 48.83 0 0 1 2.302 8.41L66.08 64.593 30.543 47.262 99.61 36.323zM20.416 89.905C10.521 80.907 4.31 67.93 4.31 53.5c0-4.171.519-8.221 1.496-12.089l54.31 26.49-39.698 22.004zm4.704 3.78A48.966 48.966 0 0 0 53.5 102.69c27.168 0 49.191-22.023 49.191-49.191 0-.93-.026-1.854-.076-2.771L25.12 93.684zM53.5 107c29.547 0 53.5-23.953 53.5-53.5S83.047 0 53.5 0 0 23.953 0 53.5 23.953 107 53.5 107z" fill="#1055FF" fill-rule="evenodd"/></svg>