<svg xmlns="http://www.w3.org/2000/svg" width="32" height="20" viewBox="0 0 32 20"><path d="M2.013 0h26.974C30.099 0 31 .933 31 2.083v15.834c0 1.15-.901 2.083-2.013 2.083H2.013C.901 20 0 19.067 0 17.917V2.083C0 .933.901 0 2.013 0zm-.006 1C1.45 1 1 1.469 1 2.047v15.906C1 18.531 1.45 19 2.007 19h26.986C29.55 19 30 18.531 30 17.953V2.047C30 1.469 29.55 1 28.993 1H2.007zm13.15 11.106l2.321 3.086 1.866-5.765L24.868 3l1.737 2.984L29 3.834V18H13l2.157-5.894zM3 3h7a1 1 0 0 1 0 2H3a1 1 0 1 1 0-2zm0 4h7a1 1 0 0 1 0 2H3a1 1 0 1 1 0-2zm0 4h7a1 1 0 0 1 0 2H3a1 1 0 0 1 0-2zm0 4h7a1 1 0 0 1 0 2H3a1 1 0 0 1 0-2z"/></svg>