<svg xmlns="http://www.w3.org/2000/svg" width="96" height="96" viewBox="0 0 96 96"><path d="M84.834 29.334v6.568l2.833 1.751v5.036L48 67.539 8.334 42.688v-5.036l2.833-1.751v-6.568l-8.5 5.364V96h90.667V34.698l-8.5-5.364zm2.833 58.018L60.24 66.444l27.427-17.296v38.204zM55.254 69.51L82.68 90.527H12.867L40.52 69.399 48 74.107l7.254-4.598zm-19.72-3.284l-27.2 20.799V49.148l27.2 17.077z"/><path d="M21.576 45.334V8.609h50.182v36.725l5.576-3.922V2.667H16v38.745z"/><path d="M29.334 18.667H64v2.667H29.334v-2.667zm0 5.333H64v2.667H29.334V24zm0 5.334H64V32H29.334v-2.666zm0 5.333h24v2.667h-24v-2.667z"/></svg>