<svg width="50" height="36" viewBox="0 0 50 36" xmlns="http://www.w3.org/2000/svg"><title>Folder</title><path d="M2.46 8C1.273 8-.064 9.553.02 10.98l1.254 22.196C1.357 34.604 2.46 36 4.13 36h41.309c1.553 0 2.655-1.4 3.091-2.829L50 10.984C50 9.122 48.53 8 46.991 8c0 0 0-2.807-.698-3.68-.206-.32-.557-.32-.687-.32-9.451-.002-12.718 0-24.106 0-.705 0-1-.343-1-1.5 0-.544-.098-2.5-2.5-2.5H6C4.129 0 3 .72 3 2.983V8h-.54zm1.47 1.5c-1.692 0-2.445.53-2.44 1.48l1.255 20.725c.211 2.59 1.185 2.795 2.738 2.795h38.484c2.573 0 2.828-.658 3.092-2.8l1.47-20.716C48.53 9.5 47.06 9.5 45.52 9.5H3.93zm2.666-8C5.37 1.5 4.5 1.5 4.5 3.027v3.467C4.5 7.247 4.996 8 5.493 8h38.89c.373 0 1.143-.438 1.103-.948-.038-.492-.138-1.052-.384-1.348-.149-.204-.262-.204-.342-.204H21.5c-1.014 0-2.5-.544-2.5-2.068V2.5c0-.464-.372-1-.988-1H6.596z" fill="#242F36" fill-rule="evenodd"/></svg>