<svg width="50" height="47" viewBox="0 0 50 47" xmlns="http://www.w3.org/2000/svg"><title>Shape</title><path d="M14.084 16.3l5.896 5.897c.541.541.655 1.504-.008 2.159l-3.197 3.158c-.307.304-1.073.564-1.532.52l-5.238-.499c-.74-.07-1.616.313-2.036.74l-2.494 2.528c-.493.5-.904 1.45-1 2.081l-.63 4.127c-.076.499.21 1.933.648 2.371l1.134 1.135c.496.495 1.152.546 1.647.05l3.753-3.752c.379-.38 1.13-.387 1.648.13l1.13 1.131c.39.39.345 1.212-.092 1.643L10.397 43c-.682.675-.621 1.608-.122 2.107l.968.968c.483.483 1.421.755 2.009.677l4.43-.59c.466-.063 1.878-.668 2.36-1.15l2.019-2.02c.687-.687 1.078-2.125.996-3.091l-.33-3.897c-.089-1.054.496-2.392 1.141-3.029l2.51-2.48c.562-.554 1.439-.4 1.951.115l12.35 12.397c1.2 1.204 2.872.958 3.832-.003l3.024-3.024c.815-.814.638-2.077-.08-2.798L33.664 23.337l3.154-3.105c.32-.315 1.087-.586 1.537-.543l4.628.44c1.102.106 2.404-.405 2.983-.984l2.031-2.031c.57-.571 1.069-1.714 1.185-2.474l.631-4.137c.062-.41-.143-1.556-.473-1.886l-1.27-1.27c-.543-.544-1.466-.392-2.004.146L42.56 11c-.452.452-1.096.358-1.466-.012l-1.301-1.301c-.45-.45-.375-1.146.01-1.53l3.586-3.587c.586-.586.513-1.392.073-1.832l-.753-.753c-.653-.653-2.134-1.04-3.1-.91l-3.305.44c-1.05.14-2.318.79-2.872 1.343l-1.913 1.913c-.664.664-1.05 1.962-.98 2.802l.36 4.245c.085 1.003-.318 2.118-.776 2.576l-2.7 2.7L21 10.625c-.582-.586-.564-1.765.036-2.358l1.927-1.904c1.055-1.043.96-2.685.086-3.558l-1.49-1.49C20.798.553 19.347 0 18.45 0h-3.876c-.774 0-3.125.79-3.927 1.58l-9.093 8.964c-.91.846-.909 2.18-.262 2.826l5.694 5.694c.941.941 2.305.766 3.08 0l2.868-2.834c.338-.334.764-.314 1.149.07zm6.476 25.742l-1.475 1.475c-.412.412-1.804.948-2.295 1.01l-3.419.431c-.326.042-.83-.084-1.034-.276l-.108-.102c-.25-.236-.1-.874.1-1.075 1.243-1.243 2.102-2.18 3.351-3.416.79-.781.731-1.822 0-2.58-.736-.764-1.44-1.57-2.609-2.676-.566-.536-2.044-.47-2.575.004-1.25 1.113-2.367 2.366-3.55 3.55-.235.234-.608.332-.772.168l-.118-.119c-.286-.285-.487-1.138-.444-1.42l.596-3.958c.046-.31.336-.862.579-1.105l1.957-1.957c.43-.43 1.412-.64 2.116-.574l5.138.49c.505.048 1.076-.192 1.348-.46l3.78-3.74c.71-.703 1.675-.636 2.088-.222l1.805 1.804c.53.53.369 1.744.023 2.086l-3.014 2.981c-.629.622-1.173 2.243-1.131 2.742l.396 4.676c.06.706-.228 1.759-.733 2.263zM32.934 5.806l1.797-1.798c.313-.312 1.047-.677 1.713-.762l3.688-.465c.383-.049.874.01 1.018.155l.233.232c.254.254.035.98-.2 1.216l-3.144 3.143c-.729.729-.9 1.987-.057 2.805.664.643 1.504 1.465 2.388 2.35.616.615 2.287.744 3.031 0 .946-.946 1.974-1.99 3.351-3.366.195-.195.546-.233.74-.038l.2.2c.22.22.394.75.32 1.247l-.486 3.227c-.105.696-.545 1.727-1.038 2.22l-1.564 1.565c-.38.379-1.184.717-1.874.652l-4.737-.452c-.75-.071-2.037.389-2.575.92l-3.3 3.255-3.85-3.792 3.12-3.12c.54-.54 1.027-1.781.944-2.856l-.36-4.691c-.044-.56.202-1.408.642-1.847zM14.7 1.809h3.436c.705 0 1.801.391 2.299.888l.582.583c.665.664.507 2.142.096 2.548l-2.163 2.138a27532499752421010 27532499752421010 0 0 0 7.83 10.996l5.018 5.017 13.326 13.38c1.141 1.027 1.245 1.554.014 2.587l-1.049 1.017c-1.097 1.08-1.887 1.08-3.076-.132L27.362 27.13l-3.791-3.793-8.997-9.049a1.499 1.499 0 0 0-2.117.022l-2.745 2.713c-.597.59-1.986.388-2.382-.008l-3.872-3.872c-.504-.504-.54-1.468.25-2.244L11.841 2.9c.555-.545 2.275-1.091 2.857-1.091z" fill="#000" fill-rule="evenodd"/></svg>