<svg width="50" height="45" viewBox="0 0 50 45" xmlns="http://www.w3.org/2000/svg"><title>Inheritance</title><path d="M49.417 26.295c-.489-.612-1.239-.949-2.11-.949-.51 0-1.047.115-1.574.297-.561-.765-1.519-1.206-2.669-1.206a4.78 4.78 0 0 0-.652.045c-.793.11-1.545.434-2.236.823-.377-.25-.903-.43-1.64-.43-1.081 0-2.406.397-2.955.606-1.665.636-3.277 1.381-4.92 2.152l-.002.002-.003.001c-.008.004-.656.31-1.321.574-1.538-.657-2.937-1.648-4.417-2.696-1.678-1.189-3.412-2.417-5.456-3.213a10.544 10.544 0 0 0-3.837-.727c-1.367 0-2.732.266-4.058.79a12.97 12.97 0 0 0-3.561 2.147c-.713.598-1.294 1.254-1.856 1.889-.394.445-.766.865-1.16 1.239-.213.187-1.05.613-1.605.896-1.757.896-2.771 1.449-3.18 2.392-.464 1.074-.08 2.543.558 4.663.107.356.229.76.259.91l.35 1.745.698 3.492.48 2.392 2.039-1.338.298-.196c2.705-1.777 5.26-3.455 8.258-3.896.282-.041.577-.062.877-.062 1.832 0 3.72.754 5.717 1.552 1.05.42 2.137.854 3.225 1.172 1.644.48 3.324.724 4.992.724 5.78 0 10.8-2.896 14.526-5.42l.53-.354c3.131-2.09 6.24-4.36 6.853-7.076.278-1.232.127-2.221-.448-2.94zm-1.159 2.498c-.566 2.512-4.722 5.092-6.7 6.43-5.584 3.78-11.46 6.427-18.133 4.477-3.376-.986-6.901-3.241-10.52-2.71-3.478.512-6.358 2.467-9.22 4.344l-1.048-5.236c-.168-.837-1.278-3.77-.92-4.596.339-.785 3.593-1.978 4.402-2.744 1.03-.976 1.85-2.145 2.946-3.065 2.773-2.329 6.35-3.279 9.8-1.937 3.613 1.406 6.343 4.434 9.912 5.927 1.367.572 7.073.937 6.07 2.99-2.034 4.166-14.213-1.507-14.452-.983-.286.628 2.595 2.289 2.993 2.487 2.742 1.362 7.18 1.83 10.169 1.19 1.609-.344 3.838-1.693 3.103-3.813-.623-1.8-3.702-2.252-5.298-2.51 1.58-.742 3.174-1.48 4.807-2.104.806-.308 4.327-1.79 1.934 1.818 2.393-1.818 3.337-2.558 4.534-2.724 1.744-.24 2.365 1.238 0 4.164 2.365-2.356 6.36-4.68 5.621-1.405zM30.072 0c-4.085 0-7.406 3.227-7.406 7.174 0 1.665.596 3.198 1.586 4.418l-3.45 8.632 4.54-1.778 2.213 4.108 2.512-6.634 2.63 6.621 2.07-4.143 4.597 1.94-3.595-8.59a7.003 7.003 0 0 0 1.71-4.574C37.478 3.227 34.156 0 30.071 0zm4.31 12.992l1.722 4.115-2.193-.927-1.029 2.058-1.588-3.999a7.482 7.482 0 0 0 3.089-1.247zm-8.754-.098a7.478 7.478 0 0 0 3.193 1.342l-1.55 4.094-1.1-2.042-2.252.882 1.71-4.276zm4.444-11.196c3.119 0 5.636 2.438 5.636 5.476s-2.517 5.473-5.636 5.473-5.636-2.435-5.636-5.473 2.517-5.476 5.636-5.476z" fill="#000" fill-rule="evenodd"/></svg>