<svg width="50" height="50" viewBox="0 0 50 50" xmlns="http://www.w3.org/2000/svg"><title>Business</title><path d="M37.802 36.073c.418-.03.935-.281 1.72-.75.062-.037.12-.074.178-.111 1.143-.757 1.241-1.303 1.009-3.154a14.95 14.95 0 0 1-.066-.606 2.46 2.46 0 0 0-.161-.664l.099-.029c.566-.167 1.21-.335 1.916-.492a29.382 29.382 0 0 1 5.817-.712C46.189 40.493 36.559 48.75 25 48.75c-11.454 0-21.015-8.109-23.254-18.899.409.01.913.035 1.488.086 1.268.112 2.525.32 3.693.647.67.187 1.292.408 1.858.666-.41.606-.482.839-.738 1.321 0 2.972 2.417 4.04 3.21 3.758.219 2.285 2.068 3.297 4.307 2.768.18.597.492 2.482 3.734 2.482.52.402 1.364 1.26 3.142 1.352.352-.092 1.065 0 2.084-1.042.952.474 2.83.834 3.534.897.649.057 1.942-1.077 2.367-1.716.703.232 1.376.248 1.939.086l.026-.008c-.005.002.206-.054.281-.076.141-.042.267-.087.392-.145.631-.293 1.044-.833 1.189-1.665.968.01 2.25-.41 2.676-1.128.358-.606.411-.698.53-.948.17-.357.28-.706.344-1.113zm-1.19-.644c-.277-.322-1.162-1.567-1.336-1.788a7.474 7.474 0 0 0-.936-1.016 176.14 176.14 0 0 0-2.083-1.778l-.032-.028a776.105 776.105 0 0 0-2.43-2.043l.803-.958a743.057 743.057 0 0 1 2.466 2.074c.977.825 1.709 1.449 2.101 1.793.376.33.73.719 1.095 1.184.224.286 1.13 1.561 1.3 1.745.285.307.176.32 1.321-.364.046-.027.089-.054.129-.081.612-.405.636-.54.458-1.955-.03-.25-.053-.448-.07-.655-.034-.393-.429-1.072-1.113-1.9-.283-.34-.607-.7-.967-1.074a32.63 32.63 0 0 0-1.295-1.266 53.186 53.186 0 0 0-.834-.757c-.135-.121-.251-.227-.38-.347l-.017-.016c.065.06-.489-.459-.715-.668-.384-.355-.865-.793-1.523-1.385-.658-.593-1.682-1.17-3.01-1.738-1.073-.459-3.86-1.436-3.939-1.47-.812-.352-2.885-.806-3.862-.888-.556-.047-1.947.782-2.76 1.673-.864.949-2.874 1.458-4.91 1.573-2.137.121-3.052-.038-3.822-1.13-.438-.621-.581-1.015-.497-1.474.02-.11.21-.744.103-.377.036-.124.057-.228.068-.363.005-.048.005-.048.012-.095.138-.799.608-1.098 2.823-2.216.751-.379 1.15-.595 1.502-.827a14.798 14.798 0 0 0 1.34-.989c-.002.001.74-.609.994-.812.442-.354.89-.693 1.42-1.07 1.44-1.026 2.575-1.23 5.592-1.29a61.374 61.374 0 0 0 1.79-.052c.822-.037 1.575-.009 2.335.088 1.022.13 2.054.377 3.515.822.391.12 1.49.473 2.568.82l-.683-.568c.698-.84.074-1.764-1.273-1.862-.587-.042-3.845-.223-4.242-.247-2.011-.122-3.394-.234-4.258-.364-2.225-.334-4.706-.033-6.911 1.053-.4.197-.859.406-1.373.625-.486.208-1.016.423-1.585.644A93.94 93.94 0 0 1 9.29 15.13a7.599 7.599 0 0 1-.51.158c-2.512.328-4.263.328-5.394.123a5.762 5.762 0 0 1-.11-.02A23.668 23.668 0 0 0 1.25 25c0 1.223.092 2.425.27 3.598.477.003 1.1.03 1.824.094 1.34.118 2.67.339 3.92.688.766.214 1.48.472 2.135.777.397-.746.66-.85 1.065-1.32 1.458-.716 2.318-.385 2.861-.19.629.348 1.066 1.437 1.196 2.013 1.319-.331 2.863.244 3.386 1.639.466-.118 1.497-.713 2.582 1.063.192.871.296 1.46.537 2.548 3.005.514 3.094 2.874 2.933 4.074 0 .346 2.336 1.422 3.938 1.595.65.07.992-.423 1.345-1.1a5.567 5.567 0 0 1-.202-.143c-.444-.331-1.27-.95-2.368-1.776l-.008-.006-1.868-1.404-.848-.638.752-1a3853.325 3853.325 0 0 0 2.715 2.043l.007.006c1.098.824 1.923 1.443 2.365 1.772.853.635 1.676.782 2.229.622l.04-.012c.01-.002.207-.054.262-.07.086-.026.156-.051.218-.08.34-.158.524-.471.524-1.257 0-.362-.653-1.248-1.775-2.34a29.388 29.388 0 0 0-1.074-.99 47.981 47.981 0 0 0-2.077-1.72 41.898 41.898 0 0 0-.942-.72l.741-1.007.27.202a51.692 51.692 0 0 1 2.834 2.307c.403.355.778.7 1.12 1.033 1.11 1.08 1.823 1.962 2.063 2.705.17.001.368-.013.563-.042.547-.083.951-.268 1.07-.467.332-.562.38-.647.476-.848.172-.362.256-.7.284-1.22zm3.253-5.759a30.006 30.006 0 0 1 2.362-.623c2.03-.45 4.159-.726 6.295-.744a23.958 23.958 0 0 0-1.019-10.916c-.156.015-.404.035-.734.055-2.963.18-6.32.016-9.516-.758-.506-.123-.999-.26-1.478-.41-.831-.263-4.157-1.343-4.892-1.567-1.399-.427-2.368-.66-3.307-.778a12.109 12.109 0 0 0-2.12-.079c-.539.025-.896.034-1.823.053-2.774.056-3.724.225-4.89 1.057-.512.365-.942.69-1.367 1.03-.246.196-.981.801-.986.805l-.278.223c-.38.3-.738.56-1.162.84-.406.267-.833.498-1.627.9-1.536.774-2.126 1.15-2.154 1.31l.002-.014c-.018.225-.055.411-.114.612.056-.193-.068.22-.073.253-.01.055.025.154.289.527.418.592 1.027.698 2.729.602 1.716-.097 3.493-.547 4.058-1.167 1.048-1.15 2.75-2.165 3.789-2.076 1.101.092 3.303.574 4.254.986.025.011 2.807.986 3.932 1.467 1.444.617 2.574 1.255 3.356 1.96.661.595 1.146 1.036 1.535 1.396.23.212.786.734.718.67l.017.016c.124.115.235.217.364.334.3.267.554.496.849.77.47.437.92.874 1.344 1.314.38.395.726.778 1.03 1.145.233.281.439.55.617.807zm7.19-13.5C43.55 7.426 34.995 1.25 25 1.25c-9.234 0-17.238 5.27-21.167 12.967 1.006.142 2.557.122 4.67-.144a103.605 103.605 0 0 0 4.535-1.626 52.295 52.295 0 0 0 1.547-.628c.495-.212.934-.411 1.311-.597 2.45-1.206 5.185-1.538 7.65-1.169.814.123 2.174.234 4.147.353.388.023 3.657.205 4.258.249 2.196.159 3.535 2.078 2.232 3.794.847.273 1.626.524 1.968.632.452.143.918.272 1.396.388 3.055.74 6.296.898 9.146.726l.361-.025zM25 50c13.807 0 25-11.193 25-25S38.807 0 25 0 0 11.193 0 25s11.193 25 25 25zm-7.57-14.572a6.41 6.41 0 0 1 .277-1.064c.142-.398.304-.675.424-.759.56-.388 1.105-.258 1.234.526.047.285.1.56.16.839.073.34.287 1.216.292 1.24.068.302.089.468.076.557l.054-.18a14.679 14.679 0 0 0-.481 1.196c-.078.222-.15.443-.212.66a5.774 5.774 0 0 0-.17.874c-.068.55-.142.962-.142.962s-.42.032-.87-.084c-.697-.18-1.107-.528-1.211-1.119-.197-1.106-.107-1.679.3-2.815l.018-.05c.115-.323.174-.498.235-.71l.017-.073zm3.192 2.692c.167-.451.167-.451.167-.753 0-.297.17-.519.348-.46.622.206.904.606 1.017.762.217.302.53.932.53.932.078.656.086 1.59.248 1.852.256.414.657.976.657.976s-.987.556-1.435.44c-.698-.18-1.861-.489-1.966-1.08-.196-1.106.122-1.751.434-2.67zm-7.027-4.1l.018-.033c.598-1.135.794-1.495.93-1.682l.1-.138c.294-.397.435-.444 1.247-.206.34.1.572.313.732.63.147.29.256.51.256.51-.102.24-.208.527-.32.855-.126.372-.258.795-.393 1.26a59.345 59.345 0 0 0-.743 2.816s-1.198.103-2.176-.38c-.422-.209-.628-.586-.672-1.115-.017-.21-.005-.43.028-.63.012-.077.04-.183-.02-.101.204-.275.459-.735 1.013-1.785zm-3.398-2.662c.094-.218.271-.562.498-.9.284-.423.564-.687.727-.72 1.134-.23 1.514-.114 1.76.842.25.965.278 1.198.219 1.36-.02.053-.053.12-.116.228-.015.027-.189.32-.254.435l-.31.552c-.142.245-.272.458-.406.658-.776 1.164-1.373 1.505-1.935 1.035l-.104-.09c-.833-.742-1.053-1.462-.975-2.03.003-.021.005-.03.003-.024l-.063.157.1-.171a21.863 21.863 0 0 1 .793-1.22l.063-.112z" fill="#000" fill-rule="evenodd"/></svg>