<svg width="40" height="50" viewBox="0 0 40 50" xmlns="http://www.w3.org/2000/svg"><title>Decrease Costs</title><path d="M.483 25.854C8.226 34.203 17.805 45.203 18.5 45.978c.977 1.011 2.179.987 3 0 1.946-2.144 2.107-2.353 3.83-4.405 1.259-1.634.871-1.365.497-2.15-1.375-2.845.304-4.822.762-5.38.733-.893 1.532-1.42 2.587-1.567.285-.04 1.092-.376 1.092-.975 0-.598.57-1.498 1.725-1.498h2.017c.736 0 .9.716.9.954 0 .31 1.753-1.665 2.09-2.049.827-.944 1.998-2.613 2.685-3.41.763-.887.03-1.5-.736-1.5-3.956 0-9.516.06-10.949.002-1.577-.006-1.98-.636-2-1.84 0 0 .02-17.413 0-18.968.002-.058.002-.115.002-.17C26 .867 24.09 0 22.5 0h-4.981C15.916 0 13.963 1.03 14 3.214V22c.067 1.364-.8 2-2.034 2 0 0-6.804-.003-10.665-.003-.843 0-1.805.792-.818 1.857zm2.328.457s15.185 17.022 15.82 17.731c.894.925 1.993.902 2.744 0 1.78-1.96.613-.723 2.393-2.684.752-.8.966-1.525.592-2.471-.892-2.918.563-5.02.939-5.573.779-1.144 2.733-1.879 3.178-2.075.239-.105 1.225-1.622 1.358-1.987.132-.365 1.05-.87 2.106-.87h1.448c1.675 0 1.805.176 1.936.4.131.223 1.337-1.362 1.835-2.141.497-.779.236-1.141-.791-1.141-3.618 0-7.608.053-8.918 0-1.442-.006-2.951-.782-2.951-2.5V4.918c0-1.908-.007-3.418-1.503-3.418H17c-1.5 0-1.5 1.547-1.5 3.44v18.177c0 1.116-.983 2.383-2.843 2.383H5.904c-2.404 0-3.583 0-3.093.811zM37.414 46.79c-1.006.815-2.358 1.277-4.056 1.385V50H32v-1.826c-1.304-.054-2.498-.312-3.524-.774-1.025-.462-1.851-1.067-2.476-1.814L28.476 43c.856 1.182 2.219 2.036 3.496 2.24v-3.302l-1.02-.225c-1.33-.312-2.35-.828-3.056-1.549-.707-.72-1.06-1.596-1.06-2.629 0-1.21.455-2.174 1.365-2.894.91-.72 2.168-1.121 3.77-1.203v-1.854h1.387v1.854c2.024.136 3.77.83 5.238 2.08l-2.405 2.486c-.788-.965-1.732-1.55-2.833-1.753v2.731l1.284.306c1.495.34 2.582.856 3.261 1.549.68.693 1.02 1.624 1.02 2.792 0 1.291-.504 2.344-1.51 3.16zm-6.736-8.673c.237.197.669.377 1.294.54V36.17c-.53.027-.938.142-1.223.346a.954.954 0 0 0-.428.815c0 .326.119.588.357.785zm4.096 6.726c.347-.251.52-.574.52-.968 0-.421-.146-.75-.438-.989-.292-.237-.792-.445-1.498-.621V45.3c.598-.055 1.07-.208 1.416-.459z" fill="#000" fill-rule="evenodd"/></svg>