<svg width="50" height="40" viewBox="0 0 50 40" xmlns="http://www.w3.org/2000/svg"><title>Speed to Market</title><path d="M25 0C11.215 0 0 11.215 0 25c0 4.803 1.488 9.248 3.72 13.103.936 1.615 1.85 1.227 2.865.594 5.307-3.31 11.69-5.083 18.415-5.083 6.726 0 13.056 1.825 18.415 5.083 1.504.914 2.248.434 2.864-.594C48.578 34.27 50 29.803 50 25 50 11.215 38.785 0 25 0zm18.35 36.355c-4.815-3.556-11.705-4.693-18.35-4.693-6.487 0-13.039 1.213-17.96 4.482-1.158.768-1.785.996-2.649-.627-1.665-3.13-2.515-6.708-2.515-10.477C1.876 12.29 12.25 1.916 25 1.916c12.75 0 23.124 10.373 23.124 23.124 0 3.926-1.329 7.534-2.72 10.868-.519 1.244-.803 1.37-2.054.447zM26.453 23.62a2.188 2.188 0 0 0-.613-.532 2.206 2.206 0 1 0 .808 3.014c.141-.244.225-.505.265-.767l12.806-4.35-13.266 2.635zm18.309-2.16l-.167-1.323a.975.975 0 1 0-1.939.212l.007.076.104 1.11a58924.86 58924.86 0 0 1 .026 1.26 1.02 1.02 0 0 0 2.037-.112c-.001 0-.035-.611-.068-1.223zm-1.723-6.167l-.353-.662-.172-.321c-.056-.112-.146-.24-.221-.368l-.503-.804-.543-.748c-.089-.117-.166-.238-.255-.34l-.243-.292-.503-.601a.806.806 0 0 0-1.255 1.011l.034.044.44.567.212.273c.078.095.144.208.221.318l.47.696.407.707c.065.116.131.212.187.331l.16.327.33.674.014.028a.892.892 0 1 0 1.573-.84zm-11.495-8.41l.036.016a1658.914 1658.914 0 0 0 .991.423c.117.045.23.112.353.17l.762.382.723.419c.115.07.226.124.333.198l.303.2.624.416.022.014a.723.723 0 0 0 .757-1.231l-.64-.393c-.095-.06-.199-.123-.309-.19-.108-.069-.243-.134-.37-.205l-.82-.437-.83-.38c-.133-.058-.257-.124-.383-.168l-.35-.135-.723-.278a.638.638 0 0 0-.48 1.18zM23.876 5.57c.277-.003.572-.007.867-.009l.848.04c.136.009.263.007.392.023l.362.038a1193.872 1193.872 0 0 0 .766.08.552.552 0 1 0 .076-1.102l-.749-.052-.363-.026c-.127-.01-.273-.006-.418-.01l-.915-.011-.895.04c-.278.008-.55.037-.783.062l-.772.08a.468.468 0 0 0 .08.931l.027-.001.723-.05c.218-.016.469-.036.754-.033zm-6.334.372l-.69.294-.336.142c-.118.046-.244.117-.374.178l-.81.405-.778.448c-.251.138-.472.287-.663.415l-.634.422a.297.297 0 1 0 .32.502l.015-.01.63-.387c.189-.117.407-.254.655-.379l.766-.406.782-.355c.127-.055.24-.117.363-.16l.34-.13.701-.269.013-.005a.382.382 0 1 0-.3-.705zm-7.86 5.601l-.461.592-.224.286c-.081.1-.153.22-.235.337l-.502.742-.447.77c-.069.124-.145.238-.2.356a52.2 52.2 0 0 0-.162.33l-.332.678a.128.128 0 0 0 .227.116l.356-.664.17-.317c.057-.114.137-.224.209-.344l.465-.74.511-.701c.084-.111.155-.223.24-.32l.234-.278.482-.576a.214.214 0 0 0-.033-.304.213.213 0 0 0-.298.037zm-3.88 8.734l-.114 1.219-.024 1.226.067-1.221.156-1.214a.044.044 0 0 0-.039-.049.043.043 0 0 0-.047.04z" fill="#000" fill-rule="evenodd"/></svg>