<svg width="50" height="38" viewBox="0 0 50 38" xmlns="http://www.w3.org/2000/svg"><title>EHRs</title><path d="M0 14.23A3.228 3.228 0 0 1 3.232 11h36.536A3.235 3.235 0 0 1 43 14.23v20.54A3.228 3.228 0 0 1 39.768 38H3.232A3.235 3.235 0 0 1 0 34.77V14.23zm1.5.358c0-1.153.95-2.088 2.108-2.088h35.784c1.164 0 2.108.94 2.108 2.088v19.824c0 1.153-.95 2.088-2.108 2.088H3.608A2.102 2.102 0 0 1 1.5 34.412V14.588zm10.875 8.46c-1.14 0-2.249 1.376-2.249 1.376s-1.108-1.377-2.259-1.377c-1.14 0-2.226.57-2.226 2.26 0 1.193 1.118 2.237 1.118 2.237l3.367 3.356 3.367-3.356s1.119-1.044 1.119-2.238c0-1.689-1.097-2.259-2.237-2.259zM19 23h8v1.5h-8V23zm10 0h6v1.5h-6V23zm-10 4h5v1.5h-5V27zm7 0h9v1.5h-9V27zm-7 4h7v1.5h-7V31zm10 0h2v1.5h-2V31zm4 0h2v1.5h-2V31zM3 16h37v1.5H3V16zm3-2h1.5v2H6v-2zm24 0h1.5v2H30v-2zm5 0h1.5v2H35v-2zM10.157 0h36.686C48.587 0 50 1.398 50 3.11v20.507c0 1.319-1.274 3.382-3.5 3.382l-2 .001v-1.5s1.302-.003 2-.003c1.125 0 2-1.001 2-1.88V3.5c0-1.154-.981-2-2-2H10.53c-1.004 0-2.03.806-2.03 2v6H7V3.11C7 1.393 8.41 0 10.157 0zM42 3h1.5v2H42V3zm-6 0h1.5v2H36V3zM14 3h1.5v2H14V3zm-4 2h37v1.5H10V5z" fill="#242F36" fill-rule="evenodd"/></svg>