<svg width="50" height="42" viewBox="0 0 50 42" xmlns="http://www.w3.org/2000/svg"><title>BAA</title><path d="M45.03 8S45 9.91 45 11.145c0 .285 0 .845-.766.855-.765.01-.734-.551-.734-.827V8.81c0-.655-.663-1.31-1.326-1.31H3C2.094 7.518 1.5 8 1.5 9.099v29.98c0 .474.747 1.421 1.494 1.421h39.078c.476 0 1.428-.664 1.428-1.328v-2.098c0-.358-.053-1.077.723-1.074.777.003.777.687.777 1.031v3.062C45 41.046 43.665 42 42.998 42H2.056C1.028 42 0 40.718 0 40.076V8.222C-.002 6.978.904 6.015 2.094 6c13.799 0 39.17.002 40.974 0 .795.006 1.992.516 1.963 2zM4.01 3h37.044s.94-.012.947.744c.008.756-.954.756-.954.756H4.009S3.008 4.5 3 3.73C2.992 2.958 4.009 3 4.009 3zM39 .727c.013.773-.967.773-.967.773H7.066S5.996 1.5 6 .712C6.004-.077 7.005 0 7.005 0h31.016s.966-.046.979.727zM16.288 25.33c0-1.062-.843-1.911-1.935-1.969v-.11a1.797 1.797 0 0 0 1.554-1.773c0-1.293-.982-2.079-2.645-2.079H9.375v8.334h4.002c1.785 0 2.91-.942 2.91-2.403zm-3.592-4.435c.722 0 1.143.358 1.143.953 0 .59-.45.947-1.224.947h-1.12v-1.9h1.2zm-1.202 3.188h1.27c.879 0 1.37.381 1.37 1.063 0 .704-.48 1.091-1.358 1.091h-1.282v-2.154zm13.936 3.65l-2.801-8.334h-2.593l-2.795 8.334h2.102l.537-1.83h2.72l.52 1.83h2.31zm-4.124-6.457l.895 3.102h-1.917l.912-3.102h.11zm13.15 6.457l-2.801-8.334h-2.593l-2.795 8.334h2.102l.537-1.83h2.72l.52 1.83h2.31zm-4.124-6.457l.896 3.102H29.31l.913-3.102h.11zm17.585-1.333c0-2.155-1.042-3.276-3.646-3.276s-3.646 1.19-3.646 3.276v1.932h-1.042a1.04 1.04 0 0 0-1.041 1.04v7.296c0 .574.463 1.039 1.037 1.039h9.384c.573 0 1.037-.465 1.037-1.04v-7.296c0-.574-.462-1.039-1.042-1.039h-1.041v-1.932zm-6.25 1.932v-1.932c0-1.117.157-2.235 2.604-2.235 2.446 0 2.604 1.107 2.604 2.235v1.932h-5.208zm7.291 1.042v7.291h-9.375v-7.291h9.375zm-3.125 3.645a1.562 1.562 0 1 0-3.125 0 1.562 1.562 0 0 0 3.125 0z" fill="#000" fill-rule="evenodd"/></svg>