<svg width="50" height="50" viewBox="0 0 50 50" xmlns="http://www.w3.org/2000/svg"><title>Compliant Infrastructure</title><path d="M2.044 0h38.958C42.001 0 43 1.401 43 2.102v9.99c0 .954-.997 1.908-1.995 1.908H2.023C.72 14 0 12.697 0 12.046V2.02C0 1.01 1.362 0 2.044 0zM3.4 1.5h36.24c.93 0 1.859 1.1 1.859 1.651v7.85c0 .75-.928 1.499-1.856 1.499H3.382c-1.213 0-1.882-1.024-1.882-1.536V3.087C1.5 2.293 2.767 1.5 3.401 1.5zM4 14h1.5v2H4v-2zm0 16h1.5v2H4v-2zm34.5-16H40v2h-1.5v-2zM2 16h39.488c.504 0 1.512.688 1.512 1.4v2.107c0 .246-.448.493-.799.493-.35 0-.701-.266-.701-.531 0-.203-.012-1.969 0-.969 0 0 .031-1-.649-1H2.537c-.518 0-1.037.685-1.037 1.028v9.015c0 .478.515.957 1.03.957H23.01s.989.044.989.772-1.01.728-1.01.728H2.037C1.018 30 0 29.009 0 28.018v-9.949C0 17.38 1 16 2 16zm5.5 8.5a1.5 1.5 0 1 0 0-3 1.5 1.5 0 0 0 0 3zM1.993 32h21.063s.974.127.944.814c-.03.686-.954.686-.954.686H2.436c-.468 0-.936.644-.936.966v9.166c0 .434.452.868.904.868h23.589s.997-.057 1.007.786c.01.842-.979.714-.979.714H2.033C1.017 46 0 45.023 0 44.046V34.12C0 33.413.997 32 1.993 32zM7.5 40.5a1.5 1.5 0 1 0 0-3 1.5 1.5 0 0 0 0 3zm19.707-.2c.176.46.418.97.74 1.518.908 1.551 2.257 3.098 4.13 4.536 1.716 1.32 3.796 2.483 6.273 3.453l.173.067.164-.084.129-.067.355-.189c.382-.205.808-.44 1.266-.703a52.88 52.88 0 0 0 3.842-2.41c1.766-1.224 3.204-2.42 4.2-3.557C49.462 41.74 50 40.691 50 39.718V23.29l-.346-.057a40.59 40.59 0 0 0-.334-.053l-.91-.14c-.958-.144-1.972-.288-2.996-.423-.758-.1-1.494-.19-2.197-.27C41.249 22.125 39.638 22 38.5 22c-1.145 0-2.76.167-4.732.464-.704.106-1.44.227-2.2.36a126.466 126.466 0 0 0-4.243.822l-.325.07v15.885l.01.092c.027.118.09.325.197.607zm1.047-.847V24.528l-.312.386a29.577 29.577 0 0 1 .317-.067 120.59 120.59 0 0 1 3.726-.716 89.252 89.252 0 0 1 2.092-.343c1.857-.28 3.374-.436 4.423-.436 1.056 0 2.577.117 4.438.328.67.076 1.371.162 2.095.258a157.304 157.304 0 0 1 4.046.587l-.332-.39v15.43c0 .704-.433 1.55-1.265 2.5-.905 1.033-2.239 2.143-3.886 3.285a49.977 49.977 0 0 1-3.63 2.276 51.944 51.944 0 0 1-1.646.902l.324-.016c-2.308-.903-4.24-1.984-5.827-3.204-1.715-1.317-2.942-2.724-3.763-4.127a9.066 9.066 0 0 1-.653-1.338 5.312 5.312 0 0 1-.157-.477l.01.087zm11.118-9.517a.936.936 0 1 0-1.872 0v.579l1.872-.374v-.205zm0 15.433a.937.937 0 0 1-1.872 0v-3.946l1.872-.245v4.191zm0-12.99l-1.872.422v6.39l1.872-.307V32.38zm3.664-1.612a27.752 27.752 0 0 0-4.276.172c-2.42.302-4.047.933-4.551 2.12-.594 1.396.126 2.461 1.563 3.171.03.015 1.003.51 1.035.524v-1.207c-.152 0-.103-.022-.52-.165-1.08-.512-1.514-1.125-1.169-1.937.312-.732 1.689-1.266 3.765-1.525a26.817 26.817 0 0 1 4.183-.163l.047-.987-.077-.003zm-3.016 6.61c.626.202.944.96.733 1.263-.429.615-1.133.924-2.307 1.11-.23.036-.328.049-.856.115-1.445.181-2.015.344-2.444.913-.613.816-.666 1.601-.357 2.242.07.146.146.254.207.324l-.053-.072c.061.1.176.257.35.45.28.312.63.62 1.056.907.14.095.46.284.552.327V43.81a4.7 4.7 0 0 1-.874-.749 3.033 3.033 0 0 1-.239-.301l-.023-.039-.03-.034a.587.587 0 0 1-.056-.096c-.153-.318-.127-.708.257-1.218.194-.258.637-.385 1.776-.527.542-.068.644-.082.888-.12 1.415-.224 2.344-.632 2.964-1.52.49-.704.411-1.414-.144-1.967-.387-.386-.638-.71-1.4-.956v1.094zm-.231 8.467c.246.03.5.05.762.062l.045-.987a9.397 9.397 0 0 1-.772-.066c-.035.383 0 .789-.035.991zm-1.523-15.753a2.515 2.515 0 1 0-2.516-2.514 2.515 2.515 0 0 0 2.516 2.514z" fill="#242F36" fill-rule="evenodd"/></svg>