<svg width="50" height="35" viewBox="0 0 50 35" xmlns="http://www.w3.org/2000/svg"><title>IDS</title><path d="M24.903 0C8.56 0 .389 15.824.13 16.472c-.13.26-.13.519-.13.778 0 1.038 2.983 5.577 6.355 8.95 5.448 5.447 11.803 8.3 18.677 8.3 16.213 0 24.384-15.823 24.773-16.471.26-.52.26-1.038 0-1.427C49.416 15.694 41.245 0 24.903 0zm0 33C11.157 33 4.314 20.791 1.5 17.26c0 0 9.075-15.893 23.403-15.893 14.18 0 23.597 15.745 23.597 15.745S38.649 33 24.903 33zm13.03-15.78c.06-.174.085-.212.084-.249-.146-5.302-4.18-10.098-9.549-11.334-.304-.07-.65-.08-.954-.019-1.679.335-3.234.959-4.622 1.937a9.947 9.947 0 0 0-3.514 4.375c1.15-1.07 2.456-1.908 4.031-2.178 4-.686 7.639.23 10.883 2.536 1.718 1.221 2.854 2.886 3.641 4.932zM25.88 29.495c.22-.023.498-.054.776-.08 5.388-.51 9.864-4.312 11.04-9.389.045-.196.066-.418.021-.612-.824-3.523-2.824-6.173-6.286-7.726-.157-.07-.321-.126-.505-.198.478.583.962 1.095 1.355 1.664 1.238 1.794 1.462 3.785 1.197 5.874-.425 3.336-1.629 6.315-4.405 8.503-.973.767-2.131 1.32-3.193 1.964zm-13.086-11.98c-.054.152-.078.189-.077.225.13 5.485 4.425 10.417 10.009 11.479.246.047.542.064.766-.022 1.303-.5 2.668-.912 3.87-1.586 2.002-1.124 3.313-2.867 4.14-4.946a8.567 8.567 0 0 1-4.528 2.43c-1.473.29-2.949.164-4.407-.1-4.108-.741-7.382-2.621-9.265-6.353-.167-.332-.307-.678-.508-1.127zM25.456 5.332c-.178-.058-.216-.081-.254-.082-5.658-.05-11.062 4.168-12.175 9.507-.034.16-.053.336-.017.491.663 2.873 2.099 5.276 4.696 6.94.65.416 1.365.74 2.05 1.107l.122-.167c-.214-.176-.455-.33-.638-.532-1.626-1.794-2.268-3.867-2.019-6.24.254-2.421.89-4.707 2.307-6.747 1.418-2.044 3.374-3.438 5.928-4.277z" fill="#000" fill-rule="evenodd"/></svg>