<?xml version="1.0" encoding="utf-8"?>
<!-- Generator: Adobe Illustrator 23.0.6, SVG Export Plug-In . SVG Version: 6.00 Build 0)  -->
<svg version="1.1" id="Layer_1" xmlns="http://www.w3.org/2000/svg" xmlns:xlink="http://www.w3.org/1999/xlink" x="0px" y="0px"
	 viewBox="0 0 612 711.34" enable-background="new 0 0 612 711.34" xml:space="preserve">
<defs>
	<filter id="Adobe_OpacityMaskFilter" filterUnits="userSpaceOnUse" x="0" y="0" width="612" height="711.34">
		<feColorMatrix  type="matrix" values="1 0 0 0 0  0 1 0 0 0  0 0 1 0 0  0 0 0 1 0"/>
	</filter>
</defs>
<mask maskUnits="userSpaceOnUse" x="0" y="0" width="612" height="711.34" id="mask0_1_">
	<g id="network_1_" filter="url(#Adobe_OpacityMaskFilter)">
		<path id="Vector_1_" fill="#FFFFFF" d="M208,469.95c1.47-1.1,1.74-3.22,0.6-4.71c-1.15-1.5-3.27-1.81-4.74-0.7
			c-1.47,1.1-1.74,3.21-0.6,4.71C204.4,470.74,206.52,471.05,208,469.95z"/>
		<path id="Vector_2_1_" fill="#FFFFFF" d="M117.76,443.58c1.68-1.26,1.98-3.66,0.68-5.36c-1.3-1.7-3.72-2.06-5.4-0.8
			c-1.68,1.26-1.98,3.66-0.68,5.36C113.67,444.48,116.08,444.84,117.76,443.58z"/>
		<path id="Vector_3_1_" fill="#FFFFFF" d="M21.66,546.61c1.25-0.94,1.48-2.73,0.51-4.01c-0.97-1.27-2.78-1.54-4.03-0.6
			c-1.25,0.94-1.48,2.73-0.51,4.01C18.6,547.28,20.41,547.55,21.66,546.61z"/>
		<path id="Vector_4_1_" fill="#FFFFFF" d="M54.91,462.42c1.47-1.11,1.74-3.22,0.6-4.71c-1.15-1.49-3.27-1.81-4.74-0.7
			c-1.47,1.11-1.74,3.22-0.6,4.71C51.31,463.21,53.44,463.52,54.91,462.42z"/>
		<path id="Vector_5_1_" fill="#FFFFFF" d="M105.88,492.65c1.24-0.93,1.46-2.71,0.5-3.96c-0.96-1.26-2.75-1.53-3.99-0.59
			c-1.24,0.93-1.46,2.71-0.5,3.96C102.85,493.31,104.64,493.58,105.88,492.65z"/>
		<path id="Vector_6_1_" fill="#FFFFFF" d="M218.52,528.59c1.47-1.11,1.74-3.22,0.6-4.71c-1.15-1.49-3.27-1.81-4.74-0.7
			c-1.47,1.11-1.74,3.22-0.6,4.71C214.92,529.38,217.05,529.7,218.52,528.59z"/>
		<path id="Vector_7_1_" fill="#FFFFFF" d="M167.23,588.64c1.47-1.11,1.74-3.22,0.6-4.71c-1.15-1.49-3.27-1.81-4.74-0.7
			c-1.47,1.11-1.74,3.22-0.6,4.71C163.63,589.43,165.76,589.75,167.23,588.64z"/>
		<path id="Vector_8_1_" fill="#FFFFFF" d="M374.37,552.26c1.21-0.91,1.43-2.65,0.49-3.88c-0.94-1.23-2.69-1.49-3.91-0.58
			c-1.21,0.91-1.43,2.65-0.49,3.88C371.4,552.91,373.15,553.17,374.37,552.26z"/>
		<path id="Vector_9_1_" fill="#FFFFFF" d="M421.95,216.72c1.22-0.91,1.43-2.65,0.49-3.88c-0.94-1.23-2.69-1.49-3.91-0.58
			c-1.21,0.91-1.43,2.65-0.49,3.88C418.99,217.37,420.73,217.63,421.95,216.72z"/>
		<path id="Vector_10_1_" fill="#FFFFFF" d="M466.59,246.85c2.34-1.76,2.76-5.11,0.95-7.48c-1.82-2.38-5.19-2.88-7.53-1.12
			c-2.34,1.76-2.76,5.11-0.95,7.48C460.88,248.1,464.25,248.6,466.59,246.85z"/>
		<path id="Vector_11_1_" fill="#FFFFFF" d="M462.7,163.79c2.1-1.57,2.47-4.57,0.85-6.7c-1.63-2.13-4.65-2.58-6.75-1
			c-2.1,1.57-2.48,4.57-0.85,6.7C457.59,164.92,460.61,165.37,462.7,163.79z"/>
		<path id="Vector_12_1_" fill="#FFFFFF" d="M535.27,232.74c1.48-1.11,1.74-3.22,0.6-4.71c-1.15-1.5-3.27-1.81-4.74-0.7
			c-1.47,1.11-1.74,3.22-0.59,4.71S533.79,233.84,535.27,232.74z"/>
		<path id="Vector_13_1_" fill="#FFFFFF" d="M530.36,199.59c1.22-0.91,1.43-2.65,0.49-3.88c-0.94-1.23-2.69-1.49-3.9-0.58
			c-1.22,0.91-1.44,2.65-0.49,3.88C527.4,200.24,529.15,200.5,530.36,199.59z"/>
		<path id="Vector_14_1_" fill="#FFFFFF" d="M595.33,182.42c0.74-0.55,0.87-1.61,0.3-2.36c-0.57-0.75-1.64-0.91-2.37-0.35
			c-0.74,0.55-0.87,1.61-0.3,2.36C593.53,182.81,594.59,182.97,595.33,182.42z"/>
		<path id="Vector_15_1_" fill="#FFFFFF" d="M395.2,138.32c1.21-0.91,1.43-2.65,0.49-3.88c-0.94-1.23-2.69-1.49-3.91-0.58
			c-1.21,0.91-1.43,2.65-0.49,3.88C392.23,138.97,393.98,139.23,395.2,138.32z"/>
		<path id="Vector_16_1_" fill="#FFFFFF" d="M372.21,125.24c1.22-0.91,1.43-2.65,0.49-3.88c-0.94-1.23-2.69-1.49-3.91-0.58
			c-1.21,0.91-1.43,2.65-0.49,3.88C369.24,125.89,370.99,126.15,372.21,125.24z"/>
		<path id="Vector_17_1_" fill="#FFFFFF" d="M432.01,90.79c1.21-0.91,1.43-2.65,0.49-3.88c-0.95-1.23-2.69-1.49-3.91-0.58
			c-1.22,0.91-1.43,2.65-0.49,3.88C429.05,91.45,430.8,91.7,432.01,90.79z"/>
		<path id="Vector_18_1_" fill="#FFFFFF" d="M404.83,100.51c1.21-0.91,1.43-2.65,0.49-3.88c-0.94-1.23-2.69-1.49-3.91-0.58
			c-1.21,0.91-1.43,2.65-0.49,3.88C401.86,101.16,403.61,101.42,404.83,100.51z"/>
		<path id="Vector_19_1_" fill="#FFFFFF" d="M380.65,65.13c0.99-0.75,1.18-2.18,0.4-3.19c-0.77-1.01-2.21-1.23-3.21-0.48
			c-1,0.75-1.18,2.18-0.4,3.19C378.22,65.67,379.65,65.88,380.65,65.13z"/>
		<path id="Vector_20_1_" fill="#FFFFFF" d="M352.27,183.94c1.21-0.91,1.43-2.65,0.49-3.88c-0.94-1.23-2.69-1.49-3.91-0.58
			c-1.21,0.91-1.43,2.65-0.49,3.88C349.31,184.59,351.05,184.85,352.27,183.94z"/>
		<path id="Vector_21_1_" fill="#FFFFFF" d="M302.88,148.59c1.21-0.91,1.43-2.65,0.49-3.88c-0.94-1.23-2.69-1.49-3.91-0.58
			c-1.21,0.91-1.43,2.65-0.49,3.88C299.92,149.24,301.67,149.5,302.88,148.59z"/>
		<path id="Vector_22_1_" fill="#FFFFFF" d="M350.15,55.14c1.21-0.91,1.43-2.65,0.49-3.88c-0.94-1.23-2.69-1.49-3.91-0.58
			c-1.21,0.91-1.43,2.65-0.49,3.88C347.19,55.79,348.94,56.05,350.15,55.14z"/>
		<path id="Vector_23_1_" fill="#FFFFFF" d="M392.2,210.32c1.21-0.91,1.43-2.65,0.49-3.88c-0.94-1.23-2.69-1.49-3.91-0.58
			c-1.21,0.91-1.43,2.65-0.49,3.88C389.23,210.97,390.98,211.23,392.2,210.32z"/>
		<path id="Vector_24_1_" fill="#FFFFFF" d="M345.33,626.88c1.21-0.91,1.43-2.65,0.49-3.88c-0.94-1.23-2.69-1.49-3.91-0.58
			c-1.21,0.91-1.43,2.65-0.49,3.88C342.37,627.53,344.12,627.79,345.33,626.88z"/>
		<path id="Vector_25_1_" fill="#FFFFFF" d="M300.17,691.32c1.21-0.91,1.43-2.65,0.49-3.88c-0.94-1.23-2.69-1.49-3.91-0.58
			c-1.21,0.91-1.43,2.65-0.49,3.88C297.2,691.97,298.95,692.23,300.17,691.32z"/>
		<path id="Vector_26_1_" fill="#FFFFFF" d="M327.22,636.25c1.21-0.91,1.43-2.65,0.49-3.88c-0.94-1.23-2.69-1.49-3.91-0.58
			c-1.21,0.91-1.43,2.65-0.49,3.88C324.26,636.9,326.01,637.16,327.22,636.25z"/>
		<path id="Vector_27_1_" fill="#FFFFFF" d="M384.74,618.1c0.87-0.65,1.02-1.89,0.35-2.77c-0.68-0.88-1.92-1.07-2.79-0.41
			c-0.87,0.65-1.02,1.89-0.35,2.77C382.62,618.56,383.87,618.75,384.74,618.1z"/>
		<path id="Vector_28_1_" fill="#FFFFFF" d="M308.42,464.64c1.69-1.27,2-3.69,0.68-5.4c-1.31-1.71-3.75-2.08-5.44-0.81
			c-1.69,1.27-2,3.69-0.68,5.4C304.29,465.55,306.73,465.91,308.42,464.64z"/>
		<path id="Vector_29_1_" fill="#FFFFFF" d="M318.18,508.12c1.04-0.78,1.23-2.27,0.42-3.32c-0.81-1.06-2.31-1.28-3.35-0.5
			c-1.04,0.78-1.23,2.27-0.42,3.33C315.64,508.68,317.14,508.9,318.18,508.12z"/>
		<path id="Vector_30_1_" fill="#FFFFFF" d="M296.63,426.93c1.17-0.88,1.38-2.55,0.47-3.74c-0.91-1.19-2.6-1.44-3.77-0.56
			c-1.17,0.88-1.38,2.56-0.47,3.74C293.77,427.56,295.46,427.81,296.63,426.93z"/>
		<path id="Vector_31_1_" fill="#FFFFFF" d="M287.19,395.18c1.17-0.88,1.38-2.55,0.47-3.74c-0.91-1.19-2.6-1.44-3.77-0.56
			c-1.17,0.88-1.38,2.56-0.47,3.74C284.33,395.81,286.02,396.06,287.19,395.18z"/>
		<path id="Vector_32_1_" fill="#FFFFFF" d="M303.16,392.84c1-0.75,1.18-2.18,0.4-3.19c-0.77-1.01-2.21-1.22-3.21-0.48
			c-1,0.75-1.18,2.18-0.4,3.19C300.72,393.38,302.16,393.59,303.16,392.84z"/>
		<path id="Vector_33_1_" fill="#FFFFFF" d="M292.26,502.68c0.87-0.65,1.02-1.89,0.35-2.77c-0.67-0.88-1.92-1.07-2.79-0.41
			c-0.87,0.65-1.02,1.89-0.35,2.77C290.14,503.14,291.39,503.33,292.26,502.68z"/>
		<path id="Vector_34_1_" fill="#FFFFFF" d="M319.29,537.92c1.3-0.97,1.54-2.84,0.53-4.16c-1.01-1.32-2.88-1.6-4.18-0.62
			c-1.3,0.97-1.54,2.84-0.52,4.16S317.99,538.9,319.29,537.92z"/>
		<path id="Vector_35_1_" fill="#FFFFFF" d="M334.91,551.54c1.47-1.11,1.8-3.15,0.72-4.55c-1.08-1.41-3.15-1.65-4.62-0.55
			c-1.47,1.1-1.8,3.14-0.72,4.55C331.37,552.41,333.44,552.65,334.91,551.54z"/>
		<path id="Vector_36_1_" fill="#FFFFFF" d="M308.91,555.65c1-0.75,1.18-2.18,0.4-3.19c-0.77-1.01-2.21-1.22-3.21-0.48
			c-1,0.75-1.18,2.18-0.4,3.19C306.48,556.18,307.91,556.39,308.91,555.65z"/>
		<path id="Vector_37_1_" fill="#FFFFFF" d="M329.51,569.07c0.87-0.65,1.02-1.89,0.35-2.77c-0.67-0.88-1.92-1.06-2.79-0.41
			c-0.87,0.65-1.02,1.89-0.35,2.77S328.65,569.72,329.51,569.07z"/>
		<path id="Vector_38_1_" fill="#FFFFFF" d="M310.45,603.67c1-0.75,1.18-2.18,0.4-3.19c-0.77-1.01-2.21-1.22-3.21-0.48
			c-1,0.75-1.18,2.18-0.4,3.19C308.02,604.2,309.45,604.41,310.45,603.67z"/>
		<path id="Vector_39_1_" fill="#FFFFFF" d="M307.27,406.68c0.78-0.58,0.92-1.7,0.31-2.49c-0.61-0.79-1.73-0.96-2.51-0.37
			c-0.78,0.59-0.92,1.7-0.31,2.49C305.36,407.1,306.49,407.27,307.27,406.68z"/>
		<path id="Vector_40_1_" fill="#FFFFFF" d="M315.96,369.28c0.78-0.59,0.92-1.7,0.32-2.49c-0.61-0.79-1.73-0.96-2.51-0.37
			c-0.78,0.59-0.92,1.7-0.31,2.49C314.05,369.7,315.18,369.87,315.96,369.28z"/>
		<path id="Vector_41_1_" fill="none" stroke="#FFFFFF" stroke-width="0.75" d="M205.73,467.01l79.2-74.17"/>
		<path id="Vector_42_1_" fill="none" stroke="#FFFFFF" stroke-width="0.75" d="M285.55,392.95l9.79,31.65"/>
		<path id="Vector_43_1_" fill="none" stroke="#FFFFFF" stroke-width="0.75" d="M295.14,425.44l-89.11,41.72"/>
		<path id="Vector_44_1_" fill="none" stroke="#FFFFFF" stroke-width="0.75" d="M294.57,424.55l11.19-19.46"/>
		<path id="Vector_45_1_" fill="none" stroke="#FFFFFF" stroke-width="0.75" d="M306.01,405.66l-20.85-12.42"/>
		<path id="Vector_46_1_" fill="none" stroke="#FFFFFF" stroke-width="0.75" d="M294.97,424.71l11.45,36.64"/>
		<path id="Vector_47_1_" fill="none" stroke="#FFFFFF" stroke-width="0.75" d="M305.83,461.42l-0.37-56.07"/>
		<path id="Vector_48_1_" fill="none" stroke="#FFFFFF" stroke-width="0.75" d="M306.01,461.71l-14.22,39.3"/>
		<path id="Vector_49_1_" fill="none" stroke="#FFFFFF" stroke-width="0.75" d="M291.07,500.58l25.76,5.42"/>
		<path id="Vector_50_1_" fill="none" stroke="#FFFFFF" stroke-width="0.75" d="M316.6,506.23l-11.35-44.55"/>
		<path id="Vector_51_1_" fill="none" stroke="#FFFFFF" stroke-width="0.75" d="M316.91,506.25l0.9,29.37"/>
		<path id="Vector_52_1_" fill="none" stroke="#FFFFFF" stroke-width="0.75" d="M291.33,500.86l26.23,34.6"/>
		<path id="Vector_53_1_" fill="none" stroke="#FFFFFF" stroke-width="0.75" d="M317.51,535.88l-9.61,18.26"/>
		<path id="Vector_54_1_" fill="none" stroke="#FFFFFF" stroke-width="0.75" d="M317.65,535.46l11.17,31.85"/>
		<path id="Vector_55_1_" fill="none" stroke="#FFFFFF" stroke-width="0.75" d="M383.94,616.16L371.9,550.2"/>
		<path id="Vector_56_1_" fill="none" stroke="#FFFFFF" stroke-width="0.75" d="M307.57,554.06l2.11,47.85"/>
		<path id="Vector_57_1_" fill="none" stroke="#FFFFFF" stroke-width="0.75" d="M308.85,601.79l18.96-34.45"/>
		<path id="Vector_58_1_" fill="none" stroke="#FFFFFF" stroke-width="0.75" d="M317.49,535.35l15.72,13.41"/>
		<path id="Vector_59_1_" fill="none" stroke="#FFFFFF" stroke-width="0.75" d="M333.22,549.12l-4.46,18.42"/>
		<path id="Vector_60_1_" fill="none" stroke="#FFFFFF" stroke-width="0.75" d="M305.89,405.34l-4.74-14.22"/>
		<path id="Vector_61_1_" fill="none" stroke="#FFFFFF" stroke-width="0.75" d="M301.65,391.45l-16.27,1.83"/>
		<path id="Vector_62_1_" fill="#FFFFFF" d="M354.19,457.48c1.47-1.1,1.74-3.21,0.6-4.71c-1.15-1.5-3.27-1.81-4.74-0.7
			c-1.47,1.11-1.74,3.22-0.6,4.71C350.6,458.27,352.72,458.59,354.19,457.48z"/>
		<path id="Vector_63_1_" fill="#FFFFFF" d="M335.84,342.73c1.17-0.88,1.38-2.55,0.47-3.74c-0.91-1.19-2.6-1.44-3.77-0.56
			c-1.17,0.88-1.38,2.55-0.47,3.74C332.98,343.36,334.67,343.61,335.84,342.73z"/>
		<path id="Vector_64_1_" fill="#FFFFFF" d="M365.03,413.68c1.17-0.88,1.38-2.55,0.47-3.74c-0.91-1.19-2.6-1.44-3.77-0.56
			c-1.17,0.88-1.38,2.55-0.47,3.74C362.17,414.31,363.86,414.56,365.03,413.68z"/>
		<path id="Vector_65_1_" fill="#FFFFFF" d="M337.13,391.64c1.95-1.46,2.3-4.25,0.79-6.23c-1.52-1.98-4.33-2.4-6.28-0.93
			c-1.95,1.46-2.3,4.25-0.79,6.24C332.37,392.69,335.18,393.11,337.13,391.64z"/>
		<path id="Vector_66_1_" fill="#FFFFFF" d="M366.63,348.46c1-0.75,1.18-2.18,0.4-3.19c-0.77-1.01-2.21-1.23-3.21-0.48
			c-1,0.75-1.18,2.18-0.4,3.19C364.2,348.99,365.64,349.2,366.63,348.46z"/>
		<path id="Vector_67_1_" fill="#FFFFFF" d="M385.38,313.85c0.78-0.59,0.92-1.7,0.32-2.49c-0.61-0.79-1.73-0.96-2.51-0.37
			c-0.78,0.59-0.92,1.7-0.32,2.49C383.47,314.27,384.6,314.43,385.38,313.85z"/>
		<path id="Vector_68_1_" fill="#FFFFFF" d="M406.37,353.03c0.78-0.59,0.92-1.7,0.31-2.49c-0.61-0.79-1.73-0.96-2.51-0.37
			c-0.78,0.59-0.92,1.7-0.32,2.49C404.46,353.45,405.59,353.62,406.37,353.03z"/>
		<path id="Vector_69_1_" fill="none" stroke="#FFFFFF" stroke-width="0.75" d="M305.7,462.94l28.52-75.1"/>
		<path id="Vector_70_1_" fill="none" stroke="#FFFFFF" stroke-width="0.75" d="M314.48,367.26l-12.46,23.86"/>
		<path id="Vector_71_1_" fill="none" stroke="#FFFFFF" stroke-width="0.75" d="M363.4,411.8l-57.43,50.13"/>
		<path id="Vector_72_1_" fill="none" stroke="#FFFFFF" stroke-width="0.75" d="M363.23,411.38l1.27-64.83"/>
		<path id="Vector_73_1_" fill="none" stroke="#FFFFFF" stroke-width="0.75" d="M352.3,455.01l10.3-43.53"/>
		<path id="Vector_74_1_" fill="none" stroke="#FFFFFF" stroke-width="0.75" d="M305.73,460.88l46.41-6.2"/>
		<path id="Vector_75_1_" fill="none" stroke="#FFFFFF" stroke-width="0.75" d="M317,505.64l34.92-50.63"/>
		<path id="Vector_76_1_" fill="#FFFFFF" d="M362.87,228.31c1.04-0.78,1.23-2.27,0.42-3.33c-0.81-1.06-2.31-1.28-3.35-0.5
			c-1.04,0.78-1.23,2.27-0.42,3.33C360.33,228.87,361.83,229.09,362.87,228.31z"/>
		<path id="Vector_77_1_" fill="#FFFFFF" d="M338.21,235.61c0.87-0.65,1.02-1.89,0.35-2.77s-1.92-1.07-2.79-0.41
			c-0.87,0.65-1.02,1.89-0.35,2.77C336.09,236.08,337.34,236.26,338.21,235.61z"/>
		<path id="Vector_78_1_" fill="#FFFFFF" d="M377.38,265.91c1.91-1.43,2.25-4.16,0.77-6.1c-1.48-1.94-4.23-2.34-6.14-0.91
			c-1.91,1.43-2.25,4.16-0.77,6.1C372.72,266.93,375.47,267.34,377.38,265.91z"/>
		<path id="Vector_79_1_" fill="#FFFFFF" d="M407.05,310.39c1.47-1.11,1.8-3.15,0.72-4.55c-1.08-1.41-3.15-1.65-4.62-0.55
			c-1.47,1.11-1.8,3.15-0.72,4.55C403.5,311.25,405.57,311.5,407.05,310.39z"/>
		<path id="Vector_80_1_" fill="#FFFFFF" d="M344.97,266.5c1-0.75,1.18-2.17,0.4-3.19c-0.77-1.01-2.21-1.23-3.21-0.48
			c-1,0.75-1.18,2.18-0.4,3.19C342.54,267.04,343.98,267.25,344.97,266.5z"/>
		<path id="Vector_81_1_" fill="#FFFFFF" d="M376.46,302.49c0.87-0.65,1.02-1.89,0.35-2.77c-0.67-0.88-1.92-1.07-2.79-0.41
			c-0.87,0.65-1.02,1.89-0.35,2.77C374.34,302.96,375.59,303.14,376.46,302.49z"/>
		<path id="Vector_82_1_" fill="#FFFFFF" d="M318.72,307.02c0.91-0.68,1.07-1.99,0.37-2.91c-0.71-0.92-2.02-1.12-2.93-0.44
			c-0.91,0.68-1.07,1.99-0.37,2.91C316.5,307.5,317.81,307.7,318.72,307.02z"/>
		<path id="Vector_83_1_" fill="none" stroke="#FFFFFF" stroke-width="0.75" d="M350.63,181.89l-13.38,52.45"/>
		<path id="Vector_84_1_" fill="none" stroke="#FFFFFF" stroke-width="0.75" d="M336.84,233.53l24.5-7.36"/>
		<path id="Vector_85_1_" fill="none" stroke="#FFFFFF" stroke-width="0.75" d="M361.3,226.42l-11.35-44.55"/>
		<path id="Vector_86_1_" fill="none" stroke="#FFFFFF" stroke-width="0.75" d="M375.69,300.4l-1.79-37.77"/>
		<path id="Vector_87_1_" fill="none" stroke="#FFFFFF" stroke-width="0.75" d="M361.57,226.33l13.45,36.04"/>
		<path id="Vector_88_1_" fill="none" stroke="#FFFFFF" stroke-width="0.75" d="M374.58,263.11l-31.4,1.88"/>
		<path id="Vector_89_1_" fill="none" stroke="#FFFFFF" stroke-width="0.75" d="M343.62,264.72l31.51,36.27"/>
		<path id="Vector_90_1_" fill="none" stroke="#FFFFFF" stroke-width="0.75" d="M375.49,301.58l-57.98,3.58"/>
		<path id="Vector_91_1_" fill="none" stroke="#FFFFFF" stroke-width="0.75" d="M317.68,305.28l17.05,35.15"/>
		<path id="Vector_92_1_" fill="none" stroke="#FFFFFF" stroke-width="0.75" d="M364.56,346.74l10.06-45.85"/>
		<path id="Vector_93_1_" fill="none" stroke="#FFFFFF" stroke-width="0.75" d="M375.28,300.37l29.95,7.27"/>
		<path id="Vector_94_1_" fill="none" stroke="#FFFFFF" stroke-width="0.75" d="M405.28,308.13l-40.29,39.02"/>
		<path id="Vector_95_1_" fill="none" stroke="#FFFFFF" stroke-width="0.75" d="M361.95,226.32l-18.08,38.79"/>
		<path id="Vector_96_1_" fill="none" stroke="#FFFFFF" stroke-width="0.75" d="M363,411.88l-29.05-23.65"/>
		<path id="Vector_97_1_" fill="none" stroke="#FFFFFF" stroke-width="0.75" d="M365.23,346.99l-31.14-6.39"/>
		<path id="Vector_98_1_" fill="none" stroke="#FFFFFF" stroke-width="0.75" d="M334.41,340.65l-19.15,27.38"/>
		<path id="Vector_99_1_" fill="none" stroke="#FFFFFF" stroke-width="0.75" d="M364.81,347.16l-30.15,41.06"/>
		<path id="Vector_100_1_" fill="none" stroke="#FFFFFF" stroke-width="0.75" d="M314.52,366.77l19.97,21.05"/>
		<path id="Vector_101_1_" fill="none" stroke="#FFFFFF" stroke-width="0.75" d="M405.29,352.2l-40.15-5.61"/>
		<path id="Vector_102_1_" fill="none" stroke="#FFFFFF" stroke-width="0.75" d="M405.35,351.88l-41.61,59.77"/>
		<path id="Vector_103_1_" fill="none" stroke="#FFFFFF" stroke-width="0.75" d="M334.3,388.6l-32.74,2.56"/>
		<path id="Vector_104_1_" fill="none" stroke="#FFFFFF" stroke-width="0.75" d="M375.54,300.68l8.84,11.66"/>
		<path id="Vector_105_1_" fill="none" stroke="#FFFFFF" stroke-width="0.75" d="M405.21,308.32l-21.08,4.48"/>
		<path id="Vector_106_1_" fill="none" stroke="#FFFFFF" stroke-width="0.75" d="M365.08,346.22l18.72-33.95"/>
		<path id="Vector_107_1_" fill="none" stroke="#FFFFFF" stroke-width="0.75" d="M405.21,307.91l1.09,43.31"/>
		<path id="Vector_108_1_" fill="none" stroke="#FFFFFF" stroke-width="0.75" d="M404.18,307.93l-29.89-45.29"/>
		<path id="Vector_109_1_" fill="none" stroke="#FFFFFF" stroke-width="0.75" d="M317.29,505.44l55.65,44.47"/>
		<path id="Vector_110_1_" fill="none" stroke="#FFFFFF" stroke-width="0.75" d="M372.72,550.64l-39.68-1.31"/>
		<path id="Vector_111_1_" fill="none" stroke="#FFFFFF" stroke-width="0.75" d="M383.66,617.1l-40.03,7.69"/>
		<path id="Vector_112_1_" fill="none" stroke="#FFFFFF" stroke-width="0.75" d="M382.12,614.46l-49.31-65.04"/>
		<path id="Vector_113_1_" fill="none" stroke="#FFFFFF" stroke-width="0.75" d="M204.51,466.99l85.95,33.03"/>
		<path id="Vector_114_1_" fill="none" stroke="#FFFFFF" stroke-width="0.75" d="M215.92,524.74l75.12-23.61"/>
		<path id="Vector_115_1_" fill="none" stroke="#FFFFFF" stroke-width="0.75" d="M216.25,525.78l-50.62,60.34"/>
		<path id="Vector_116_1_" fill="#FFFFFF" d="M231.76,594.51c1.47-1.1,1.74-3.21,0.6-4.71c-1.15-1.5-3.27-1.81-4.74-0.7
			c-1.47,1.1-1.74,3.22-0.6,4.71C228.16,595.3,230.29,595.62,231.76,594.51z"/>
		<path id="Vector_117_1_" fill="none" stroke="#FFFFFF" stroke-width="0.75" d="M229.46,592.15l-64.45-6.22"/>
		<path id="Vector_118_1_" fill="none" stroke="#FFFFFF" stroke-width="0.75" d="M215.54,525.97l14.5,65.95"/>
		<path id="Vector_119_1_" fill="none" stroke="#FFFFFF" stroke-width="0.75" d="M206.08,467.68l10.45,57.46"/>
		<path id="Vector_120_1_" fill="none" stroke="#FFFFFF" stroke-width="0.75" d="M309.19,601.56l34.68,22.92"/>
		<path id="Vector_121_1_" fill="none" stroke="#FFFFFF" stroke-width="0.75" d="M328.33,567.47l15.96,56.99"/>
		<path id="Vector_122_1_" fill="none" stroke="#FFFFFF" stroke-width="0.75" d="M374.63,262.21l15.2-54.14"/>
		<path id="Vector_123_1_" fill="none" stroke="#FFFFFF" stroke-width="0.75" d="M373.15,263.16l46.7-48.9"/>
		<path id="Vector_124_1_" fill="none" stroke="#FFFFFF" stroke-width="0.75" d="M420.21,215.02l-29.85-6.73"/>
		<path id="Vector_125_1_" fill="none" stroke="#FFFFFF" stroke-width="0.75" d="M390.71,208.48l-28.53,17.72"/>
		<path id="Vector_126_1_" fill="none" stroke="#FFFFFF" stroke-width="0.75" d="M390.54,207.95l2.14-71.76"/>
		<path id="Vector_127_1_" fill="none" stroke="#FFFFFF" stroke-width="0.75" d="M349.81,181.87l43.3-46"/>
		<path id="Vector_128_1_" fill="none" stroke="#FFFFFF" stroke-width="0.75" d="M402.05,98.81l-31.9,23.96l-69.74,23.29
			l49.69,35.95l19.92-59.07"/>
		<path id="Vector_129_1_" fill="none" stroke="#FFFFFF" stroke-width="0.75" d="M393.33,136.51l-23.05-13.28"/>
		<path id="Vector_130_1_" fill="none" stroke="#FFFFFF" stroke-width="0.75" d="M393.35,135.81l36.49-47.43"/>
		<path id="Vector_131_1_" fill="none" stroke="#FFFFFF" stroke-width="0.75" d="M430.21,89.13l-51.17-25.91"/>
		<path id="Vector_132_1_" fill="none" stroke="#FFFFFF" stroke-width="0.75" d="M348.11,52.83l22.5,69.99l8.03-59.51"/>
		<path id="Vector_133_1_" fill="none" stroke="#FFFFFF" stroke-width="0.75" d="M402.95,97.79l27.27-9.44"/>
		<path id="Vector_134_1_" fill="#FFFFFF" d="M434.84,23.9c1.22-0.91,1.43-2.65,0.49-3.88c-0.94-1.23-2.69-1.49-3.91-0.58
			c-1.21,0.91-1.43,2.65-0.49,3.88C431.88,24.55,433.63,24.81,434.84,23.9z"/>
		<path id="Vector_135_1_" fill="none" stroke="#FFFFFF" stroke-width="0.75" d="M433.36,21.97l-54.16,41.06"/>
		<path id="Vector_136_1_" fill="none" stroke="#FFFFFF" stroke-width="0.75" d="M430.33,88.43l2.03-66.66"/>
		<path id="Vector_137_1_" fill="none" stroke="#FFFFFF" stroke-width="0.75" d="M403.27,98.44l-9.2,37.68"/>
		<path id="Vector_138_1_" fill="none" stroke="#FFFFFF" stroke-width="0.75" d="M343.68,624.94l-44.68,64.3"/>
		<path id="Vector_139_1_" fill="none" stroke="#FFFFFF" stroke-width="0.75" d="M308.88,602.2l-9.54,86.78"/>
		<path id="Vector_140_1_" fill="none" stroke="#FFFFFF" stroke-width="0.75" d="M308.87,602.58l-93.12-77"/>
		<path id="Vector_141_1_" fill="none" stroke="#FFFFFF" stroke-width="0.75" d="M307.59,554.74l-91.69-29.39"/>
		<path id="Vector_142_1_" fill="none" stroke="#FFFFFF" stroke-width="0.75" d="M343.81,625.05l-18.15,9.23"/>
		<path id="Vector_143_1_" fill="none" stroke="#FFFFFF" stroke-width="0.75" d="M309.23,601.88l16.74,31.94"/>
		<path id="Vector_144_1_" fill="none" stroke="#FFFFFF" stroke-width="0.75" d="M325.58,634.26l-26.53,54.91"/>
		<path id="Vector_145_1_" fill="none" stroke="#FFFFFF" stroke-width="0.75" d="M420.39,214.01l43.46,28.79"/>
		<path id="Vector_146_1_" fill="none" stroke="#FFFFFF" stroke-width="0.75" d="M463.06,242.15l65.41-45.01"/>
		<path id="Vector_147_1_" fill="none" stroke="#FFFFFF" stroke-width="0.75" d="M463.12,241.78l70.13-11.71"/>
		<path id="Vector_148_1_" fill="none" stroke="#FFFFFF" stroke-width="0.75" d="M532.98,229.73l61.07-49.12"/>
		<path id="Vector_149_1_" fill="none" stroke="#FFFFFF" stroke-width="0.75" d="M594.51,181.62l-65.87,15.73"/>
		<path id="Vector_150_1_" fill="none" stroke="#FFFFFF" stroke-width="0.75" d="M527.78,195.97l5.98,33.94"/>
		<path id="Vector_151_1_" fill="#FFFFFF" d="M476.3,108.59c1.22-0.91,1.43-2.65,0.49-3.88c-0.94-1.23-2.69-1.49-3.91-0.58
			c-1.21,0.91-1.43,2.65-0.49,3.88C473.34,109.24,475.09,109.5,476.3,108.59z"/>
		<path id="Vector_152_1_" fill="#FFFFFF" d="M509.26,150.07c1.22-0.91,1.43-2.65,0.49-3.88c-0.94-1.23-2.69-1.49-3.91-0.58
			c-1.21,0.91-1.43,2.65-0.49,3.88C506.29,150.72,508.04,150.98,509.26,150.07z"/>
		<path id="Vector_153_1_" fill="none" stroke="#FFFFFF" stroke-width="0.75" d="M460.05,159.85l14.04-53.71"/>
		<path id="Vector_154_1_" fill="none" stroke="#FFFFFF" stroke-width="0.75" d="M507.77,148.29l-46.79,11.38"/>
		<path id="Vector_155_1_" fill="#FFFFFF" d="M531.04,106.84c1.21-0.91,1.43-2.65,0.49-3.88c-0.95-1.23-2.69-1.49-3.91-0.58
			c-1.22,0.91-1.43,2.65-0.49,3.88C528.08,107.49,529.83,107.75,531.04,106.84z"/>
		<path id="Vector_156_1_" fill="#FFFFFF" d="M556.5,138.43c1.22-0.91,1.44-2.65,0.49-3.88c-0.94-1.23-2.69-1.49-3.9-0.58
			c-1.22,0.91-1.43,2.65-0.49,3.88C553.54,139.08,555.29,139.34,556.5,138.43z"/>
		<path id="Vector_157_1_" fill="none" stroke="#FFFFFF" stroke-width="0.75" d="M507.21,148.24l21.71-43.88"/>
		<path id="Vector_158_1_" fill="none" stroke="#FFFFFF" stroke-width="0.75" d="M555.02,136.65l-46.79,11.38"/>
		<path id="Vector_159_1_" fill="#FFFFFF" d="M452.11,408.77c1.48-1.11,1.74-3.22,0.6-4.71c-1.15-1.5-3.27-1.81-4.74-0.7
			c-1.47,1.1-1.74,3.21-0.59,4.71C448.51,409.56,450.63,409.88,452.11,408.77z"/>
		<path id="Vector_160_1_" fill="#FFFFFF" d="M462.99,368.54c1.22-0.91,1.43-2.65,0.49-3.88c-0.94-1.23-2.69-1.49-3.9-0.58
			c-1.22,0.91-1.44,2.65-0.49,3.88C460.03,369.19,461.78,369.45,462.99,368.54z"/>
		<path id="Vector_161_1_" fill="#FFFFFF" d="M503.92,407.15c1.26-0.94,1.48-2.74,0.51-4.01c-0.97-1.28-2.78-1.54-4.04-0.6
			c-1.25,0.94-1.48,2.74-0.5,4.01C500.85,407.82,502.66,408.09,503.92,407.15z"/>
		<path id="Vector_162_1_" fill="#FFFFFF" d="M483.57,489.97c1.25-0.94,1.48-2.74,0.5-4.01c-0.97-1.27-2.78-1.54-4.04-0.6
			c-1.26,0.94-1.48,2.74-0.51,4.01C480.51,490.65,482.31,490.92,483.57,489.97z"/>
		<path id="Vector_163_1_" fill="none" stroke="#FFFFFF" stroke-width="0.75" d="M404.83,350.65l56.67,15.7"/>
		<path id="Vector_164_1_" fill="none" stroke="#FFFFFF" stroke-width="0.75" d="M405.1,351.05l45.23,54.82"/>
		<path id="Vector_165_1_" fill="none" stroke="#FFFFFF" stroke-width="0.75" d="M449.93,405.97l32.34,81.4"/>
		<path id="Vector_166_1_" fill="none" stroke="#FFFFFF" stroke-width="0.75" d="M502.02,405.15l-40.99-38.59"/>
		<path id="Vector_167_1_" fill="none" stroke="#FFFFFF" stroke-width="0.75" d="M461.6,366.76l-11,39.35"/>
		<path id="Vector_168_1_" fill="none" stroke="#FFFFFF" stroke-width="0.75" d="M463.4,242.84l-57.85,65.19"/>
		<path id="Vector_169_1_" fill="none" stroke="#FFFFFF" stroke-width="0.75" d="M375.26,260.94l88.11-18.26"/>
		<path id="Vector_170_1_" fill="none" stroke="#FFFFFF" stroke-width="0.75" d="M336.78,234.29l6.96,30.38"/>
		<path id="Vector_171_1_" fill="none" stroke="#FFFFFF" stroke-width="0.75" d="M342.64,263.89l-24.44,41.11"/>
		<path id="Vector_172_1_" fill="none" stroke="#FFFFFF" stroke-width="0.75" d="M482.33,487.35l19.08-82.37"/>
		<path id="Vector_173_1_" fill="none" stroke="#FFFFFF" stroke-width="0.75" d="M502.34,405.46l-51.82,0.25"/>
		<path id="Vector_174_1_" fill="none" stroke="#FFFFFF" stroke-width="0.75" d="M449.63,407.08l-86.25,4.68"/>
		<path id="Vector_175_1_" fill="none" stroke="#FFFFFF" stroke-width="0.75" d="M403.04,99.25l-24.38-35.5l-30.79-10.81
			l-46.91,93.46"/>
		<path id="Vector_176_1_" fill="none" stroke="#FFFFFF" stroke-width="0.75" d="M317.57,305.38L365,347.25"/>
		<path id="Vector_177_1_" fill="none" stroke="#FFFFFF" stroke-width="0.75" d="M306.37,462.99l-100.23,4.73l-91.73-26.76
			L52.05,458.5l-32.08,84.41l84.01-53.06l102.14-22.13"/>
		<path id="Vector_178_1_" fill="none" stroke="#FFFFFF" stroke-width="0.75" d="M52.78,459.5l51.42,31.09"/>
		<path id="Vector_179_1_" fill="none" stroke="#FFFFFF" stroke-width="0.75" d="M114.82,441.55l-10.4,48.75"/>
		<path id="Vector_180_1_" fill="#FFFFFF" d="M220.32,221.6c1.68-1.26,1.98-3.66,0.68-5.36c-1.3-1.7-3.72-2.06-5.4-0.8
			c-1.68,1.26-1.98,3.66-0.68,5.36C216.23,222.5,218.64,222.86,220.32,221.6z"/>
		<path id="Vector_181_1_" fill="#FFFFFF" d="M139.81,265.74c1.25-0.94,1.48-2.73,0.51-4.01c-0.97-1.27-2.78-1.54-4.03-0.6
			c-1.25,0.94-1.48,2.73-0.51,4.01C136.75,266.41,138.56,266.68,139.81,265.74z"/>
		<path id="Vector_182_1_" fill="#FFFFFF" d="M157.27,217.77c1.47-1.11,1.74-3.22,0.6-4.71c-1.15-1.5-3.27-1.81-4.74-0.71
			c-1.47,1.11-1.74,3.22-0.6,4.71C153.67,218.56,155.79,218.88,157.27,217.77z"/>
		<path id="Vector_183_1_" fill="#FFFFFF" d="M192.79,276.25c1.24-0.93,1.46-2.7,0.5-3.96c-0.96-1.26-2.75-1.52-3.99-0.59
			c-1.24,0.93-1.46,2.7-0.5,3.96C189.76,276.91,191.55,277.18,192.79,276.25z"/>
		<path id="Vector_184_1_" fill="#FFFFFF" d="M272.65,268.91c1.24-0.93,1.46-2.7,0.5-3.96c-0.96-1.26-2.75-1.52-3.99-0.59
			c-1.24,0.93-1.46,2.7-0.5,3.96C269.63,269.58,271.41,269.84,272.65,268.91z"/>
		<path id="Vector_185_1_" fill="none" stroke="#FFFFFF" stroke-width="0.75" d="M317.91,306.55l-46.82-38.75l-53-49.19l-63.53-4.07
			l-16.55,47.97l53.07,11.12l80.01-5.84"/>
		<path id="Vector_186_1_" fill="none" stroke="#FFFFFF" stroke-width="0.75" d="M155.03,215.11l36.17,58.81"/>
		<path id="Vector_187_1_" fill="none" stroke="#FFFFFF" stroke-width="0.75" d="M218.48,218.47l-27.17,55.42"/>
		<path id="Vector_188_1_" fill="none" stroke="#FFFFFF" stroke-width="0.75" d="M271.08,266.73l72.27-1.13"/>
		<path id="Vector_189_1_" fill="none" stroke="#FFFFFF" stroke-width="0.75" d="M336.95,233.93l-65.82,32.97"/>
		<path id="Vector_190_1_" fill="none" stroke="#FFFFFF" stroke-width="0.75" d="M420.64,214.12L459.55,160"/>
		<path id="Vector_191_1_" fill="#FFFFFF" d="M209.37,339.7c2.1-1.57,2.48-4.57,0.85-6.7c-1.63-2.13-4.65-2.58-6.75-1
			c-2.1,1.57-2.48,4.57-0.85,6.7C204.25,340.82,207.27,341.27,209.37,339.7z"/>
		<path id="Vector_192_1_" fill="#FFFFFF" d="M152.53,337.9c1.21-0.91,1.43-2.65,0.49-3.88c-0.94-1.23-2.69-1.49-3.91-0.58
			c-1.21,0.91-1.43,2.65-0.49,3.88C149.57,338.55,151.32,338.81,152.53,337.9z"/>
		<path id="Vector_193_1_" fill="#FFFFFF" d="M183.57,380.83c1.21-0.91,1.43-2.65,0.49-3.88c-0.94-1.23-2.69-1.49-3.91-0.58
			c-1.21,0.91-1.43,2.65-0.49,3.88C180.6,381.48,182.35,381.74,183.57,380.83z"/>
		<path id="Vector_194_1_" fill="none" stroke="#FFFFFF" stroke-width="0.75" d="M150.49,335.05l56.03,1.13"/>
		<path id="Vector_195_1_" fill="none" stroke="#FFFFFF" stroke-width="0.75" d="M205.87,337.15l-23.68,41.59"/>
		<path id="Vector_196_1_" fill="#FFFFFF" d="M145.94,382.64c1.21-0.91,1.43-2.65,0.49-3.88c-0.94-1.23-2.69-1.49-3.91-0.58
			c-1.21,0.91-1.43,2.65-0.49,3.88C142.98,383.29,144.73,383.55,145.94,382.64z"/>
		<path id="Vector_197_1_" fill="#FFFFFF" d="M208.92,414.81c1.21-0.91,1.43-2.65,0.49-3.88c-0.94-1.23-2.69-1.49-3.91-0.58
			c-1.21,0.91-1.43,2.65-0.49,3.88C205.96,415.46,207.71,415.72,208.92,414.81z"/>
		<path id="Vector_198_1_" fill="none" stroke="#FFFFFF" stroke-width="0.75" d="M143.93,379.89l38.59-1.47"/>
		<path id="Vector_199_1_" fill="none" stroke="#FFFFFF" stroke-width="0.75" d="M182.09,379.44l25.27,33.33"/>
		<path id="Vector_200_1_" fill="none" stroke="#FFFFFF" stroke-width="0.75" d="M190.69,274.07l16.07,61.68"/>
	</g>
</mask>
<linearGradient id="gradient_1_" gradientUnits="userSpaceOnUse" x1="356.5441" y1="681.8966" x2="248.9983" y2="-7.9839" gradientTransform="matrix(1 0 0 -1 0 713.3362)">
	<stop  offset="0" style="stop-color:#3AE3D8"/>
	<stop  offset="0.5365" style="stop-color:#638BFF"/>
	<stop  offset="1" style="stop-color:#D819F7"/>
</linearGradient>
<rect id="gradient" mask="url(#mask0_1_)" fill="url(#gradient_1_)" width="612" height="711.34"/>
</svg>
