<svg xmlns="http://www.w3.org/2000/svg" fill="none" viewBox="0 0 184 257"><path fill="url(#paint0_linear)" fill-rule="evenodd" d="M46.5 92.3a46.1 46.1 0 1 0 0-92.2 46.1 46.1 0 0 0 0 92.2zm67.6 1.6a23 23 0 1 0 0-46.1 23 23 0 0 0 0 46.1zm0 0a23 23 0 1 1 0 0zm-46.2 11.5a11.5 11.5 0 1 1-23 0 11.5 11.5 0 0 1 23 0zM79.5 117a11.5 11.5 0 1 0 0-23 11.5 11.5 0 0 0 0 23zm0 23a11.5 11.5 0 1 0-11.6-11.5 11.5 11.5 0 1 0-23 0 11.5 11.5 0 0 0 23 0c0 6.4 5.2 11.5 11.6 11.5zm0 0a11.5 11.5 0 1 1 0 23 11.5 11.5 0 0 1 0-23zm41.1 93a23 23 0 1 0 0-46.2 23 23 0 0 0 0 46.1zm-52.7-58.4a11.5 11.5 0 1 1-23 0 11.5 11.5 0 0 1 23 0zm-10.2 57.6a11.5 11.5 0 1 0 0-23 11.5 11.5 0 0 0 0 23zm11.5 12.5a11.5 11.5 0 1 1-23 0 11.5 11.5 0 0 1 23 0z" clip-rule="evenodd"/><defs><linearGradient id="paint0_linear" x1="8.3" x2="63.6" y1=".1" y2="244.1" gradientUnits="userSpaceOnUse"><stop stop-color="#0060A8"/><stop offset="1" stop-color="#008979"/></linearGradient></defs></svg>