<svg xmlns="http://www.w3.org/2000/svg" xmlns:xlink="http://www.w3.org/1999/xlink">
<symbol viewBox="0 0 18 18" id="ic_apps_18px" xmlns="http://www.w3.org/2000/svg"><path fill="currentColor" d="M2 10h3V7H2v3zm0-5h3V2H2v3zm0 10h3v-3H2v3zm5 0h3v-3H7v3zm5-5h3V7h-3v3zm-5 0h3V7H7v3zm5 5h3v-3h-3v3zm0-13v3h3V2h-3zM7 5h3V2H7v3z"/></symbol>
<symbol viewBox="0 0 18 18" id="ic_arrow_back_18px" xmlns="http://www.w3.org/2000/svg"><path fill="currentColor" d="M15 8.25H5.87l4.19-4.19L9 3 3 9l6 6 1.06-1.06-4.19-4.19H15v-1.5z"/></symbol>
<symbol viewBox="0 0 18 18" id="ic_arrow_drop_down_18px" xmlns="http://www.w3.org/2000/svg"><path fill="currentColor" d="M5 8l4 4 4-4z"/></symbol>
<symbol viewBox="0 0 18 18" id="ic_arrow_drop_up_18px" xmlns="http://www.w3.org/2000/svg"><path fill="currentColor" d="M9 6l-4 4h8z"/></symbol>
<symbol viewBox="0 0 18 18" id="ic_arrow_forward_18px" xmlns="http://www.w3.org/2000/svg"><path fill="currentColor" d="M9 3L7.94 4.06l4.19 4.19H3v1.5h9.13l-4.19 4.19L9 15l6-6z"/></symbol>
<symbol viewBox="0 0 18 18" id="ic_cancel_18px" xmlns="http://www.w3.org/2000/svg"><path fill="currentColor" d="M9 1C4.58 1 1 4.58 1 9s3.58 8 8 8 8-3.58 8-8-3.58-8-8-8zm4 10.87L11.87 13 9 10.13 6.13 13 5 11.87 7.87 9 5 6.13 6.13 5 9 7.87 11.87 5 13 6.13 10.13 9 13 11.87z"/></symbol>
<symbol viewBox="0 0 18 18" id="ic_check_18px" xmlns="http://www.w3.org/2000/svg"><path fill="currentColor" d="M6.61 11.89L3.5 8.78 2.44 9.84 6.61 14l8.95-8.95L14.5 4z"/></symbol>
<symbol viewBox="0 0 18 18" id="ic_chevron_left_18px" xmlns="http://www.w3.org/2000/svg"><path fill="currentColor" d="M11.56 5.56L10.5 4.5 6 9l4.5 4.5 1.06-1.06L8.12 9z"/></symbol>
<symbol viewBox="0 0 18 18" id="ic_chevron_right_18px" xmlns="http://www.w3.org/2000/svg"><path fill="currentColor" d="M7.5 4.5L6.44 5.56 9.88 9l-3.44 3.44L7.5 13.5 12 9z"/></symbol>
<symbol viewBox="0 0 18 18" id="ic_close_18px" xmlns="http://www.w3.org/2000/svg"><path fill="currentColor" d="M14.53 4.53l-1.06-1.06L9 7.94 4.53 3.47 3.47 4.53 7.94 9l-4.47 4.47 1.06 1.06L9 10.06l4.47 4.47 1.06-1.06L10.06 9z"/></symbol>
<symbol viewBox="0 0 18 18" id="ic_event_18px" xmlns="http://www.w3.org/2000/svg"><path d="M0 0h18v18H0z" fill="none"/><path fill="currentColor" d="M13 9H9v4h4V9zm2-7h-1V1h-2v1H6V1H4v1H3c-.55 0-1 .45-1 1v12c0 .55.45 1 1 1h12c.55 0 1-.45 1-1V3c0-.55-.45-1-1-1zm-1 12H4V6h10v8z"/></symbol>
<symbol viewBox="0 0 18 18" id="ic_expand_less_18px" xmlns="http://www.w3.org/2000/svg"><path fill="currentColor" d="M9 6l-4.5 4.5 1.06 1.06L9 8.12l3.44 3.44 1.06-1.06z"/></symbol>
<symbol viewBox="0 0 18 18" id="ic_expand_more_18px" xmlns="http://www.w3.org/2000/svg"><path fill="currentColor" d="M12.44 6.44L9 9.88 5.56 6.44 4.5 7.5 9 12l4.5-4.5z"/></symbol>
<symbol viewBox="0 0 18 18" id="ic_menu_18px" xmlns="http://www.w3.org/2000/svg"><path fill="currentColor" d="M2 13.5h14V12H2v1.5zm0-4h14V8H2v1.5zM2 4v1.5h14V4H2z"/></symbol>
<symbol viewBox="0 0 18 18" id="ic_more_horiz_18px" xmlns="http://www.w3.org/2000/svg"><path fill="currentColor" d="M4 7.5c-.83 0-1.5.67-1.5 1.5s.67 1.5 1.5 1.5S5.5 9.83 5.5 9 4.83 7.5 4 7.5zm10 0c-.83 0-1.5.67-1.5 1.5s.67 1.5 1.5 1.5 1.5-.67 1.5-1.5-.67-1.5-1.5-1.5zm-5 0c-.83 0-1.5.67-1.5 1.5s.67 1.5 1.5 1.5 1.5-.67 1.5-1.5S9.83 7.5 9 7.5z"/></symbol>
<symbol viewBox="0 0 18 18" id="ic_more_vert_18px" xmlns="http://www.w3.org/2000/svg"><path fill="currentColor" d="M9 5.5c.83 0 1.5-.67 1.5-1.5S9.83 2.5 9 2.5 7.5 3.17 7.5 4 8.17 5.5 9 5.5zm0 2c-.83 0-1.5.67-1.5 1.5s.67 1.5 1.5 1.5 1.5-.67 1.5-1.5S9.83 7.5 9 7.5zm0 5c-.83 0-1.5.67-1.5 1.5s.67 1.5 1.5 1.5 1.5-.67 1.5-1.5-.67-1.5-1.5-1.5z"/></symbol>
<symbol viewBox="0 0 18 18" id="ic_unfold_less_18px" xmlns="http://www.w3.org/2000/svg"><path fill="currentColor" d="M5.56 14.44l1.06 1.06L9 13.12l2.38 2.38 1.06-1.06L9 11l-3.44 3.44zm6.88-10.88L11.38 2.5 9 4.88 6.62 2.5 5.56 3.56 9 7l3.44-3.44z"/></symbol>
<symbol viewBox="0 0 18 18" id="ic_unfold_more_18px" xmlns="http://www.w3.org/2000/svg"><path fill="currentColor" d="M9 4.12l2.38 2.38 1.06-1.06L9 2 5.56 5.44 6.62 6.5 9 4.12zm0 9.76L6.62 11.5l-1.06 1.06L9 16l3.44-3.44-1.06-1.06L9 13.88z"/></symbol>
<symbol id="icon-email-line" width="24" height="24" xmlns="http://www.w3.org/2000/svg" viewBox="0 0 24 24"><path d="M20 4H4c-1.1 0-1.99.9-1.99 2L2 18c0 1.1.9 2 2 2h16c1.1 0 2-.9 2-2V6c0-1.1-.9-2-2-2zm0 14H4V8l8 5 8-5v10zm-8-7L4 6h16l-8 5z"/></symbol>
<symbol viewBox="0 0 32 32" id="icon-email" xmlns="http://www.w3.org/2000/svg"><title>icon-email</title><path d="M2.893 8.036l11.667 6.38c.392.213.899.314 1.409.314s1.017-.1 1.41-.315l11.666-6.379c.76-.416 1.48-2.036.084-2.036H2.81c-1.395 0-.676 1.62.083 2.036zm26.505 3.488L17.378 17.9c-.529.282-.899.315-1.41.315-.51 0-.88-.033-1.408-.315-.53-.281-11.096-5.92-11.96-6.377-.606-.323-.6.055-.6.346v11.548C2 24.082 2.88 25 3.556 25h24.888C29.12 25 30 24.082 30 23.417V11.87c0-.291.006-.67-.602-.347z" fill="#4B4B4B"/></symbol>
<symbol width="24" height="24" xmlns="http://www.w3.org/2000/svg" viewBox="0 0 24 24"><path fill="currentColor" d="M20 4H4c-1.1 0-1.99.9-1.99 2L2 18c0 1.1.9 2 2 2h16c1.1 0 2-.9 2-2V6c0-1.1-.9-2-2-2zm0 14H4V8l8 5 8-5v10zm-8-7L4 6h16l-8 5z"/></symbol>
<symbol viewBox="0 0 32 32" id="icon-facebook" xmlns="http://www.w3.org/2000/svg"><title>icon-facebook</title><path d="M18.43 6.315c-.541 0-1.144.694-1.144 1.625v3.225H23v4.6h-5.714v13.814h-5.395V15.767H7v-4.602h4.891V8.46c0-3.882 2.755-7.04 6.538-7.04H23v4.895h-4.57z" fill="#3B5998"/></symbol>
<symbol viewBox="0 0 32 32" id="icon-linkedin" xmlns="http://www.w3.org/2000/svg"><title>icon-linkedin</title><path d="M2 7.267A5.255 5.255 0 0 1 7.267 2h17.466A5.255 5.255 0 0 1 30 7.267v17.466A5.255 5.255 0 0 1 24.733 30H7.267A5.255 5.255 0 0 1 2 24.733V7.267zm24.114 11.575c0-3.922-2.095-5.748-4.889-5.748-2.255 0-3.263 1.242-3.827 2.11v.042h-.028l.028-.041v-1.81h-4.247c.058 1.198 0 12.77 0 12.77h4.247v-7.132c0-.382.03-.762.141-1.035.307-.763 1.005-1.553 2.179-1.553 1.536 0 2.15 1.171 2.15 2.888v6.833h4.246v-7.324zM8.709 7.238c-1.453 0-2.403.953-2.403 2.206 0 1.226.923 2.208 2.347 2.208h.028c1.481 0 2.402-.982 2.402-2.208-.028-1.253-.921-2.206-2.374-2.206zm-2.15 18.928h4.244V13.394H6.558v12.772z" fill="#0077B5"/></symbol>
<symbol viewBox="0 0 32 32" id="icon-twitter" xmlns="http://www.w3.org/2000/svg"><title>icon-twitter</title><path d="M2.582 24.14c0 .14.07.267.208.38.231.159.643.394 1.235.704C6.283 26.408 8.651 27 11.13 27c3.09 0 5.898-.808 8.423-2.424a14.604 14.604 0 0 0 3.206-2.784c.934-1.085 1.677-2.217 2.227-3.396a17.858 17.858 0 0 0 1.235-3.545c.273-1.184.4-2.335.382-3.452v-.494c1.082-.79 1.929-1.691 2.539-2.706a.656.656 0 0 0 .083-.254c0-.122-.05-.24-.139-.324a.436.436 0 0 0-.318-.14c-.065 0-.176.037-.334.112-.276.094-.55.19-.825.289a2.64 2.64 0 0 1-.23.078c.241-.273.49-.642.75-1.107.26-.465.389-.805.389-1.022 0-.12-.05-.236-.139-.316a.463.463 0 0 0-.333-.135.412.412 0 0 0-.222.071c-1.055.573-2.04.963-2.956 1.17C23.749 5.54 22.412 5 20.858 5c-1.591 0-2.947.564-4.066 1.691-1.12 1.128-1.679 2.49-1.679 4.087 0 .282.019.513.055.69a14.323 14.323 0 0 1-4.524-1.14A13.941 13.941 0 0 1 6.732 7.79a53.81 53.81 0 0 1-1.555-1.65.529.529 0 0 0-.389-.169c-.11 0-.226.076-.346.226-.24.366-.43.815-.569 1.346A6.144 6.144 0 0 0 3.664 9.1c0 1.4.43 2.621 1.29 3.664l-.401-.197c-.232-.103-.403-.155-.514-.155a.576.576 0 0 0-.395.141.466.466 0 0 0-.16.367c0 .986.25 1.921.75 2.805a5.8 5.8 0 0 0 2.025 2.113l-.166-.027a.294.294 0 0 1-.076-.015 2.486 2.486 0 0 0-.077-.021.187.187 0 0 0-.042-.007.413.413 0 0 0-.311.14.445.445 0 0 0-.133.31c0 .01.01.062.028.156.3.954.84 1.811 1.568 2.487a5.623 5.623 0 0 0 2.567 1.375c-1.61 1.004-3.386 1.508-5.328 1.508-.129 0-.337-.014-.625-.043-.212-.011-.425-.02-.638-.027a.413.413 0 0 0-.312.14.46.46 0 0 0-.132.324z" fill="#1DA1F2" fill-rule="evenodd"/></symbol>
<symbol viewBox="0 0 57 171" id="triangle" xmlns="http://www.w3.org/2000/svg"><title>triangle</title><path fill="currentColor" d="M12 109.532V59l35.472 25.266z"/></symbol>
<symbol id="icon-links" xmlns="http://www.w3.org/2000/svg" width="37" height="36" viewBox="0 0 37 36"><path fill="currentColor" fill-rule="evenodd" d="M20.103 3.6831l-6.2372 6.2362 2.4034 2.4025 6.2372-6.2358c2.3182-2.3192 6.0903-2.3192 8.4095 0 2.3192 2.3187 2.3192 6.0913 0 8.41l-6.2367 6.2372 2.4038 2.4033 6.2372-6.2362c3.643-3.6448 3.6434-9.5733-.0005-13.2167C29.6754.0387 23.746.0392 20.103 3.683zM7.0874 29.9154c-1.1236-1.1231-1.7429-2.6172-1.7429-4.2043 0-1.5894.618-3.0826 1.7415-4.2052l.001-.0005 6.2367-6.2371-2.4034-2.4025-6.2363 6.2358v.001c-1.7648 1.7648-2.7373 4.112-2.736 6.6071-.0013 2.496.9721 4.8433 2.7365 6.6081 3.643 3.6425 9.5724 3.6435 13.2172 0l6.2358-6.2362-2.4039-2.403-6.2362 6.2363c-2.3192 2.3183-6.0917 2.3192-8.41.0005zm6.3074-3.905L27.0119 12.393l-2.4034-2.4034-13.6166 13.618 2.4029 2.403z"/></symbol>
<symbol id="icon-tag" xmlns="http://www.w3.org/2000/svg" width="27" height="32" viewBox="0 0 27 32"><title>tag</title><path fill="currentColor" d="M8 8c0-1.268-1.018-2.286-2.286-2.286S3.428 6.732 3.428 8s1.018 2.286 2.286 2.286S8 9.268 8 8zm19.054 10.286c0 .607-.25 1.196-.661 1.607l-8.768 8.786c-.429.411-1.018.661-1.625.661s-1.196-.25-1.607-.661L1.625 15.893C.714 15 0 13.268 0 12V4.571a2.302 2.302 0 0 1 2.286-2.286h7.429c1.268 0 3 .714 3.911 1.625l12.768 12.75c.411.429.661 1.018.661 1.625z"/></symbol>
</svg>