<?xml version="1.0" encoding="UTF-8"?>
<svg width="1440px" height="891px" viewBox="0 0 1440 891" version="1.1" xmlns="http://www.w3.org/2000/svg" xmlns:xlink="http://www.w3.org/1999/xlink">
    <!-- Generator: Sketch 49 (51002) - http://www.bohemiancoding.com/sketch -->
    <title>compliance-bg</title>
    <desc>Created with Sketch.</desc>
    <defs>
        <linearGradient x1="50%" y1="7.19816405%" x2="50%" y2="98.5341023%" id="linearGradient-1">
            <stop stop-color="#77003B" offset="0%"></stop>
            <stop stop-color="#230F2B" offset="100%"></stop>
        </linearGradient>
    </defs>
    <g id="compliance-bg" stroke="none" stroke-width="1" fill="none" fill-rule="evenodd">
        <polygon id="Triangle" fill="url(#linearGradient-1)" points="329 85 753 933 -95 933"></polygon>
        <polygon id="Triangle" fill="url(#linearGradient-1)" transform="translate(376.500000, 353.500000) rotate(90.000000) translate(-376.500000, -353.500000) " points="376.5 -226 956 933 -203 933"></polygon>
        <polygon id="Triangle" fill="url(#linearGradient-1)" transform="translate(978.000000, 569.000000) rotate(180.000000) translate(-978.000000, -569.000000) " points="978 -122 1669 1260 287 1260"></polygon>
        <polygon id="Triangle" fill="url(#linearGradient-1)" points="854.5 284 1226 1027 483 1027"></polygon>
        <polygon id="Triangle" fill="url(#linearGradient-1)" points="1400.5 250 1772 993 1029 993"></polygon>
        <polygon id="Triangle" fill="url(#linearGradient-1)" points="1029.5 -122 1401 621 658 621"></polygon>
        <polygon id="Triangle" fill="url(#linearGradient-1)" transform="translate(1373.500000, 685.500000) rotate(90.000000) translate(-1373.500000, -685.500000) " points="1373.5 314 1745 1057 1002 1057"></polygon>
        <polygon id="Triangle" fill="url(#linearGradient-1)" transform="translate(854.500000, 423.500000) rotate(90.000000) translate(-854.500000, -423.500000) " points="854.5 52 1226 795 483 795"></polygon>
        <polygon id="Triangle" fill="url(#linearGradient-1)" transform="translate(286.733585, 84.733585) rotate(45.000000) translate(-286.733585, -84.733585) " points="286.733585 -142.766415 514.233585 312.233585 59.2335854 312.233585"></polygon>
        <polygon id="Triangle" fill="url(#linearGradient-1)" transform="translate(728.500000, 148.500000) rotate(180.000000) translate(-728.500000, -148.500000) " points="728.5 -79 956 376 501 376"></polygon>
    </g>
</svg>