<?xml version="1.0" encoding="UTF-8"?>
<svg width="1440px" height="891px" viewBox="0 0 1440 891" version="1.1" xmlns="http://www.w3.org/2000/svg" xmlns:xlink="http://www.w3.org/1999/xlink">
    <!-- Generator: Sketch 49 (51002) - http://www.bohemiancoding.com/sketch -->
    <title>pricing-v2-bg</title>
    <desc>Created with Sketch.</desc>
    <defs>
        <linearGradient x1="50%" y1="7.19816405%" x2="50%" y2="98.5341023%" id="linearGradient-1">
            <stop stop-color="#1758A2" offset="0%"></stop>
            <stop stop-color="#0C102A" offset="100%"></stop>
        </linearGradient>
    </defs>
    <g id="pricing-v2-bg" stroke="none" stroke-width="1" fill="none" fill-rule="evenodd">
        <g id="Group" transform="translate(670.000000, 423.000000) rotate(-90.000000) translate(-670.000000, -423.000000) translate(-759.000000, -1120.000000)" fill="url(#linearGradient-1)">
            <polygon id="Path-2" transform="translate(1775.699219, 905.793725) rotate(-30.000000) translate(-1775.699219, -905.793725) " points="872.808594 420.086693 2744.88672 1164.61794 2314.19922 1391.50076 806.511719 1164.61794 860.300781 479.328881"></polygon>
            <polygon id="Path" transform="translate(1124.290630, 1324.640960) rotate(-220.000000) translate(-1124.290630, -1324.640960) " points="250.256064 1804.59945 2061.15065 692.179744 2021.87367 1957.10218 187.430609 1911.94472"></polygon>
            <polygon id="Path-2" transform="translate(1660.124477, 1658.776067) rotate(-220.000000) translate(-1660.124477, -1658.776067) " points="757.233852 1173.06904 2629.31198 1917.60029 2198.62448 2144.4831 690.936977 1917.60029 744.726039 1232.31122"></polygon>
            <polygon id="Path-3" transform="translate(1660.124477, 2013.060273) rotate(-220.000000) translate(-1660.124477, -2013.060273) " points="669.425258 1887.84543 2650.8237 1444.61105 2367.83932 2581.50949 669.425258 2051.72043"></polygon>
        </g>
    </g>
</svg>